solid CATIA STL
  facet normal  -0.000000e+000  -0.000000e+000  1.000000e+000
    outer loop
      vertex -1.704663e+001 -2.625000e+000  4.000000e+000
      vertex -1.512500e+001 -4.546633e+000  4.000000e+000
      vertex -1.250000e+001 -5.250000e+000  4.000000e+000
    endloop
  endfacet
  facet normal  0.000000e+000  -0.000000e+000  1.000000e+000
    outer loop
      vertex -1.704663e+001 -2.625000e+000  4.000000e+000
      vertex -1.250000e+001 -5.250000e+000  4.000000e+000
      vertex -1.250000e+001 -2.000000e+000  4.000000e+000
    endloop
  endfacet
  facet normal  0.000000e+000  0.000000e+000  9.999999e-001
    outer loop
      vertex -1.704663e+001 -2.625000e+000  4.000000e+000
      vertex -1.250000e+001 -2.000000e+000  4.000000e+000
      vertex -1.391421e+001 -1.414214e+000  4.000000e+000
    endloop
  endfacet
  facet normal  0.000000e+000  0.000000e+000  1.000000e+000
    outer loop
      vertex -1.704663e+001 -2.625000e+000  4.000000e+000
      vertex -1.391421e+001 -1.414214e+000  4.000000e+000
      vertex -1.450000e+001 -1.531436e-015  4.000000e+000
    endloop
  endfacet
  facet normal  0.000000e+000  0.000000e+000  1.000000e+000
    outer loop
      vertex -1.704663e+001 -2.625000e+000  4.000000e+000
      vertex -1.450000e+001 -1.531436e-015  4.000000e+000
      vertex -1.775000e+001  2.242679e-014  4.000000e+000
    endloop
  endfacet
  facet normal  0.000000e+000  0.000000e+000  1.000000e+000
    outer loop
      vertex -7.953367e+000  2.625000e+000  4.000000e+000
      vertex -9.875000e+000  4.546633e+000  4.000000e+000
      vertex -1.250000e+001  2.000000e+000  4.000000e+000
    endloop
  endfacet
  facet normal  0.000000e+000  0.000000e+000  1.000000e+000
    outer loop
      vertex -1.250000e+001  2.000000e+000  4.000000e+000
      vertex -9.875000e+000  4.546633e+000  4.000000e+000
      vertex -1.250000e+001  5.250000e+000  4.000000e+000
    endloop
  endfacet
  facet normal  0.000000e+000  0.000000e+000  1.000000e+000
    outer loop
      vertex -1.250000e+001  2.000000e+000  4.000000e+000
      vertex -1.250000e+001  5.250000e+000  4.000000e+000
      vertex -1.704663e+001  2.625000e+000  4.000000e+000
    endloop
  endfacet
  facet normal  0.000000e+000  0.000000e+000  1.000000e+000
    outer loop
      vertex -1.704663e+001  2.625000e+000  4.000000e+000
      vertex -1.250000e+001  5.250000e+000  4.000000e+000
      vertex -1.512500e+001  4.546633e+000  4.000000e+000
    endloop
  endfacet
  facet normal  0.000000e+000  0.000000e+000  9.999999e-001
    outer loop
      vertex -1.250000e+001  2.000000e+000  4.000000e+000
      vertex -1.704663e+001  2.625000e+000  4.000000e+000
      vertex -1.391421e+001  1.414214e+000  4.000000e+000
    endloop
  endfacet
  facet normal  0.000000e+000  0.000000e+000  1.000000e+000
    outer loop
      vertex -1.391421e+001  1.414214e+000  4.000000e+000
      vertex -1.704663e+001  2.625000e+000  4.000000e+000
      vertex -1.775000e+001  2.242679e-014  4.000000e+000
    endloop
  endfacet
  facet normal  -0.000000e+000  0.000000e+000  1.000000e+000
    outer loop
      vertex -1.391421e+001  1.414214e+000  4.000000e+000
      vertex -1.775000e+001  2.242679e-014  4.000000e+000
      vertex -1.450000e+001 -1.531436e-015  4.000000e+000
    endloop
  endfacet
  facet normal  -0.000000e+000  0.000000e+000  1.000000e+000
    outer loop
      vertex -7.953367e+000  2.625000e+000  4.000000e+000
      vertex -1.250000e+001  2.000000e+000  4.000000e+000
      vertex -7.250000e+000 -1.530808e-015  4.000000e+000
    endloop
  endfacet
  facet normal  0.000000e+000  0.000000e+000  1.000000e+000
    outer loop
      vertex -7.250000e+000 -1.530808e-015  4.000000e+000
      vertex -1.250000e+001  2.000000e+000  4.000000e+000
      vertex -1.108579e+001  1.414214e+000  4.000000e+000
    endloop
  endfacet
  facet normal  0.000000e+000  0.000000e+000  1.000000e+000
    outer loop
      vertex -7.250000e+000 -1.530808e-015  4.000000e+000
      vertex -1.108579e+001  1.414214e+000  4.000000e+000
      vertex -1.050000e+001  1.040966e-015  4.000000e+000
    endloop
  endfacet
  facet normal  0.000000e+000  0.000000e+000  1.000000e+000
    outer loop
      vertex -7.250000e+000 -1.530808e-015  4.000000e+000
      vertex -1.050000e+001  1.040966e-015  4.000000e+000
      vertex -7.953367e+000 -2.625000e+000  4.000000e+000
    endloop
  endfacet
  facet normal  0.000000e+000  0.000000e+000  1.000000e+000
    outer loop
      vertex -7.953367e+000 -2.625000e+000  4.000000e+000
      vertex -1.050000e+001  1.040966e-015  4.000000e+000
      vertex -1.108579e+001 -1.414214e+000  4.000000e+000
    endloop
  endfacet
  facet normal  0.000000e+000  0.000000e+000  1.000000e+000
    outer loop
      vertex -7.953367e+000 -2.625000e+000  4.000000e+000
      vertex -1.108579e+001 -1.414214e+000  4.000000e+000
      vertex -1.250000e+001 -2.000000e+000  4.000000e+000
    endloop
  endfacet
  facet normal  0.000000e+000  0.000000e+000  1.000000e+000
    outer loop
      vertex -1.250000e+001 -5.250000e+000  4.000000e+000
      vertex -9.875000e+000 -4.546633e+000  4.000000e+000
      vertex -1.250000e+001 -2.000000e+000  4.000000e+000
    endloop
  endfacet
  facet normal  0.000000e+000  0.000000e+000  1.000000e+000
    outer loop
      vertex -1.250000e+001 -2.000000e+000  4.000000e+000
      vertex -9.875000e+000 -4.546633e+000  4.000000e+000
      vertex -7.953367e+000 -2.625000e+000  4.000000e+000
    endloop
  endfacet
  facet normal  0.000000e+000  0.000000e+000  1.000000e+000
    outer loop
      vertex -7.953367e+000 -2.625000e+000  6.000000e+000
      vertex  1.250000e+001 -2.000000e+000  6.000000e+000
      vertex  1.108579e+001 -1.414214e+000  6.000000e+000
    endloop
  endfacet
  facet normal  0.000000e+000  0.000000e+000  1.000000e+000
    outer loop
      vertex -1.250000e+001 -5.250000e+000  6.000000e+000
      vertex  1.250000e+001 -5.250000e+000  6.000000e+000
      vertex -9.875000e+000 -4.546633e+000  6.000000e+000
    endloop
  endfacet
  facet normal  0.000000e+000  -0.000000e+000  1.000000e+000
    outer loop
      vertex -1.250000e+001  5.250000e+000  6.000000e+000
      vertex -9.875000e+000  4.546633e+000  6.000000e+000
      vertex  1.250000e+001  5.250000e+000  6.000000e+000
    endloop
  endfacet
  facet normal  0.000000e+000  0.000000e+000  1.000000e+000
    outer loop
      vertex  1.250000e+001  5.250000e+000  6.000000e+000
      vertex -9.875000e+000  4.546633e+000  6.000000e+000
      vertex  1.250000e+001  2.000000e+000  6.000000e+000
    endloop
  endfacet
  facet normal  0.000000e+000  0.000000e+000  1.000000e+000
    outer loop
      vertex  1.250000e+001  5.250000e+000  6.000000e+000
      vertex  1.250000e+001  2.000000e+000  6.000000e+000
      vertex  1.512500e+001  4.546633e+000  6.000000e+000
    endloop
  endfacet
  facet normal  0.000000e+000  0.000000e+000  1.000000e+000
    outer loop
      vertex  1.512500e+001  4.546633e+000  6.000000e+000
      vertex  1.250000e+001  2.000000e+000  6.000000e+000
      vertex  1.704663e+001  2.625000e+000  6.000000e+000
    endloop
  endfacet
  facet normal  0.000000e+000  0.000000e+000  1.000000e+000
    outer loop
      vertex -7.250000e+000 -1.530808e-015  6.000000e+000
      vertex  1.108579e+001  1.414214e+000  6.000000e+000
      vertex -7.953367e+000  2.625000e+000  6.000000e+000
    endloop
  endfacet
  facet normal  0.000000e+000  0.000000e+000  1.000000e+000
    outer loop
      vertex -7.953367e+000  2.625000e+000  6.000000e+000
      vertex  1.108579e+001  1.414214e+000  6.000000e+000
      vertex  1.250000e+001  2.000000e+000  6.000000e+000
    endloop
  endfacet
  facet normal  0.000000e+000  0.000000e+000  1.000000e+000
    outer loop
      vertex -7.953367e+000  2.625000e+000  6.000000e+000
      vertex  1.250000e+001  2.000000e+000  6.000000e+000
      vertex -9.875000e+000  4.546633e+000  6.000000e+000
    endloop
  endfacet
  facet normal  0.000000e+000  0.000000e+000  1.000000e+000
    outer loop
      vertex -7.953367e+000 -2.625000e+000  6.000000e+000
      vertex  1.108579e+001 -1.414214e+000  6.000000e+000
      vertex -7.250000e+000 -1.530808e-015  6.000000e+000
    endloop
  endfacet
  facet normal  -0.000000e+000  0.000000e+000  1.000000e+000
    outer loop
      vertex -7.250000e+000 -1.530808e-015  6.000000e+000
      vertex  1.108579e+001 -1.414214e+000  6.000000e+000
      vertex  1.050000e+001  1.775730e-015  6.000000e+000
    endloop
  endfacet
  facet normal  0.000000e+000  -0.000000e+000  1.000000e+000
    outer loop
      vertex -7.250000e+000 -1.530808e-015  6.000000e+000
      vertex  1.050000e+001  1.775730e-015  6.000000e+000
      vertex  1.108579e+001  1.414214e+000  6.000000e+000
    endloop
  endfacet
  facet normal  0.000000e+000  0.000000e+000  1.000000e+000
    outer loop
      vertex  1.512500e+001 -4.546633e+000  6.000000e+000
      vertex  1.704663e+001 -2.625000e+000  6.000000e+000
      vertex  1.250000e+001 -5.250000e+000  6.000000e+000
    endloop
  endfacet
  facet normal  0.000000e+000  0.000000e+000  1.000000e+000
    outer loop
      vertex  1.250000e+001 -5.250000e+000  6.000000e+000
      vertex  1.704663e+001 -2.625000e+000  6.000000e+000
      vertex  1.250000e+001 -2.000000e+000  6.000000e+000
    endloop
  endfacet
  facet normal  0.000000e+000  0.000000e+000  1.000000e+000
    outer loop
      vertex  1.250000e+001 -5.250000e+000  6.000000e+000
      vertex  1.250000e+001 -2.000000e+000  6.000000e+000
      vertex -9.875000e+000 -4.546633e+000  6.000000e+000
    endloop
  endfacet
  facet normal  0.000000e+000  0.000000e+000  1.000000e+000
    outer loop
      vertex -9.875000e+000 -4.546633e+000  6.000000e+000
      vertex  1.250000e+001 -2.000000e+000  6.000000e+000
      vertex -7.953367e+000 -2.625000e+000  6.000000e+000
    endloop
  endfacet
  facet normal  -0.000000e+000  0.000000e+000  1.000000e+000
    outer loop
      vertex  1.704663e+001  2.625000e+000  6.000000e+000
      vertex  1.250000e+001  2.000000e+000  6.000000e+000
      vertex  1.775000e+001  6.368206e-015  6.000000e+000
    endloop
  endfacet
  facet normal  0.000000e+000  0.000000e+000  1.000000e+000
    outer loop
      vertex  1.775000e+001  6.368206e-015  6.000000e+000
      vertex  1.250000e+001  2.000000e+000  6.000000e+000
      vertex  1.391421e+001  1.414214e+000  6.000000e+000
    endloop
  endfacet
  facet normal  0.000000e+000  0.000000e+000  1.000000e+000
    outer loop
      vertex  1.775000e+001  6.368206e-015  6.000000e+000
      vertex  1.391421e+001  1.414214e+000  6.000000e+000
      vertex  1.450000e+001  1.530808e-015  6.000000e+000
    endloop
  endfacet
  facet normal  -0.000000e+000  0.000000e+000  1.000000e+000
    outer loop
      vertex  1.775000e+001  6.368206e-015  6.000000e+000
      vertex  1.450000e+001  1.530808e-015  6.000000e+000
      vertex  1.704663e+001 -2.625000e+000  6.000000e+000
    endloop
  endfacet
  facet normal  0.000000e+000  0.000000e+000  1.000000e+000
    outer loop
      vertex  1.704663e+001 -2.625000e+000  6.000000e+000
      vertex  1.450000e+001  1.530808e-015  6.000000e+000
      vertex  1.391421e+001 -1.414214e+000  6.000000e+000
    endloop
  endfacet
  facet normal  0.000000e+000  0.000000e+000  9.999999e-001
    outer loop
      vertex  1.704663e+001 -2.625000e+000  6.000000e+000
      vertex  1.391421e+001 -1.414214e+000  6.000000e+000
      vertex  1.250000e+001 -2.000000e+000  6.000000e+000
    endloop
  endfacet
  facet normal -3.826835e-001  9.238794e-001  0.000000e+000
    outer loop
      vertex -1.250000e+001 -2.000000e+000  2.300000e+000
      vertex -1.108579e+001 -1.414214e+000  4.000000e+000
      vertex -1.108579e+001 -1.414214e+000  2.300000e+000
    endloop
  endfacet
  facet normal -9.238794e-001  3.826836e-001  0.000000e+000
    outer loop
      vertex -1.108579e+001 -1.414214e+000  2.300000e+000
      vertex -1.108579e+001 -1.414214e+000  4.000000e+000
      vertex -1.050000e+001  1.040966e-015  4.000000e+000
    endloop
  endfacet
  facet normal -9.238794e-001  3.826836e-001  0.000000e+000
    outer loop
      vertex -1.108579e+001 -1.414214e+000  2.300000e+000
      vertex -1.050000e+001  1.040966e-015  4.000000e+000
      vertex -1.050000e+001  1.040966e-015  2.300000e+000
    endloop
  endfacet
  facet normal -3.826835e-001  9.238794e-001  0.000000e+000
    outer loop
      vertex -1.108579e+001 -1.414214e+000  4.000000e+000
      vertex -1.250000e+001 -2.000000e+000  2.300000e+000
      vertex -1.250000e+001 -2.000000e+000  4.000000e+000
    endloop
  endfacet
  facet normal  3.826835e-001  9.238794e-001  0.000000e+000
    outer loop
      vertex -1.250000e+001 -2.000000e+000  4.000000e+000
      vertex -1.250000e+001 -2.000000e+000  2.300000e+000
      vertex -1.391421e+001 -1.414214e+000  2.300000e+000
    endloop
  endfacet
  facet normal  3.826835e-001  9.238794e-001  -0.000000e+000
    outer loop
      vertex -1.250000e+001 -2.000000e+000  4.000000e+000
      vertex -1.391421e+001 -1.414214e+000  2.300000e+000
      vertex -1.391421e+001 -1.414214e+000  4.000000e+000
    endloop
  endfacet
  facet normal  9.238794e-001  3.826836e-001  0.000000e+000
    outer loop
      vertex -1.391421e+001 -1.414214e+000  4.000000e+000
      vertex -1.391421e+001 -1.414214e+000  2.300000e+000
      vertex -1.450000e+001  1.775730e-015  2.300000e+000
    endloop
  endfacet
  facet normal  9.238794e-001  3.826836e-001  7.444693e-016
    outer loop
      vertex -1.391421e+001 -1.414214e+000  4.000000e+000
      vertex -1.450000e+001  1.775730e-015  2.300000e+000
      vertex -1.450000e+001 -1.531436e-015  4.000000e+000
    endloop
  endfacet
  facet normal  3.826835e-001 -9.238794e-001  0.000000e+000
    outer loop
      vertex -1.250000e+001  2.000000e+000  2.300000e+000
      vertex -1.391421e+001  1.414214e+000  4.000000e+000
      vertex -1.391421e+001  1.414214e+000  2.300000e+000
    endloop
  endfacet
  facet normal  9.238794e-001 -3.826836e-001  0.000000e+000
    outer loop
      vertex -1.391421e+001  1.414214e+000  2.300000e+000
      vertex -1.391421e+001  1.414214e+000  4.000000e+000
      vertex -1.450000e+001 -1.531436e-015  4.000000e+000
    endloop
  endfacet
  facet normal  9.238794e-001 -3.826836e-001 -7.444693e-016
    outer loop
      vertex -1.391421e+001  1.414214e+000  2.300000e+000
      vertex -1.450000e+001 -1.531436e-015  4.000000e+000
      vertex -1.450000e+001  1.775730e-015  2.300000e+000
    endloop
  endfacet
  facet normal  3.826835e-001 -9.238794e-001  0.000000e+000
    outer loop
      vertex -1.391421e+001  1.414214e+000  4.000000e+000
      vertex -1.250000e+001  2.000000e+000  2.300000e+000
      vertex -1.250000e+001  2.000000e+000  4.000000e+000
    endloop
  endfacet
  facet normal -3.826835e-001 -9.238794e-001  -0.000000e+000
    outer loop
      vertex -1.250000e+001  2.000000e+000  4.000000e+000
      vertex -1.250000e+001  2.000000e+000  2.300000e+000
      vertex -1.108579e+001  1.414214e+000  2.300000e+000
    endloop
  endfacet
  facet normal -3.826835e-001 -9.238794e-001  0.000000e+000
    outer loop
      vertex -1.250000e+001  2.000000e+000  4.000000e+000
      vertex -1.108579e+001  1.414214e+000  2.300000e+000
      vertex -1.108579e+001  1.414214e+000  4.000000e+000
    endloop
  endfacet
  facet normal -9.238794e-001 -3.826836e-001  -0.000000e+000
    outer loop
      vertex -1.108579e+001  1.414214e+000  4.000000e+000
      vertex -1.108579e+001  1.414214e+000  2.300000e+000
      vertex -1.050000e+001  1.040966e-015  2.300000e+000
    endloop
  endfacet
  facet normal -9.238794e-001 -3.826836e-001  0.000000e+000
    outer loop
      vertex -1.108579e+001  1.414214e+000  4.000000e+000
      vertex -1.050000e+001  1.040966e-015  2.300000e+000
      vertex -1.050000e+001  1.040966e-015  4.000000e+000
    endloop
  endfacet
  facet normal -2.588191e-001 -9.659258e-001  -0.000000e+000
    outer loop
      vertex -1.250000e+001 -5.250000e+000  2.300000e+000
      vertex -1.250000e+001 -5.250000e+000  4.000000e+000
      vertex -1.512500e+001 -4.546633e+000  2.300000e+000
    endloop
  endfacet
  facet normal -2.588191e-001 -9.659258e-001  0.000000e+000
    outer loop
      vertex -1.512500e+001 -4.546633e+000  2.300000e+000
      vertex -1.250000e+001 -5.250000e+000  4.000000e+000
      vertex -1.512500e+001 -4.546633e+000  4.000000e+000
    endloop
  endfacet
  facet normal -7.071068e-001 -7.071067e-001  -0.000000e+000
    outer loop
      vertex -1.512500e+001 -4.546633e+000  2.300000e+000
      vertex -1.512500e+001 -4.546633e+000  4.000000e+000
      vertex -1.704663e+001 -2.625000e+000  2.300000e+000
    endloop
  endfacet
  facet normal -7.071068e-001 -7.071067e-001  0.000000e+000
    outer loop
      vertex -1.704663e+001 -2.625000e+000  2.300000e+000
      vertex -1.512500e+001 -4.546633e+000  4.000000e+000
      vertex -1.704663e+001 -2.625000e+000  4.000000e+000
    endloop
  endfacet
  facet normal -9.659258e-001 -2.588193e-001  -0.000000e+000
    outer loop
      vertex -1.704663e+001 -2.625000e+000  2.300000e+000
      vertex -1.704663e+001 -2.625000e+000  4.000000e+000
      vertex -1.775000e+001 -8.878902e-016  2.300000e+000
    endloop
  endfacet
  facet normal -9.659258e-001 -2.588193e-001  3.549582e-015
    outer loop
      vertex -1.775000e+001 -8.878902e-016  2.300000e+000
      vertex -1.704663e+001 -2.625000e+000  4.000000e+000
      vertex -1.775000e+001  2.242679e-014  4.000000e+000
    endloop
  endfacet
  facet normal -9.659258e-001  2.588193e-001 -3.549582e-015
    outer loop
      vertex -1.775000e+001 -8.878902e-016  2.300000e+000
      vertex -1.775000e+001  2.242679e-014  4.000000e+000
      vertex -1.704663e+001  2.625000e+000  2.300000e+000
    endloop
  endfacet
  facet normal -9.659258e-001  2.588193e-001  0.000000e+000
    outer loop
      vertex -1.704663e+001  2.625000e+000  2.300000e+000
      vertex -1.775000e+001  2.242679e-014  4.000000e+000
      vertex -1.704663e+001  2.625000e+000  4.000000e+000
    endloop
  endfacet
  facet normal -7.071068e-001  7.071067e-001  0.000000e+000
    outer loop
      vertex -1.704663e+001  2.625000e+000  2.300000e+000
      vertex -1.704663e+001  2.625000e+000  4.000000e+000
      vertex -1.512500e+001  4.546633e+000  2.300000e+000
    endloop
  endfacet
  facet normal -7.071068e-001  7.071067e-001  0.000000e+000
    outer loop
      vertex -1.512500e+001  4.546633e+000  2.300000e+000
      vertex -1.704663e+001  2.625000e+000  4.000000e+000
      vertex -1.512500e+001  4.546633e+000  4.000000e+000
    endloop
  endfacet
  facet normal -2.588191e-001  9.659258e-001  0.000000e+000
    outer loop
      vertex -1.512500e+001  4.546633e+000  2.300000e+000
      vertex -1.512500e+001  4.546633e+000  4.000000e+000
      vertex -1.250000e+001  5.250000e+000  2.300000e+000
    endloop
  endfacet
  facet normal -2.588191e-001  9.659258e-001  0.000000e+000
    outer loop
      vertex -1.250000e+001  5.250000e+000  2.300000e+000
      vertex -1.512500e+001  4.546633e+000  4.000000e+000
      vertex -1.250000e+001  5.250000e+000  4.000000e+000
    endloop
  endfacet
  facet normal -2.588191e-001 -9.659258e-001  -0.000000e+000
    outer loop
      vertex -9.875000e+000  4.546633e+000  4.000000e+000
      vertex -1.250000e+001  5.250000e+000  6.000000e+000
      vertex -1.250000e+001  5.250000e+000  4.000000e+000
    endloop
  endfacet
  facet normal -2.588191e-001 -9.659258e-001  0.000000e+000
    outer loop
      vertex -1.250000e+001  5.250000e+000  6.000000e+000
      vertex -9.875000e+000  4.546633e+000  4.000000e+000
      vertex -9.875000e+000  4.546633e+000  6.000000e+000
    endloop
  endfacet
  facet normal -7.071068e-001 -7.071068e-001  -0.000000e+000
    outer loop
      vertex -9.875000e+000  4.546633e+000  6.000000e+000
      vertex -9.875000e+000  4.546633e+000  4.000000e+000
      vertex -7.953367e+000  2.625000e+000  4.000000e+000
    endloop
  endfacet
  facet normal -7.071068e-001 -7.071068e-001  0.000000e+000
    outer loop
      vertex -9.875000e+000  4.546633e+000  6.000000e+000
      vertex -7.953367e+000  2.625000e+000  4.000000e+000
      vertex -7.953367e+000  2.625000e+000  6.000000e+000
    endloop
  endfacet
  facet normal -9.659258e-001 -2.588191e-001  -0.000000e+000
    outer loop
      vertex -7.953367e+000  2.625000e+000  6.000000e+000
      vertex -7.953367e+000  2.625000e+000  4.000000e+000
      vertex -7.250000e+000 -1.530808e-015  4.000000e+000
    endloop
  endfacet
  facet normal -9.659258e-001 -2.588191e-001  0.000000e+000
    outer loop
      vertex -7.953367e+000  2.625000e+000  6.000000e+000
      vertex -7.250000e+000 -1.530808e-015  4.000000e+000
      vertex -7.250000e+000 -1.530808e-015  6.000000e+000
    endloop
  endfacet
  facet normal -9.659258e-001  2.588191e-001  0.000000e+000
    outer loop
      vertex -7.953367e+000 -2.625000e+000  4.000000e+000
      vertex -7.250000e+000 -1.530808e-015  6.000000e+000
      vertex -7.250000e+000 -1.530808e-015  4.000000e+000
    endloop
  endfacet
  facet normal -9.659258e-001  2.588191e-001  0.000000e+000
    outer loop
      vertex -7.250000e+000 -1.530808e-015  6.000000e+000
      vertex -7.953367e+000 -2.625000e+000  4.000000e+000
      vertex -7.953367e+000 -2.625000e+000  6.000000e+000
    endloop
  endfacet
  facet normal -7.071068e-001  7.071068e-001  0.000000e+000
    outer loop
      vertex -7.953367e+000 -2.625000e+000  6.000000e+000
      vertex -7.953367e+000 -2.625000e+000  4.000000e+000
      vertex -9.875000e+000 -4.546633e+000  4.000000e+000
    endloop
  endfacet
  facet normal -7.071068e-001  7.071068e-001  0.000000e+000
    outer loop
      vertex -7.953367e+000 -2.625000e+000  6.000000e+000
      vertex -9.875000e+000 -4.546633e+000  4.000000e+000
      vertex -9.875000e+000 -4.546633e+000  6.000000e+000
    endloop
  endfacet
  facet normal -2.588191e-001  9.659258e-001  0.000000e+000
    outer loop
      vertex -9.875000e+000 -4.546633e+000  6.000000e+000
      vertex -9.875000e+000 -4.546633e+000  4.000000e+000
      vertex -1.250000e+001 -5.250000e+000  4.000000e+000
    endloop
  endfacet
  facet normal -2.588191e-001  9.659258e-001  0.000000e+000
    outer loop
      vertex -9.875000e+000 -4.546633e+000  6.000000e+000
      vertex -1.250000e+001 -5.250000e+000  4.000000e+000
      vertex -1.250000e+001 -5.250000e+000  6.000000e+000
    endloop
  endfacet
  facet normal  0.000000e+000  1.000000e+000  0.000000e+000
    outer loop
      vertex -1.250000e+001  5.250000e+000  2.300000e+000
      vertex -1.250000e+001  5.250000e+000  4.000000e+000
      vertex -5.250000e+000  5.250000e+000  2.300000e+000
    endloop
  endfacet
  facet normal  0.000000e+000  1.000000e+000  -0.000000e+000
    outer loop
      vertex  5.250000e+000  5.250000e+000  2.300000e+000
      vertex  5.250000e+000  5.250000e+000 -2.300000e+000
      vertex -5.250000e+000  5.250000e+000 -2.300000e+000
    endloop
  endfacet
  facet normal  0.000000e+000  1.000000e+000  0.000000e+000
    outer loop
      vertex  5.250000e+000  5.250000e+000  2.300000e+000
      vertex -5.250000e+000  5.250000e+000 -2.300000e+000
      vertex -5.250000e+000  5.250000e+000  2.300000e+000
    endloop
  endfacet
  facet normal  0.000000e+000  1.000000e+000  -0.000000e+000
    outer loop
      vertex  5.250000e+000  5.250000e+000  2.300000e+000
      vertex -5.250000e+000  5.250000e+000  2.300000e+000
      vertex -1.250000e+001  5.250000e+000  4.000000e+000
    endloop
  endfacet
  facet normal  -0.000000e+000  1.000000e+000  0.000000e+000
    outer loop
      vertex  5.250000e+000  5.250000e+000  2.300000e+000
      vertex -1.250000e+001  5.250000e+000  4.000000e+000
      vertex -1.250000e+001  5.250000e+000  6.000000e+000
    endloop
  endfacet
  facet normal  -0.000000e+000  1.000000e+000  0.000000e+000
    outer loop
      vertex  5.250000e+000  5.250000e+000  2.300000e+000
      vertex -1.250000e+001  5.250000e+000  6.000000e+000
      vertex  1.250000e+001  5.250000e+000  6.000000e+000
    endloop
  endfacet
  facet normal  0.000000e+000  1.000000e+000  0.000000e+000
    outer loop
      vertex  5.250000e+000  5.250000e+000  2.300000e+000
      vertex  1.250000e+001  5.250000e+000  6.000000e+000
      vertex  1.250000e+001  5.250000e+000  2.300000e+000
    endloop
  endfacet
  facet normal  0.000000e+000  1.000000e+000  0.000000e+000
    outer loop
      vertex  1.250000e+001  5.250000e+000 -6.000000e+000
      vertex -1.250000e+001  5.250000e+000 -6.000000e+000
      vertex -1.250000e+001  5.250000e+000 -2.300000e+000
    endloop
  endfacet
  facet normal  -0.000000e+000  1.000000e+000  0.000000e+000
    outer loop
      vertex  1.250000e+001  5.250000e+000 -6.000000e+000
      vertex -1.250000e+001  5.250000e+000 -2.300000e+000
      vertex -5.250000e+000  5.250000e+000 -2.300000e+000
    endloop
  endfacet
  facet normal  -0.000000e+000  1.000000e+000  0.000000e+000
    outer loop
      vertex  1.250000e+001  5.250000e+000 -6.000000e+000
      vertex -5.250000e+000  5.250000e+000 -2.300000e+000
      vertex  5.250000e+000  5.250000e+000 -2.300000e+000
    endloop
  endfacet
  facet normal  -0.000000e+000  1.000000e+000  0.000000e+000
    outer loop
      vertex  1.250000e+001  5.250000e+000 -6.000000e+000
      vertex  5.250000e+000  5.250000e+000 -2.300000e+000
      vertex  1.250000e+001  5.250000e+000 -2.300000e+000
    endloop
  endfacet
  facet normal  0.000000e+000 -1.000000e+000  0.000000e+000
    outer loop
      vertex -1.250000e+001 -5.250000e+000 -6.000000e+000
      vertex  1.250000e+001 -5.250000e+000 -6.000000e+000
      vertex  1.250000e+001 -5.250000e+000 -2.300000e+000
    endloop
  endfacet
  facet normal  -0.000000e+000 -1.000000e+000  0.000000e+000
    outer loop
      vertex -1.250000e+001 -5.250000e+000 -6.000000e+000
      vertex  1.250000e+001 -5.250000e+000 -2.300000e+000
      vertex  5.250000e+000 -5.250000e+000 -2.300000e+000
    endloop
  endfacet
  facet normal  -0.000000e+000 -1.000000e+000  0.000000e+000
    outer loop
      vertex -1.250000e+001 -5.250000e+000 -6.000000e+000
      vertex  5.250000e+000 -5.250000e+000 -2.300000e+000
      vertex -5.250000e+000 -5.250000e+000 -2.300000e+000
    endloop
  endfacet
  facet normal  -0.000000e+000 -1.000000e+000  0.000000e+000
    outer loop
      vertex -1.250000e+001 -5.250000e+000 -6.000000e+000
      vertex -5.250000e+000 -5.250000e+000 -2.300000e+000
      vertex -1.250000e+001 -5.250000e+000 -2.300000e+000
    endloop
  endfacet
  facet normal  0.000000e+000 -1.000000e+000  0.000000e+000
    outer loop
      vertex -1.250000e+001 -5.250000e+000  2.300000e+000
      vertex -5.250000e+000 -5.250000e+000  2.300000e+000
      vertex -1.250000e+001 -5.250000e+000  4.000000e+000
    endloop
  endfacet
  facet normal  0.000000e+000 -1.000000e+000  0.000000e+000
    outer loop
      vertex -1.250000e+001 -5.250000e+000  4.000000e+000
      vertex -5.250000e+000 -5.250000e+000  2.300000e+000
      vertex  5.250000e+000 -5.250000e+000  2.300000e+000
    endloop
  endfacet
  facet normal  0.000000e+000 -1.000000e+000  0.000000e+000
    outer loop
      vertex -1.250000e+001 -5.250000e+000  4.000000e+000
      vertex  5.250000e+000 -5.250000e+000  2.300000e+000
      vertex -1.250000e+001 -5.250000e+000  6.000000e+000
    endloop
  endfacet
  facet normal  0.000000e+000 -1.000000e+000  0.000000e+000
    outer loop
      vertex -1.250000e+001 -5.250000e+000  6.000000e+000
      vertex  5.250000e+000 -5.250000e+000  2.300000e+000
      vertex  1.250000e+001 -5.250000e+000  2.300000e+000
    endloop
  endfacet
  facet normal  0.000000e+000 -1.000000e+000  0.000000e+000
    outer loop
      vertex -1.250000e+001 -5.250000e+000  6.000000e+000
      vertex  1.250000e+001 -5.250000e+000  2.300000e+000
      vertex  1.250000e+001 -5.250000e+000  6.000000e+000
    endloop
  endfacet
  facet normal  0.000000e+000 -1.000000e+000  0.000000e+000
    outer loop
      vertex -5.250000e+000 -5.250000e+000  2.300000e+000
      vertex -5.250000e+000 -5.250000e+000 -2.300000e+000
      vertex  5.250000e+000 -5.250000e+000  2.300000e+000
    endloop
  endfacet
  facet normal  0.000000e+000 -1.000000e+000  -0.000000e+000
    outer loop
      vertex  5.250000e+000 -5.250000e+000  2.300000e+000
      vertex -5.250000e+000 -5.250000e+000 -2.300000e+000
      vertex  5.250000e+000 -5.250000e+000 -2.300000e+000
    endloop
  endfacet
  facet normal  2.588191e-001  9.659258e-001  0.000000e+000
    outer loop
      vertex  1.250000e+001  5.250000e+000  2.300000e+000
      vertex  1.250000e+001  5.250000e+000  6.000000e+000
      vertex  1.512500e+001  4.546633e+000  2.300000e+000
    endloop
  endfacet
  facet normal  2.588191e-001  9.659258e-001  -0.000000e+000
    outer loop
      vertex  1.512500e+001  4.546633e+000  2.300000e+000
      vertex  1.250000e+001  5.250000e+000  6.000000e+000
      vertex  1.512500e+001  4.546633e+000  6.000000e+000
    endloop
  endfacet
  facet normal  7.071068e-001  7.071066e-001  0.000000e+000
    outer loop
      vertex  1.512500e+001  4.546633e+000  2.300000e+000
      vertex  1.512500e+001  4.546633e+000  6.000000e+000
      vertex  1.704663e+001  2.625000e+000  2.300000e+000
    endloop
  endfacet
  facet normal  7.071068e-001  7.071066e-001  -0.000000e+000
    outer loop
      vertex  1.704663e+001  2.625000e+000  2.300000e+000
      vertex  1.512500e+001  4.546633e+000  6.000000e+000
      vertex  1.704663e+001  2.625000e+000  6.000000e+000
    endloop
  endfacet
  facet normal  9.659258e-001  2.588192e-001  0.000000e+000
    outer loop
      vertex  1.704663e+001  2.625000e+000  2.300000e+000
      vertex  1.704663e+001  2.625000e+000  6.000000e+000
      vertex  1.775000e+001 -2.957668e-015  2.300000e+000
    endloop
  endfacet
  facet normal  9.659258e-001  2.588192e-001 -6.523555e-016
    outer loop
      vertex  1.775000e+001 -2.957668e-015  2.300000e+000
      vertex  1.704663e+001  2.625000e+000  6.000000e+000
      vertex  1.775000e+001  6.368206e-015  6.000000e+000
    endloop
  endfacet
  facet normal  9.659258e-001 -2.588192e-001  6.523555e-016
    outer loop
      vertex  1.775000e+001 -2.957668e-015  2.300000e+000
      vertex  1.775000e+001  6.368206e-015  6.000000e+000
      vertex  1.704663e+001 -2.625000e+000  2.300000e+000
    endloop
  endfacet
  facet normal  9.659258e-001 -2.588192e-001  0.000000e+000
    outer loop
      vertex  1.704663e+001 -2.625000e+000  2.300000e+000
      vertex  1.775000e+001  6.368206e-015  6.000000e+000
      vertex  1.704663e+001 -2.625000e+000  6.000000e+000
    endloop
  endfacet
  facet normal  7.071068e-001 -7.071066e-001  0.000000e+000
    outer loop
      vertex  1.704663e+001 -2.625000e+000  2.300000e+000
      vertex  1.704663e+001 -2.625000e+000  6.000000e+000
      vertex  1.512500e+001 -4.546633e+000  2.300000e+000
    endloop
  endfacet
  facet normal  7.071068e-001 -7.071066e-001  0.000000e+000
    outer loop
      vertex  1.512500e+001 -4.546633e+000  2.300000e+000
      vertex  1.704663e+001 -2.625000e+000  6.000000e+000
      vertex  1.512500e+001 -4.546633e+000  6.000000e+000
    endloop
  endfacet
  facet normal  2.588191e-001 -9.659258e-001  0.000000e+000
    outer loop
      vertex  1.512500e+001 -4.546633e+000  2.300000e+000
      vertex  1.512500e+001 -4.546633e+000  6.000000e+000
      vertex  1.250000e+001 -5.250000e+000  2.300000e+000
    endloop
  endfacet
  facet normal  2.588191e-001 -9.659258e-001  0.000000e+000
    outer loop
      vertex  1.250000e+001 -5.250000e+000  2.300000e+000
      vertex  1.512500e+001 -4.546633e+000  6.000000e+000
      vertex  1.250000e+001 -5.250000e+000  6.000000e+000
    endloop
  endfacet
  facet normal  2.588191e-001  9.659258e-001  0.000000e+000
    outer loop
      vertex  1.250000e+001  5.250000e+000 -6.000000e+000
      vertex  1.250000e+001  5.250000e+000 -2.300000e+000
      vertex  1.512500e+001  4.546633e+000 -6.000000e+000
    endloop
  endfacet
  facet normal  2.588191e-001  9.659258e-001  -0.000000e+000
    outer loop
      vertex  1.512500e+001  4.546633e+000 -6.000000e+000
      vertex  1.250000e+001  5.250000e+000 -2.300000e+000
      vertex  1.512500e+001  4.546633e+000 -2.300000e+000
    endloop
  endfacet
  facet normal  7.071068e-001  7.071066e-001  0.000000e+000
    outer loop
      vertex  1.512500e+001  4.546633e+000 -6.000000e+000
      vertex  1.512500e+001  4.546633e+000 -2.300000e+000
      vertex  1.704663e+001  2.625000e+000 -6.000000e+000
    endloop
  endfacet
  facet normal  7.071068e-001  7.071066e-001  -0.000000e+000
    outer loop
      vertex  1.704663e+001  2.625000e+000 -6.000000e+000
      vertex  1.512500e+001  4.546633e+000 -2.300000e+000
      vertex  1.704663e+001  2.625000e+000 -2.300000e+000
    endloop
  endfacet
  facet normal  9.659258e-001  2.588192e-001  0.000000e+000
    outer loop
      vertex  1.704663e+001  2.625000e+000 -6.000000e+000
      vertex  1.704663e+001  2.625000e+000 -2.300000e+000
      vertex  1.775000e+001  6.368206e-015 -6.000000e+000
    endloop
  endfacet
  facet normal  9.659258e-001  2.588192e-001  6.523555e-016
    outer loop
      vertex  1.775000e+001  6.368206e-015 -6.000000e+000
      vertex  1.704663e+001  2.625000e+000 -2.300000e+000
      vertex  1.775000e+001 -2.957668e-015 -2.300000e+000
    endloop
  endfacet
  facet normal  9.659258e-001 -2.588192e-001 -6.523555e-016
    outer loop
      vertex  1.775000e+001  6.368206e-015 -6.000000e+000
      vertex  1.775000e+001 -2.957668e-015 -2.300000e+000
      vertex  1.704663e+001 -2.625000e+000 -6.000000e+000
    endloop
  endfacet
  facet normal  9.659258e-001 -2.588192e-001  0.000000e+000
    outer loop
      vertex  1.704663e+001 -2.625000e+000 -6.000000e+000
      vertex  1.775000e+001 -2.957668e-015 -2.300000e+000
      vertex  1.704663e+001 -2.625000e+000 -2.300000e+000
    endloop
  endfacet
  facet normal  7.071068e-001 -7.071066e-001  0.000000e+000
    outer loop
      vertex  1.704663e+001 -2.625000e+000 -6.000000e+000
      vertex  1.704663e+001 -2.625000e+000 -2.300000e+000
      vertex  1.512500e+001 -4.546633e+000 -6.000000e+000
    endloop
  endfacet
  facet normal  7.071068e-001 -7.071066e-001  0.000000e+000
    outer loop
      vertex  1.512500e+001 -4.546633e+000 -6.000000e+000
      vertex  1.704663e+001 -2.625000e+000 -2.300000e+000
      vertex  1.512500e+001 -4.546633e+000 -2.300000e+000
    endloop
  endfacet
  facet normal  2.588191e-001 -9.659258e-001  0.000000e+000
    outer loop
      vertex  1.512500e+001 -4.546633e+000 -6.000000e+000
      vertex  1.512500e+001 -4.546633e+000 -2.300000e+000
      vertex  1.250000e+001 -5.250000e+000 -6.000000e+000
    endloop
  endfacet
  facet normal  2.588191e-001 -9.659258e-001  0.000000e+000
    outer loop
      vertex  1.250000e+001 -5.250000e+000 -6.000000e+000
      vertex  1.512500e+001 -4.546633e+000 -2.300000e+000
      vertex  1.250000e+001 -5.250000e+000 -2.300000e+000
    endloop
  endfacet
  facet normal -2.588191e-001 -9.659258e-001  -0.000000e+000
    outer loop
      vertex -1.250000e+001 -5.250000e+000 -6.000000e+000
      vertex -1.250000e+001 -5.250000e+000 -2.300000e+000
      vertex -1.512500e+001 -4.546633e+000 -6.000000e+000
    endloop
  endfacet
  facet normal -2.588191e-001 -9.659258e-001  0.000000e+000
    outer loop
      vertex -1.512500e+001 -4.546633e+000 -6.000000e+000
      vertex -1.250000e+001 -5.250000e+000 -2.300000e+000
      vertex -1.512500e+001 -4.546633e+000 -2.300000e+000
    endloop
  endfacet
  facet normal -7.071068e-001 -7.071066e-001  -0.000000e+000
    outer loop
      vertex -1.512500e+001 -4.546633e+000 -6.000000e+000
      vertex -1.512500e+001 -4.546633e+000 -2.300000e+000
      vertex -1.704663e+001 -2.625000e+000 -6.000000e+000
    endloop
  endfacet
  facet normal -7.071068e-001 -7.071066e-001  0.000000e+000
    outer loop
      vertex -1.704663e+001 -2.625000e+000 -6.000000e+000
      vertex -1.512500e+001 -4.546633e+000 -2.300000e+000
      vertex -1.704663e+001 -2.625000e+000 -2.300000e+000
    endloop
  endfacet
  facet normal -9.659258e-001 -2.588192e-001  -0.000000e+000
    outer loop
      vertex -1.704663e+001 -2.625000e+000 -6.000000e+000
      vertex -1.704663e+001 -2.625000e+000 -2.300000e+000
      vertex -1.775000e+001  1.443578e-015 -6.000000e+000
    endloop
  endfacet
  facet normal -9.659258e-001 -2.588192e-001 -1.630889e-016
    outer loop
      vertex -1.775000e+001  1.443578e-015 -6.000000e+000
      vertex -1.704663e+001 -2.625000e+000 -2.300000e+000
      vertex -1.775000e+001 -8.878902e-016 -2.300000e+000
    endloop
  endfacet
  facet normal -9.659258e-001  2.588192e-001  1.630889e-016
    outer loop
      vertex -1.775000e+001  1.443578e-015 -6.000000e+000
      vertex -1.775000e+001 -8.878902e-016 -2.300000e+000
      vertex -1.704663e+001  2.625000e+000 -6.000000e+000
    endloop
  endfacet
  facet normal -9.659258e-001  2.588192e-001  0.000000e+000
    outer loop
      vertex -1.704663e+001  2.625000e+000 -6.000000e+000
      vertex -1.775000e+001 -8.878902e-016 -2.300000e+000
      vertex -1.704663e+001  2.625000e+000 -2.300000e+000
    endloop
  endfacet
  facet normal -7.071068e-001  7.071066e-001  0.000000e+000
    outer loop
      vertex -1.704663e+001  2.625000e+000 -6.000000e+000
      vertex -1.704663e+001  2.625000e+000 -2.300000e+000
      vertex -1.512500e+001  4.546633e+000 -6.000000e+000
    endloop
  endfacet
  facet normal -7.071068e-001  7.071066e-001  0.000000e+000
    outer loop
      vertex -1.512500e+001  4.546633e+000 -6.000000e+000
      vertex -1.704663e+001  2.625000e+000 -2.300000e+000
      vertex -1.512500e+001  4.546633e+000 -2.300000e+000
    endloop
  endfacet
  facet normal -2.588191e-001  9.659258e-001  0.000000e+000
    outer loop
      vertex -1.512500e+001  4.546633e+000 -6.000000e+000
      vertex -1.512500e+001  4.546633e+000 -2.300000e+000
      vertex -1.250000e+001  5.250000e+000 -6.000000e+000
    endloop
  endfacet
  facet normal -2.588191e-001  9.659258e-001  0.000000e+000
    outer loop
      vertex -1.250000e+001  5.250000e+000 -6.000000e+000
      vertex -1.512500e+001  4.546633e+000 -2.300000e+000
      vertex -1.250000e+001  5.250000e+000 -2.300000e+000
    endloop
  endfacet
  facet normal -3.826835e-001  9.238795e-001  0.000000e+000
    outer loop
      vertex  1.250000e+001 -2.000000e+000  2.300000e+000
      vertex  1.391421e+001 -1.414214e+000  6.000000e+000
      vertex  1.391421e+001 -1.414214e+000  2.300000e+000
    endloop
  endfacet
  facet normal -9.238794e-001  3.826837e-001  0.000000e+000
    outer loop
      vertex  1.391421e+001 -1.414214e+000  2.300000e+000
      vertex  1.391421e+001 -1.414214e+000  6.000000e+000
      vertex  1.450000e+001  1.530808e-015  6.000000e+000
    endloop
  endfacet
  facet normal -9.238794e-001  3.826837e-001  0.000000e+000
    outer loop
      vertex  1.391421e+001 -1.414214e+000  2.300000e+000
      vertex  1.450000e+001  1.530808e-015  6.000000e+000
      vertex  1.450000e+001  1.530808e-015  2.300000e+000
    endloop
  endfacet
  facet normal -3.826835e-001  9.238795e-001  0.000000e+000
    outer loop
      vertex  1.391421e+001 -1.414214e+000  6.000000e+000
      vertex  1.250000e+001 -2.000000e+000  2.300000e+000
      vertex  1.250000e+001 -2.000000e+000  6.000000e+000
    endloop
  endfacet
  facet normal  3.826835e-001  9.238795e-001  0.000000e+000
    outer loop
      vertex  1.250000e+001 -2.000000e+000  6.000000e+000
      vertex  1.250000e+001 -2.000000e+000  2.300000e+000
      vertex  1.108579e+001 -1.414214e+000  2.300000e+000
    endloop
  endfacet
  facet normal  3.826835e-001  9.238795e-001  -0.000000e+000
    outer loop
      vertex  1.250000e+001 -2.000000e+000  6.000000e+000
      vertex  1.108579e+001 -1.414214e+000  2.300000e+000
      vertex  1.108579e+001 -1.414214e+000  6.000000e+000
    endloop
  endfacet
  facet normal  9.238794e-001  3.826837e-001  0.000000e+000
    outer loop
      vertex  1.108579e+001 -1.414214e+000  6.000000e+000
      vertex  1.108579e+001 -1.414214e+000  2.300000e+000
      vertex  1.050000e+001  1.775730e-015  2.300000e+000
    endloop
  endfacet
  facet normal  9.238794e-001  3.826837e-001  -0.000000e+000
    outer loop
      vertex  1.108579e+001 -1.414214e+000  6.000000e+000
      vertex  1.050000e+001  1.775730e-015  2.300000e+000
      vertex  1.050000e+001  1.775730e-015  6.000000e+000
    endloop
  endfacet
  facet normal -3.826835e-001  9.238795e-001  0.000000e+000
    outer loop
      vertex  1.250000e+001 -2.000000e+000 -6.000000e+000
      vertex  1.391421e+001 -1.414214e+000 -2.300000e+000
      vertex  1.391421e+001 -1.414214e+000 -6.000000e+000
    endloop
  endfacet
  facet normal -9.238794e-001  3.826837e-001  0.000000e+000
    outer loop
      vertex  1.391421e+001 -1.414214e+000 -6.000000e+000
      vertex  1.391421e+001 -1.414214e+000 -2.300000e+000
      vertex  1.450000e+001  1.530808e-015 -2.300000e+000
    endloop
  endfacet
  facet normal -9.238794e-001  3.826837e-001  0.000000e+000
    outer loop
      vertex  1.391421e+001 -1.414214e+000 -6.000000e+000
      vertex  1.450000e+001  1.530808e-015 -2.300000e+000
      vertex  1.450000e+001  1.530808e-015 -6.000000e+000
    endloop
  endfacet
  facet normal -3.826835e-001  9.238795e-001  0.000000e+000
    outer loop
      vertex  1.391421e+001 -1.414214e+000 -2.300000e+000
      vertex  1.250000e+001 -2.000000e+000 -6.000000e+000
      vertex  1.250000e+001 -2.000000e+000 -2.300000e+000
    endloop
  endfacet
  facet normal  3.826835e-001  9.238795e-001  0.000000e+000
    outer loop
      vertex  1.250000e+001 -2.000000e+000 -2.300000e+000
      vertex  1.250000e+001 -2.000000e+000 -6.000000e+000
      vertex  1.108579e+001 -1.414214e+000 -6.000000e+000
    endloop
  endfacet
  facet normal  3.826835e-001  9.238795e-001  -0.000000e+000
    outer loop
      vertex  1.250000e+001 -2.000000e+000 -2.300000e+000
      vertex  1.108579e+001 -1.414214e+000 -6.000000e+000
      vertex  1.108579e+001 -1.414214e+000 -2.300000e+000
    endloop
  endfacet
  facet normal  9.238794e-001  3.826837e-001  0.000000e+000
    outer loop
      vertex  1.108579e+001 -1.414214e+000 -2.300000e+000
      vertex  1.108579e+001 -1.414214e+000 -6.000000e+000
      vertex  1.050000e+001  1.775730e-015 -6.000000e+000
    endloop
  endfacet
  facet normal  9.238794e-001  3.826837e-001  -0.000000e+000
    outer loop
      vertex  1.108579e+001 -1.414214e+000 -2.300000e+000
      vertex  1.050000e+001  1.775730e-015 -6.000000e+000
      vertex  1.050000e+001  1.775730e-015 -2.300000e+000
    endloop
  endfacet
  facet normal  3.826835e-001 -9.238795e-001  0.000000e+000
    outer loop
      vertex  1.250000e+001  2.000000e+000  2.300000e+000
      vertex  1.108579e+001  1.414214e+000  6.000000e+000
      vertex  1.108579e+001  1.414214e+000  2.300000e+000
    endloop
  endfacet
  facet normal  9.238794e-001 -3.826837e-001  0.000000e+000
    outer loop
      vertex  1.108579e+001  1.414214e+000  2.300000e+000
      vertex  1.108579e+001  1.414214e+000  6.000000e+000
      vertex  1.050000e+001  1.775730e-015  6.000000e+000
    endloop
  endfacet
  facet normal  9.238794e-001 -3.826837e-001  0.000000e+000
    outer loop
      vertex  1.108579e+001  1.414214e+000  2.300000e+000
      vertex  1.050000e+001  1.775730e-015  6.000000e+000
      vertex  1.050000e+001  1.775730e-015  2.300000e+000
    endloop
  endfacet
  facet normal  3.826835e-001 -9.238795e-001  0.000000e+000
    outer loop
      vertex  1.108579e+001  1.414214e+000  6.000000e+000
      vertex  1.250000e+001  2.000000e+000  2.300000e+000
      vertex  1.250000e+001  2.000000e+000  6.000000e+000
    endloop
  endfacet
  facet normal -3.826835e-001 -9.238795e-001  -0.000000e+000
    outer loop
      vertex  1.250000e+001  2.000000e+000  6.000000e+000
      vertex  1.250000e+001  2.000000e+000  2.300000e+000
      vertex  1.391421e+001  1.414214e+000  2.300000e+000
    endloop
  endfacet
  facet normal -3.826835e-001 -9.238795e-001  0.000000e+000
    outer loop
      vertex  1.250000e+001  2.000000e+000  6.000000e+000
      vertex  1.391421e+001  1.414214e+000  2.300000e+000
      vertex  1.391421e+001  1.414214e+000  6.000000e+000
    endloop
  endfacet
  facet normal -9.238794e-001 -3.826837e-001  -0.000000e+000
    outer loop
      vertex  1.391421e+001  1.414214e+000  6.000000e+000
      vertex  1.391421e+001  1.414214e+000  2.300000e+000
      vertex  1.450000e+001  1.530808e-015  2.300000e+000
    endloop
  endfacet
  facet normal -9.238794e-001 -3.826837e-001  0.000000e+000
    outer loop
      vertex  1.391421e+001  1.414214e+000  6.000000e+000
      vertex  1.450000e+001  1.530808e-015  2.300000e+000
      vertex  1.450000e+001  1.530808e-015  6.000000e+000
    endloop
  endfacet
  facet normal  3.826835e-001 -9.238795e-001  0.000000e+000
    outer loop
      vertex  1.250000e+001  2.000000e+000 -6.000000e+000
      vertex  1.108579e+001  1.414214e+000 -2.300000e+000
      vertex  1.108579e+001  1.414214e+000 -6.000000e+000
    endloop
  endfacet
  facet normal  9.238794e-001 -3.826837e-001  0.000000e+000
    outer loop
      vertex  1.108579e+001  1.414214e+000 -6.000000e+000
      vertex  1.108579e+001  1.414214e+000 -2.300000e+000
      vertex  1.050000e+001  1.775730e-015 -2.300000e+000
    endloop
  endfacet
  facet normal  9.238794e-001 -3.826837e-001  0.000000e+000
    outer loop
      vertex  1.108579e+001  1.414214e+000 -6.000000e+000
      vertex  1.050000e+001  1.775730e-015 -2.300000e+000
      vertex  1.050000e+001  1.775730e-015 -6.000000e+000
    endloop
  endfacet
  facet normal  3.826835e-001 -9.238795e-001  0.000000e+000
    outer loop
      vertex  1.108579e+001  1.414214e+000 -2.300000e+000
      vertex  1.250000e+001  2.000000e+000 -6.000000e+000
      vertex  1.250000e+001  2.000000e+000 -2.300000e+000
    endloop
  endfacet
  facet normal -3.826835e-001 -9.238795e-001  -0.000000e+000
    outer loop
      vertex  1.250000e+001  2.000000e+000 -2.300000e+000
      vertex  1.250000e+001  2.000000e+000 -6.000000e+000
      vertex  1.391421e+001  1.414214e+000 -6.000000e+000
    endloop
  endfacet
  facet normal -3.826835e-001 -9.238795e-001  0.000000e+000
    outer loop
      vertex  1.250000e+001  2.000000e+000 -2.300000e+000
      vertex  1.391421e+001  1.414214e+000 -6.000000e+000
      vertex  1.391421e+001  1.414214e+000 -2.300000e+000
    endloop
  endfacet
  facet normal -9.238794e-001 -3.826837e-001  -0.000000e+000
    outer loop
      vertex  1.391421e+001  1.414214e+000 -2.300000e+000
      vertex  1.391421e+001  1.414214e+000 -6.000000e+000
      vertex  1.450000e+001  1.530808e-015 -6.000000e+000
    endloop
  endfacet
  facet normal -9.238794e-001 -3.826837e-001  0.000000e+000
    outer loop
      vertex  1.391421e+001  1.414214e+000 -2.300000e+000
      vertex  1.450000e+001  1.530808e-015 -6.000000e+000
      vertex  1.450000e+001  1.530808e-015 -2.300000e+000
    endloop
  endfacet
  facet normal  3.826835e-001 -9.238795e-001  0.000000e+000
    outer loop
      vertex -1.250000e+001  2.000000e+000 -6.000000e+000
      vertex -1.391421e+001  1.414214e+000 -2.300000e+000
      vertex -1.391421e+001  1.414214e+000 -6.000000e+000
    endloop
  endfacet
  facet normal  9.238794e-001 -3.826837e-001  0.000000e+000
    outer loop
      vertex -1.391421e+001  1.414214e+000 -6.000000e+000
      vertex -1.391421e+001  1.414214e+000 -2.300000e+000
      vertex -1.450000e+001  1.775730e-015 -2.300000e+000
    endloop
  endfacet
  facet normal  9.238794e-001 -3.826837e-001  0.000000e+000
    outer loop
      vertex -1.391421e+001  1.414214e+000 -6.000000e+000
      vertex -1.450000e+001  1.775730e-015 -2.300000e+000
      vertex -1.450000e+001  1.775730e-015 -6.000000e+000
    endloop
  endfacet
  facet normal  3.826835e-001 -9.238795e-001  0.000000e+000
    outer loop
      vertex -1.391421e+001  1.414214e+000 -2.300000e+000
      vertex -1.250000e+001  2.000000e+000 -6.000000e+000
      vertex -1.250000e+001  2.000000e+000 -2.300000e+000
    endloop
  endfacet
  facet normal -3.826835e-001 -9.238795e-001  -0.000000e+000
    outer loop
      vertex -1.250000e+001  2.000000e+000 -2.300000e+000
      vertex -1.250000e+001  2.000000e+000 -6.000000e+000
      vertex -1.108579e+001  1.414214e+000 -6.000000e+000
    endloop
  endfacet
  facet normal -3.826835e-001 -9.238795e-001  0.000000e+000
    outer loop
      vertex -1.250000e+001  2.000000e+000 -2.300000e+000
      vertex -1.108579e+001  1.414214e+000 -6.000000e+000
      vertex -1.108579e+001  1.414214e+000 -2.300000e+000
    endloop
  endfacet
  facet normal -9.238794e-001 -3.826837e-001  -0.000000e+000
    outer loop
      vertex -1.108579e+001  1.414214e+000 -2.300000e+000
      vertex -1.108579e+001  1.414214e+000 -6.000000e+000
      vertex -1.050000e+001  1.040966e-015 -6.000000e+000
    endloop
  endfacet
  facet normal -9.238794e-001 -3.826837e-001  0.000000e+000
    outer loop
      vertex -1.108579e+001  1.414214e+000 -2.300000e+000
      vertex -1.050000e+001  1.040966e-015 -6.000000e+000
      vertex -1.050000e+001  1.040966e-015 -2.300000e+000
    endloop
  endfacet
  facet normal -3.826835e-001  9.238795e-001  0.000000e+000
    outer loop
      vertex -1.250000e+001 -2.000000e+000 -6.000000e+000
      vertex -1.108579e+001 -1.414214e+000 -2.300000e+000
      vertex -1.108579e+001 -1.414214e+000 -6.000000e+000
    endloop
  endfacet
  facet normal -9.238794e-001  3.826837e-001  0.000000e+000
    outer loop
      vertex -1.108579e+001 -1.414214e+000 -6.000000e+000
      vertex -1.108579e+001 -1.414214e+000 -2.300000e+000
      vertex -1.050000e+001  1.040966e-015 -2.300000e+000
    endloop
  endfacet
  facet normal -9.238794e-001  3.826837e-001  0.000000e+000
    outer loop
      vertex -1.108579e+001 -1.414214e+000 -6.000000e+000
      vertex -1.050000e+001  1.040966e-015 -2.300000e+000
      vertex -1.050000e+001  1.040966e-015 -6.000000e+000
    endloop
  endfacet
  facet normal -3.826835e-001  9.238795e-001  0.000000e+000
    outer loop
      vertex -1.108579e+001 -1.414214e+000 -2.300000e+000
      vertex -1.250000e+001 -2.000000e+000 -6.000000e+000
      vertex -1.250000e+001 -2.000000e+000 -2.300000e+000
    endloop
  endfacet
  facet normal  3.826835e-001  9.238795e-001  0.000000e+000
    outer loop
      vertex -1.250000e+001 -2.000000e+000 -2.300000e+000
      vertex -1.250000e+001 -2.000000e+000 -6.000000e+000
      vertex -1.391421e+001 -1.414214e+000 -6.000000e+000
    endloop
  endfacet
  facet normal  3.826835e-001  9.238795e-001  -0.000000e+000
    outer loop
      vertex -1.250000e+001 -2.000000e+000 -2.300000e+000
      vertex -1.391421e+001 -1.414214e+000 -6.000000e+000
      vertex -1.391421e+001 -1.414214e+000 -2.300000e+000
    endloop
  endfacet
  facet normal  9.238794e-001  3.826837e-001  0.000000e+000
    outer loop
      vertex -1.391421e+001 -1.414214e+000 -2.300000e+000
      vertex -1.391421e+001 -1.414214e+000 -6.000000e+000
      vertex -1.450000e+001  1.775730e-015 -6.000000e+000
    endloop
  endfacet
  facet normal  9.238794e-001  3.826837e-001  -0.000000e+000
    outer loop
      vertex -1.391421e+001 -1.414214e+000 -2.300000e+000
      vertex -1.450000e+001  1.775730e-015 -6.000000e+000
      vertex -1.450000e+001  1.775730e-015 -2.300000e+000
    endloop
  endfacet
  facet normal  0.000000e+000  0.000000e+000 -1.000000e+000
    outer loop
      vertex -5.250000e+000 -5.250000e+000  2.300000e+000
      vertex -1.250000e+001 -5.250000e+000  2.300000e+000
      vertex -1.250000e+001 -2.000000e+000  2.300000e+000
    endloop
  endfacet
  facet normal  0.000000e+000  0.000000e+000 -1.000000e+000
    outer loop
      vertex -5.250000e+000 -5.250000e+000  2.300000e+000
      vertex -1.250000e+001 -2.000000e+000  2.300000e+000
      vertex -1.108579e+001 -1.414214e+000  2.300000e+000
    endloop
  endfacet
  facet normal  0.000000e+000  0.000000e+000 -9.999999e-001
    outer loop
      vertex -5.250000e+000 -5.250000e+000  2.300000e+000
      vertex -1.108579e+001 -1.414214e+000  2.300000e+000
      vertex -1.050000e+001  1.040966e-015  2.300000e+000
    endloop
  endfacet
  facet normal  0.000000e+000  0.000000e+000 -1.000000e+000
    outer loop
      vertex -5.250000e+000 -5.250000e+000  2.300000e+000
      vertex -1.050000e+001  1.040966e-015  2.300000e+000
      vertex -1.108579e+001  1.414214e+000  2.300000e+000
    endloop
  endfacet
  facet normal  0.000000e+000  0.000000e+000 -9.999999e-001
    outer loop
      vertex -5.250000e+000 -5.250000e+000  2.300000e+000
      vertex -1.108579e+001  1.414214e+000  2.300000e+000
      vertex -5.250000e+000  5.250000e+000  2.300000e+000
    endloop
  endfacet
  facet normal  0.000000e+000  0.000000e+000 -1.000000e+000
    outer loop
      vertex -1.108579e+001  1.414214e+000  2.300000e+000
      vertex -1.250000e+001  2.000000e+000  2.300000e+000
      vertex -5.250000e+000  5.250000e+000  2.300000e+000
    endloop
  endfacet
  facet normal  -0.000000e+000  0.000000e+000 -1.000000e+000
    outer loop
      vertex -5.250000e+000  5.250000e+000  2.300000e+000
      vertex -1.250000e+001  2.000000e+000  2.300000e+000
      vertex -1.250000e+001  5.250000e+000  2.300000e+000
    endloop
  endfacet
  facet normal  0.000000e+000  0.000000e+000 -1.000000e+000
    outer loop
      vertex -1.250000e+001  2.000000e+000  2.300000e+000
      vertex -1.704663e+001  2.625000e+000  2.300000e+000
      vertex -1.250000e+001  5.250000e+000  2.300000e+000
    endloop
  endfacet
  facet normal  0.000000e+000  0.000000e+000 -1.000000e+000
    outer loop
      vertex -1.250000e+001  5.250000e+000  2.300000e+000
      vertex -1.704663e+001  2.625000e+000  2.300000e+000
      vertex -1.512500e+001  4.546633e+000  2.300000e+000
    endloop
  endfacet
  facet normal  0.000000e+000  0.000000e+000 -1.000000e+000
    outer loop
      vertex -1.450000e+001  1.775730e-015  2.300000e+000
      vertex -1.775000e+001 -8.878902e-016  2.300000e+000
      vertex -1.391421e+001  1.414214e+000  2.300000e+000
    endloop
  endfacet
  facet normal  -0.000000e+000  0.000000e+000 -1.000000e+000
    outer loop
      vertex -1.391421e+001  1.414214e+000  2.300000e+000
      vertex -1.775000e+001 -8.878902e-016  2.300000e+000
      vertex -1.704663e+001  2.625000e+000  2.300000e+000
    endloop
  endfacet
  facet normal  0.000000e+000  0.000000e+000 -9.999999e-001
    outer loop
      vertex -1.391421e+001  1.414214e+000  2.300000e+000
      vertex -1.704663e+001  2.625000e+000  2.300000e+000
      vertex -1.250000e+001  2.000000e+000  2.300000e+000
    endloop
  endfacet
  facet normal  0.000000e+000  0.000000e+000 -9.999999e-001
    outer loop
      vertex -1.250000e+001 -2.000000e+000  2.300000e+000
      vertex -1.704663e+001 -2.625000e+000  2.300000e+000
      vertex -1.391421e+001 -1.414214e+000  2.300000e+000
    endloop
  endfacet
  facet normal  -0.000000e+000  0.000000e+000 -1.000000e+000
    outer loop
      vertex -1.391421e+001 -1.414214e+000  2.300000e+000
      vertex -1.704663e+001 -2.625000e+000  2.300000e+000
      vertex -1.775000e+001 -8.878902e-016  2.300000e+000
    endloop
  endfacet
  facet normal  0.000000e+000  0.000000e+000 -1.000000e+000
    outer loop
      vertex -1.391421e+001 -1.414214e+000  2.300000e+000
      vertex -1.775000e+001 -8.878902e-016  2.300000e+000
      vertex -1.450000e+001  1.775730e-015  2.300000e+000
    endloop
  endfacet
  facet normal  0.000000e+000  0.000000e+000 -1.000000e+000
    outer loop
      vertex -1.704663e+001 -2.625000e+000  2.300000e+000
      vertex -1.250000e+001 -2.000000e+000  2.300000e+000
      vertex -1.512500e+001 -4.546633e+000  2.300000e+000
    endloop
  endfacet
  facet normal  0.000000e+000  0.000000e+000 -1.000000e+000
    outer loop
      vertex -1.512500e+001 -4.546633e+000  2.300000e+000
      vertex -1.250000e+001 -2.000000e+000  2.300000e+000
      vertex -1.250000e+001 -5.250000e+000  2.300000e+000
    endloop
  endfacet
  facet normal  0.000000e+000  0.000000e+000  9.999999e-001
    outer loop
      vertex -5.250000e+000 -5.250000e+000 -2.300000e+000
      vertex -5.250000e+000  5.250000e+000 -2.300000e+000
      vertex -1.108579e+001  1.414214e+000 -2.300000e+000
    endloop
  endfacet
  facet normal  0.000000e+000  0.000000e+000  1.000000e+000
    outer loop
      vertex -5.250000e+000 -5.250000e+000 -2.300000e+000
      vertex -1.108579e+001  1.414214e+000 -2.300000e+000
      vertex -1.050000e+001  1.040966e-015 -2.300000e+000
    endloop
  endfacet
  facet normal  0.000000e+000  0.000000e+000  9.999999e-001
    outer loop
      vertex -5.250000e+000 -5.250000e+000 -2.300000e+000
      vertex -1.050000e+001  1.040966e-015 -2.300000e+000
      vertex -1.108579e+001 -1.414214e+000 -2.300000e+000
    endloop
  endfacet
  facet normal  0.000000e+000  0.000000e+000  1.000000e+000
    outer loop
      vertex -5.250000e+000 -5.250000e+000 -2.300000e+000
      vertex -1.108579e+001 -1.414214e+000 -2.300000e+000
      vertex -1.250000e+001 -2.000000e+000 -2.300000e+000
    endloop
  endfacet
  facet normal  0.000000e+000  0.000000e+000  1.000000e+000
    outer loop
      vertex -5.250000e+000 -5.250000e+000 -2.300000e+000
      vertex -1.250000e+001 -2.000000e+000 -2.300000e+000
      vertex -1.250000e+001 -5.250000e+000 -2.300000e+000
    endloop
  endfacet
  facet normal  0.000000e+000  0.000000e+000  1.000000e+000
    outer loop
      vertex -1.108579e+001  1.414214e+000 -2.300000e+000
      vertex -5.250000e+000  5.250000e+000 -2.300000e+000
      vertex -1.250000e+001  2.000000e+000 -2.300000e+000
    endloop
  endfacet
  facet normal  0.000000e+000  0.000000e+000  1.000000e+000
    outer loop
      vertex -1.250000e+001  2.000000e+000 -2.300000e+000
      vertex -5.250000e+000  5.250000e+000 -2.300000e+000
      vertex -1.250000e+001  5.250000e+000 -2.300000e+000
    endloop
  endfacet
  facet normal  0.000000e+000  0.000000e+000  1.000000e+000
    outer loop
      vertex -1.250000e+001  2.000000e+000 -2.300000e+000
      vertex -1.250000e+001  5.250000e+000 -2.300000e+000
      vertex -1.704663e+001  2.625000e+000 -2.300000e+000
    endloop
  endfacet
  facet normal  0.000000e+000  0.000000e+000  1.000000e+000
    outer loop
      vertex -1.704663e+001  2.625000e+000 -2.300000e+000
      vertex -1.250000e+001  5.250000e+000 -2.300000e+000
      vertex -1.512500e+001  4.546633e+000 -2.300000e+000
    endloop
  endfacet
  facet normal  0.000000e+000  0.000000e+000  9.999999e-001
    outer loop
      vertex -1.250000e+001  2.000000e+000 -2.300000e+000
      vertex -1.704663e+001  2.625000e+000 -2.300000e+000
      vertex -1.391421e+001  1.414214e+000 -2.300000e+000
    endloop
  endfacet
  facet normal  0.000000e+000  0.000000e+000  1.000000e+000
    outer loop
      vertex -1.391421e+001  1.414214e+000 -2.300000e+000
      vertex -1.704663e+001  2.625000e+000 -2.300000e+000
      vertex -1.775000e+001 -8.878902e-016 -2.300000e+000
    endloop
  endfacet
  facet normal  0.000000e+000  0.000000e+000  1.000000e+000
    outer loop
      vertex -1.391421e+001  1.414214e+000 -2.300000e+000
      vertex -1.775000e+001 -8.878902e-016 -2.300000e+000
      vertex -1.450000e+001  1.775730e-015 -2.300000e+000
    endloop
  endfacet
  facet normal  -0.000000e+000  0.000000e+000  1.000000e+000
    outer loop
      vertex -1.450000e+001  1.775730e-015 -2.300000e+000
      vertex -1.775000e+001 -8.878902e-016 -2.300000e+000
      vertex -1.391421e+001 -1.414214e+000 -2.300000e+000
    endloop
  endfacet
  facet normal  0.000000e+000  0.000000e+000  1.000000e+000
    outer loop
      vertex -1.391421e+001 -1.414214e+000 -2.300000e+000
      vertex -1.775000e+001 -8.878902e-016 -2.300000e+000
      vertex -1.704663e+001 -2.625000e+000 -2.300000e+000
    endloop
  endfacet
  facet normal  0.000000e+000  0.000000e+000  9.999999e-001
    outer loop
      vertex -1.391421e+001 -1.414214e+000 -2.300000e+000
      vertex -1.704663e+001 -2.625000e+000 -2.300000e+000
      vertex -1.250000e+001 -2.000000e+000 -2.300000e+000
    endloop
  endfacet
  facet normal  0.000000e+000  -0.000000e+000  1.000000e+000
    outer loop
      vertex -1.704663e+001 -2.625000e+000 -2.300000e+000
      vertex -1.512500e+001 -4.546633e+000 -2.300000e+000
      vertex -1.250000e+001 -2.000000e+000 -2.300000e+000
    endloop
  endfacet
  facet normal  0.000000e+000  0.000000e+000  1.000000e+000
    outer loop
      vertex -1.250000e+001 -2.000000e+000 -2.300000e+000
      vertex -1.512500e+001 -4.546633e+000 -2.300000e+000
      vertex -1.250000e+001 -5.250000e+000 -2.300000e+000
    endloop
  endfacet
  facet normal  0.000000e+000  0.000000e+000 -1.000000e+000
    outer loop
      vertex  1.250000e+001  2.000000e+000  2.300000e+000
      vertex  1.108579e+001  1.414214e+000  2.300000e+000
      vertex  1.250000e+001  5.250000e+000  2.300000e+000
    endloop
  endfacet
  facet normal  0.000000e+000  0.000000e+000 -1.000000e+000
    outer loop
      vertex  5.250000e+000 -5.250000e+000  2.300000e+000
      vertex  5.250000e+000  5.250000e+000  2.300000e+000
      vertex  1.250000e+001  5.250000e+000  2.300000e+000
    endloop
  endfacet
  facet normal  0.000000e+000  0.000000e+000 -1.000000e+000
    outer loop
      vertex  5.250000e+000 -5.250000e+000  2.300000e+000
      vertex  1.250000e+001  5.250000e+000  2.300000e+000
      vertex  1.108579e+001  1.414214e+000  2.300000e+000
    endloop
  endfacet
  facet normal  0.000000e+000  0.000000e+000 -1.000000e+000
    outer loop
      vertex  5.250000e+000 -5.250000e+000  2.300000e+000
      vertex  1.108579e+001  1.414214e+000  2.300000e+000
      vertex  1.050000e+001  1.775730e-015  2.300000e+000
    endloop
  endfacet
  facet normal  0.000000e+000  -0.000000e+000 -9.999999e-001
    outer loop
      vertex  5.250000e+000 -5.250000e+000  2.300000e+000
      vertex  1.050000e+001  1.775730e-015  2.300000e+000
      vertex  1.108579e+001 -1.414214e+000  2.300000e+000
    endloop
  endfacet
  facet normal  0.000000e+000  -0.000000e+000 -1.000000e+000
    outer loop
      vertex  5.250000e+000 -5.250000e+000  2.300000e+000
      vertex  1.108579e+001 -1.414214e+000  2.300000e+000
      vertex  1.250000e+001 -2.000000e+000  2.300000e+000
    endloop
  endfacet
  facet normal  0.000000e+000  -0.000000e+000 -1.000000e+000
    outer loop
      vertex  5.250000e+000 -5.250000e+000  2.300000e+000
      vertex  1.250000e+001 -2.000000e+000  2.300000e+000
      vertex  1.250000e+001 -5.250000e+000  2.300000e+000
    endloop
  endfacet
  facet normal  0.000000e+000  0.000000e+000 -1.000000e+000
    outer loop
      vertex  1.450000e+001  1.530808e-015  2.300000e+000
      vertex  1.391421e+001  1.414214e+000  2.300000e+000
      vertex  1.775000e+001 -2.957668e-015  2.300000e+000
    endloop
  endfacet
  facet normal  0.000000e+000  0.000000e+000 -1.000000e+000
    outer loop
      vertex  1.775000e+001 -2.957668e-015  2.300000e+000
      vertex  1.391421e+001  1.414214e+000  2.300000e+000
      vertex  1.250000e+001  2.000000e+000  2.300000e+000
    endloop
  endfacet
  facet normal  0.000000e+000  0.000000e+000 -1.000000e+000
    outer loop
      vertex  1.775000e+001 -2.957668e-015  2.300000e+000
      vertex  1.250000e+001  2.000000e+000  2.300000e+000
      vertex  1.704663e+001  2.625000e+000  2.300000e+000
    endloop
  endfacet
  facet normal  -0.000000e+000  0.000000e+000 -1.000000e+000
    outer loop
      vertex  1.704663e+001  2.625000e+000  2.300000e+000
      vertex  1.250000e+001  2.000000e+000  2.300000e+000
      vertex  1.250000e+001  5.250000e+000  2.300000e+000
    endloop
  endfacet
  facet normal  0.000000e+000  0.000000e+000 -1.000000e+000
    outer loop
      vertex  1.704663e+001  2.625000e+000  2.300000e+000
      vertex  1.250000e+001  5.250000e+000  2.300000e+000
      vertex  1.512500e+001  4.546633e+000  2.300000e+000
    endloop
  endfacet
  facet normal  0.000000e+000  -0.000000e+000 -9.999999e-001
    outer loop
      vertex  1.250000e+001 -2.000000e+000  2.300000e+000
      vertex  1.391421e+001 -1.414214e+000  2.300000e+000
      vertex  1.704663e+001 -2.625000e+000  2.300000e+000
    endloop
  endfacet
  facet normal  0.000000e+000  0.000000e+000 -1.000000e+000
    outer loop
      vertex  1.704663e+001 -2.625000e+000  2.300000e+000
      vertex  1.391421e+001 -1.414214e+000  2.300000e+000
      vertex  1.450000e+001  1.530808e-015  2.300000e+000
    endloop
  endfacet
  facet normal  0.000000e+000  0.000000e+000 -1.000000e+000
    outer loop
      vertex  1.704663e+001 -2.625000e+000  2.300000e+000
      vertex  1.450000e+001  1.530808e-015  2.300000e+000
      vertex  1.775000e+001 -2.957668e-015  2.300000e+000
    endloop
  endfacet
  facet normal  0.000000e+000  0.000000e+000 -1.000000e+000
    outer loop
      vertex  1.250000e+001 -5.250000e+000  2.300000e+000
      vertex  1.250000e+001 -2.000000e+000  2.300000e+000
      vertex  1.512500e+001 -4.546633e+000  2.300000e+000
    endloop
  endfacet
  facet normal  0.000000e+000  0.000000e+000 -1.000000e+000
    outer loop
      vertex  1.512500e+001 -4.546633e+000  2.300000e+000
      vertex  1.250000e+001 -2.000000e+000  2.300000e+000
      vertex  1.704663e+001 -2.625000e+000  2.300000e+000
    endloop
  endfacet
  facet normal  0.000000e+000  0.000000e+000  1.000000e+000
    outer loop
      vertex  1.250000e+001  5.250000e+000 -2.300000e+000
      vertex  1.108579e+001  1.414214e+000 -2.300000e+000
      vertex  1.250000e+001  2.000000e+000 -2.300000e+000
    endloop
  endfacet
  facet normal  0.000000e+000  -0.000000e+000  1.000000e+000
    outer loop
      vertex  5.250000e+000 -5.250000e+000 -2.300000e+000
      vertex  1.250000e+001 -5.250000e+000 -2.300000e+000
      vertex  1.250000e+001 -2.000000e+000 -2.300000e+000
    endloop
  endfacet
  facet normal  0.000000e+000  0.000000e+000  1.000000e+000
    outer loop
      vertex  5.250000e+000 -5.250000e+000 -2.300000e+000
      vertex  1.250000e+001 -2.000000e+000 -2.300000e+000
      vertex  1.108579e+001 -1.414214e+000 -2.300000e+000
    endloop
  endfacet
  facet normal  0.000000e+000  0.000000e+000  9.999999e-001
    outer loop
      vertex  5.250000e+000 -5.250000e+000 -2.300000e+000
      vertex  1.108579e+001 -1.414214e+000 -2.300000e+000
      vertex  1.050000e+001  1.775730e-015 -2.300000e+000
    endloop
  endfacet
  facet normal  0.000000e+000  -0.000000e+000  1.000000e+000
    outer loop
      vertex  5.250000e+000 -5.250000e+000 -2.300000e+000
      vertex  1.050000e+001  1.775730e-015 -2.300000e+000
      vertex  1.108579e+001  1.414214e+000 -2.300000e+000
    endloop
  endfacet
  facet normal  0.000000e+000  -0.000000e+000  1.000000e+000
    outer loop
      vertex  5.250000e+000 -5.250000e+000 -2.300000e+000
      vertex  1.108579e+001  1.414214e+000 -2.300000e+000
      vertex  1.250000e+001  5.250000e+000 -2.300000e+000
    endloop
  endfacet
  facet normal  0.000000e+000  0.000000e+000  1.000000e+000
    outer loop
      vertex  5.250000e+000 -5.250000e+000 -2.300000e+000
      vertex  1.250000e+001  5.250000e+000 -2.300000e+000
      vertex  5.250000e+000  5.250000e+000 -2.300000e+000
    endloop
  endfacet
  facet normal  0.000000e+000  0.000000e+000  1.000000e+000
    outer loop
      vertex  1.512500e+001  4.546633e+000 -2.300000e+000
      vertex  1.250000e+001  5.250000e+000 -2.300000e+000
      vertex  1.704663e+001  2.625000e+000 -2.300000e+000
    endloop
  endfacet
  facet normal  0.000000e+000  0.000000e+000  1.000000e+000
    outer loop
      vertex  1.704663e+001  2.625000e+000 -2.300000e+000
      vertex  1.250000e+001  5.250000e+000 -2.300000e+000
      vertex  1.250000e+001  2.000000e+000 -2.300000e+000
    endloop
  endfacet
  facet normal  -0.000000e+000  0.000000e+000  1.000000e+000
    outer loop
      vertex  1.704663e+001  2.625000e+000 -2.300000e+000
      vertex  1.250000e+001  2.000000e+000 -2.300000e+000
      vertex  1.775000e+001 -2.957668e-015 -2.300000e+000
    endloop
  endfacet
  facet normal  0.000000e+000  0.000000e+000  1.000000e+000
    outer loop
      vertex  1.775000e+001 -2.957668e-015 -2.300000e+000
      vertex  1.250000e+001  2.000000e+000 -2.300000e+000
      vertex  1.391421e+001  1.414214e+000 -2.300000e+000
    endloop
  endfacet
  facet normal  0.000000e+000  0.000000e+000  1.000000e+000
    outer loop
      vertex  1.775000e+001 -2.957668e-015 -2.300000e+000
      vertex  1.391421e+001  1.414214e+000 -2.300000e+000
      vertex  1.450000e+001  1.530808e-015 -2.300000e+000
    endloop
  endfacet
  facet normal  0.000000e+000  0.000000e+000  1.000000e+000
    outer loop
      vertex  1.775000e+001 -2.957668e-015 -2.300000e+000
      vertex  1.450000e+001  1.530808e-015 -2.300000e+000
      vertex  1.704663e+001 -2.625000e+000 -2.300000e+000
    endloop
  endfacet
  facet normal  0.000000e+000  0.000000e+000  1.000000e+000
    outer loop
      vertex  1.704663e+001 -2.625000e+000 -2.300000e+000
      vertex  1.450000e+001  1.530808e-015 -2.300000e+000
      vertex  1.391421e+001 -1.414214e+000 -2.300000e+000
    endloop
  endfacet
  facet normal  0.000000e+000  0.000000e+000  9.999999e-001
    outer loop
      vertex  1.704663e+001 -2.625000e+000 -2.300000e+000
      vertex  1.391421e+001 -1.414214e+000 -2.300000e+000
      vertex  1.250000e+001 -2.000000e+000 -2.300000e+000
    endloop
  endfacet
  facet normal  0.000000e+000  0.000000e+000  1.000000e+000
    outer loop
      vertex  1.250000e+001 -5.250000e+000 -2.300000e+000
      vertex  1.512500e+001 -4.546633e+000 -2.300000e+000
      vertex  1.250000e+001 -2.000000e+000 -2.300000e+000
    endloop
  endfacet
  facet normal  0.000000e+000  0.000000e+000  1.000000e+000
    outer loop
      vertex  1.250000e+001 -2.000000e+000 -2.300000e+000
      vertex  1.512500e+001 -4.546633e+000 -2.300000e+000
      vertex  1.704663e+001 -2.625000e+000 -2.300000e+000
    endloop
  endfacet
  facet normal -1.000000e+000  0.000000e+000  0.000000e+000
    outer loop
      vertex -5.250000e+000 -5.250000e+000 -2.300000e+000
      vertex -5.250000e+000 -5.250000e+000  2.300000e+000
      vertex -5.250000e+000  5.250000e+000 -2.300000e+000
    endloop
  endfacet
  facet normal -1.000000e+000  0.000000e+000  0.000000e+000
    outer loop
      vertex -5.250000e+000  5.250000e+000 -2.300000e+000
      vertex -5.250000e+000 -5.250000e+000  2.300000e+000
      vertex -5.250000e+000  5.250000e+000  2.300000e+000
    endloop
  endfacet
  facet normal  1.000000e+000  0.000000e+000  0.000000e+000
    outer loop
      vertex  5.250000e+000 -5.250000e+000 -2.300000e+000
      vertex  5.250000e+000  5.250000e+000 -2.300000e+000
      vertex  5.250000e+000 -5.250000e+000  2.300000e+000
    endloop
  endfacet
  facet normal  1.000000e+000  -0.000000e+000  0.000000e+000
    outer loop
      vertex  5.250000e+000 -5.250000e+000  2.300000e+000
      vertex  5.250000e+000  5.250000e+000 -2.300000e+000
      vertex  5.250000e+000  5.250000e+000  2.300000e+000
    endloop
  endfacet
  facet normal  0.000000e+000  -0.000000e+000 -1.000000e+000
    outer loop
      vertex  1.250000e+001  2.000000e+000 -6.000000e+000
      vertex  1.512500e+001  4.546633e+000 -6.000000e+000
      vertex  1.704663e+001  2.625000e+000 -6.000000e+000
    endloop
  endfacet
  facet normal  0.000000e+000  0.000000e+000 -1.000000e+000
    outer loop
      vertex  1.512500e+001  4.546633e+000 -6.000000e+000
      vertex  1.250000e+001  2.000000e+000 -6.000000e+000
      vertex  1.250000e+001  5.250000e+000 -6.000000e+000
    endloop
  endfacet
  facet normal  0.000000e+000  -0.000000e+000 -1.000000e+000
    outer loop
      vertex  1.250000e+001  5.250000e+000 -6.000000e+000
      vertex  1.250000e+001  2.000000e+000 -6.000000e+000
      vertex -1.250000e+001  2.000000e+000 -6.000000e+000
    endloop
  endfacet
  facet normal  0.000000e+000  0.000000e+000 -1.000000e+000
    outer loop
      vertex  1.250000e+001  5.250000e+000 -6.000000e+000
      vertex -1.250000e+001  2.000000e+000 -6.000000e+000
      vertex -1.250000e+001  5.250000e+000 -6.000000e+000
    endloop
  endfacet
  facet normal  0.000000e+000  -0.000000e+000 -1.000000e+000
    outer loop
      vertex -1.250000e+001  5.250000e+000 -6.000000e+000
      vertex -1.250000e+001  2.000000e+000 -6.000000e+000
      vertex -1.704663e+001  2.625000e+000 -6.000000e+000
    endloop
  endfacet
  facet normal  0.000000e+000  0.000000e+000 -1.000000e+000
    outer loop
      vertex -1.250000e+001  5.250000e+000 -6.000000e+000
      vertex -1.704663e+001  2.625000e+000 -6.000000e+000
      vertex -1.512500e+001  4.546633e+000 -6.000000e+000
    endloop
  endfacet
  facet normal  0.000000e+000  0.000000e+000 -1.000000e+000
    outer loop
      vertex -1.450000e+001  1.775730e-015 -6.000000e+000
      vertex -1.775000e+001  1.443578e-015 -6.000000e+000
      vertex -1.391421e+001  1.414214e+000 -6.000000e+000
    endloop
  endfacet
  facet normal  -0.000000e+000  0.000000e+000 -1.000000e+000
    outer loop
      vertex -1.391421e+001  1.414214e+000 -6.000000e+000
      vertex -1.775000e+001  1.443578e-015 -6.000000e+000
      vertex -1.704663e+001  2.625000e+000 -6.000000e+000
    endloop
  endfacet
  facet normal  0.000000e+000  0.000000e+000 -9.999999e-001
    outer loop
      vertex -1.391421e+001  1.414214e+000 -6.000000e+000
      vertex -1.704663e+001  2.625000e+000 -6.000000e+000
      vertex -1.250000e+001  2.000000e+000 -6.000000e+000
    endloop
  endfacet
  facet normal  0.000000e+000  0.000000e+000 -9.999999e-001
    outer loop
      vertex -1.250000e+001 -2.000000e+000 -6.000000e+000
      vertex -1.704663e+001 -2.625000e+000 -6.000000e+000
      vertex -1.391421e+001 -1.414214e+000 -6.000000e+000
    endloop
  endfacet
  facet normal  -0.000000e+000  0.000000e+000 -1.000000e+000
    outer loop
      vertex -1.391421e+001 -1.414214e+000 -6.000000e+000
      vertex -1.704663e+001 -2.625000e+000 -6.000000e+000
      vertex -1.775000e+001  1.443578e-015 -6.000000e+000
    endloop
  endfacet
  facet normal  0.000000e+000  0.000000e+000 -1.000000e+000
    outer loop
      vertex -1.391421e+001 -1.414214e+000 -6.000000e+000
      vertex -1.775000e+001  1.443578e-015 -6.000000e+000
      vertex -1.450000e+001  1.775730e-015 -6.000000e+000
    endloop
  endfacet
  facet normal  0.000000e+000  0.000000e+000 -1.000000e+000
    outer loop
      vertex  1.250000e+001 -5.250000e+000 -6.000000e+000
      vertex  1.704663e+001 -2.625000e+000 -6.000000e+000
      vertex  1.512500e+001 -4.546633e+000 -6.000000e+000
    endloop
  endfacet
  facet normal  0.000000e+000  0.000000e+000 -1.000000e+000
    outer loop
      vertex  1.704663e+001 -2.625000e+000 -6.000000e+000
      vertex  1.250000e+001 -5.250000e+000 -6.000000e+000
      vertex  1.250000e+001 -2.000000e+000 -6.000000e+000
    endloop
  endfacet
  facet normal  0.000000e+000  -0.000000e+000 -1.000000e+000
    outer loop
      vertex  1.250000e+001 -2.000000e+000 -6.000000e+000
      vertex  1.250000e+001 -5.250000e+000 -6.000000e+000
      vertex -1.250000e+001 -5.250000e+000 -6.000000e+000
    endloop
  endfacet
  facet normal  0.000000e+000  0.000000e+000 -1.000000e+000
    outer loop
      vertex  1.250000e+001 -2.000000e+000 -6.000000e+000
      vertex -1.250000e+001 -5.250000e+000 -6.000000e+000
      vertex -1.250000e+001 -2.000000e+000 -6.000000e+000
    endloop
  endfacet
  facet normal  0.000000e+000  -0.000000e+000 -1.000000e+000
    outer loop
      vertex -1.250000e+001 -2.000000e+000 -6.000000e+000
      vertex -1.250000e+001 -5.250000e+000 -6.000000e+000
      vertex -1.512500e+001 -4.546633e+000 -6.000000e+000
    endloop
  endfacet
  facet normal  0.000000e+000  0.000000e+000 -1.000000e+000
    outer loop
      vertex -1.250000e+001 -2.000000e+000 -6.000000e+000
      vertex -1.512500e+001 -4.546633e+000 -6.000000e+000
      vertex -1.704663e+001 -2.625000e+000 -6.000000e+000
    endloop
  endfacet
  facet normal  0.000000e+000  0.000000e+000 -9.999999e-001
    outer loop
      vertex  1.050000e+001  1.775730e-015 -6.000000e+000
      vertex -1.108579e+001  1.414214e+000 -6.000000e+000
      vertex  1.108579e+001  1.414214e+000 -6.000000e+000
    endloop
  endfacet
  facet normal  0.000000e+000  0.000000e+000 -1.000000e+000
    outer loop
      vertex  1.108579e+001  1.414214e+000 -6.000000e+000
      vertex -1.108579e+001  1.414214e+000 -6.000000e+000
      vertex -1.250000e+001  2.000000e+000 -6.000000e+000
    endloop
  endfacet
  facet normal  0.000000e+000  0.000000e+000 -1.000000e+000
    outer loop
      vertex  1.108579e+001  1.414214e+000 -6.000000e+000
      vertex -1.250000e+001  2.000000e+000 -6.000000e+000
      vertex  1.250000e+001  2.000000e+000 -6.000000e+000
    endloop
  endfacet
  facet normal  -0.000000e+000  0.000000e+000 -1.000000e+000
    outer loop
      vertex -1.108579e+001  1.414214e+000 -6.000000e+000
      vertex  1.050000e+001  1.775730e-015 -6.000000e+000
      vertex -1.050000e+001  1.040966e-015 -6.000000e+000
    endloop
  endfacet
  facet normal  0.000000e+000  0.000000e+000 -1.000000e+000
    outer loop
      vertex -1.050000e+001  1.040966e-015 -6.000000e+000
      vertex  1.050000e+001  1.775730e-015 -6.000000e+000
      vertex  1.108579e+001 -1.414214e+000 -6.000000e+000
    endloop
  endfacet
  facet normal  0.000000e+000  0.000000e+000 -9.999999e-001
    outer loop
      vertex -1.050000e+001  1.040966e-015 -6.000000e+000
      vertex  1.108579e+001 -1.414214e+000 -6.000000e+000
      vertex -1.108579e+001 -1.414214e+000 -6.000000e+000
    endloop
  endfacet
  facet normal  0.000000e+000  0.000000e+000 -1.000000e+000
    outer loop
      vertex -1.108579e+001 -1.414214e+000 -6.000000e+000
      vertex  1.108579e+001 -1.414214e+000 -6.000000e+000
      vertex  1.250000e+001 -2.000000e+000 -6.000000e+000
    endloop
  endfacet
  facet normal  0.000000e+000  0.000000e+000 -1.000000e+000
    outer loop
      vertex -1.108579e+001 -1.414214e+000 -6.000000e+000
      vertex  1.250000e+001 -2.000000e+000 -6.000000e+000
      vertex -1.250000e+001 -2.000000e+000 -6.000000e+000
    endloop
  endfacet
  facet normal  0.000000e+000  0.000000e+000 -1.000000e+000
    outer loop
      vertex  1.450000e+001  1.530808e-015 -6.000000e+000
      vertex  1.391421e+001  1.414214e+000 -6.000000e+000
      vertex  1.775000e+001  6.368206e-015 -6.000000e+000
    endloop
  endfacet
  facet normal  0.000000e+000  0.000000e+000 -1.000000e+000
    outer loop
      vertex  1.775000e+001  6.368206e-015 -6.000000e+000
      vertex  1.391421e+001  1.414214e+000 -6.000000e+000
      vertex  1.250000e+001  2.000000e+000 -6.000000e+000
    endloop
  endfacet
  facet normal  0.000000e+000  0.000000e+000 -1.000000e+000
    outer loop
      vertex  1.775000e+001  6.368206e-015 -6.000000e+000
      vertex  1.250000e+001  2.000000e+000 -6.000000e+000
      vertex  1.704663e+001  2.625000e+000 -6.000000e+000
    endloop
  endfacet
  facet normal  0.000000e+000  -0.000000e+000 -9.999999e-001
    outer loop
      vertex  1.250000e+001 -2.000000e+000 -6.000000e+000
      vertex  1.391421e+001 -1.414214e+000 -6.000000e+000
      vertex  1.704663e+001 -2.625000e+000 -6.000000e+000
    endloop
  endfacet
  facet normal  0.000000e+000  0.000000e+000 -1.000000e+000
    outer loop
      vertex  1.704663e+001 -2.625000e+000 -6.000000e+000
      vertex  1.391421e+001 -1.414214e+000 -6.000000e+000
      vertex  1.450000e+001  1.530808e-015 -6.000000e+000
    endloop
  endfacet
  facet normal  0.000000e+000  0.000000e+000 -1.000000e+000
    outer loop
      vertex  1.704663e+001 -2.625000e+000 -6.000000e+000
      vertex  1.450000e+001  1.530808e-015 -6.000000e+000
      vertex  1.775000e+001  6.368206e-015 -6.000000e+000
    endloop
  endfacet
endsolid CATIA STL
