solid CATIA STL
  facet normal  0.000000e+000  0.000000e+000 -1.000000e+000
    outer loop
      vertex -1.200000e+001  3.000000e+000 -2.800000e+001
      vertex -1.500000e+001  3.000000e+000 -2.800000e+001
      vertex -1.200000e+001  4.300000e+001 -2.800000e+001
    endloop
  endfacet
  facet normal  -0.000000e+000  0.000000e+000 -1.000000e+000
    outer loop
      vertex -1.200000e+001  4.300000e+001 -2.800000e+001
      vertex -1.500000e+001  3.000000e+000 -2.800000e+001
      vertex -1.500000e+001  4.300000e+001 -2.800000e+001
    endloop
  endfacet
  facet normal  0.000000e+000 -1.000000e+000  0.000000e+000
    outer loop
      vertex -1.500000e+001  3.000000e+000 -5.000000e+000
      vertex -1.500000e+001  3.000000e+000 -2.800000e+001
      vertex -1.200000e+001  3.000000e+000 -2.800000e+001
    endloop
  endfacet
  facet normal  0.000000e+000 -1.000000e+000  0.000000e+000
    outer loop
      vertex -1.500000e+001  3.000000e+000 -5.000000e+000
      vertex -1.200000e+001  3.000000e+000 -2.800000e+001
      vertex -1.200000e+001  3.000000e+000 -1.300000e+001
    endloop
  endfacet
  facet normal  0.000000e+000 -1.000000e+000  0.000000e+000
    outer loop
      vertex -1.500000e+001  3.000000e+000 -5.000000e+000
      vertex -1.200000e+001  3.000000e+000 -1.300000e+001
      vertex -1.200000e+001  3.000000e+000 -1.000000e+001
    endloop
  endfacet
  facet normal  0.000000e+000 -1.000000e+000  0.000000e+000
    outer loop
      vertex -1.500000e+001  3.000000e+000 -5.000000e+000
      vertex -1.200000e+001  3.000000e+000 -1.000000e+001
      vertex -1.200000e+001  3.000000e+000 -5.000000e+000
    endloop
  endfacet
  facet normal  0.000000e+000 -1.000000e+000  0.000000e+000
    outer loop
      vertex  2.800000e+001  3.000000e+000 -1.000000e+001
      vertex -1.200000e+001  3.000000e+000 -1.000000e+001
      vertex  2.800000e+001  3.000000e+000 -1.300000e+001
    endloop
  endfacet
  facet normal  0.000000e+000 -1.000000e+000  0.000000e+000
    outer loop
      vertex  2.800000e+001  3.000000e+000 -1.300000e+001
      vertex -1.200000e+001  3.000000e+000 -1.000000e+001
      vertex -1.200000e+001  3.000000e+000 -1.300000e+001
    endloop
  endfacet
  facet normal  0.000000e+000  1.000000e+000  -0.000000e+000
    outer loop
      vertex  4.000000e+001  4.300000e+001 -1.000000e+001
      vertex  4.000000e+001  4.300000e+001 -1.300000e+001
      vertex  2.800000e+001  4.300000e+001 -1.000000e+001
    endloop
  endfacet
  facet normal  0.000000e+000  1.000000e+000  0.000000e+000
    outer loop
      vertex  2.800000e+001  4.300000e+001 -1.000000e+001
      vertex  4.000000e+001  4.300000e+001 -1.300000e+001
      vertex  2.800000e+001  4.300000e+001 -1.300000e+001
    endloop
  endfacet
  facet normal  0.000000e+000  1.000000e+000  -0.000000e+000
    outer loop
      vertex  2.800000e+001  4.300000e+001 -1.000000e+001
      vertex  2.800000e+001  4.300000e+001 -1.300000e+001
      vertex -1.500000e+001  4.300000e+001 -1.000000e+001
    endloop
  endfacet
  facet normal  0.000000e+000  1.000000e+000  0.000000e+000
    outer loop
      vertex -1.500000e+001  4.300000e+001 -1.000000e+001
      vertex  2.800000e+001  4.300000e+001 -1.300000e+001
      vertex -1.200000e+001  4.300000e+001 -1.300000e+001
    endloop
  endfacet
  facet normal  0.000000e+000  1.000000e+000  0.000000e+000
    outer loop
      vertex -1.500000e+001  4.300000e+001 -1.000000e+001
      vertex -1.200000e+001  4.300000e+001 -1.300000e+001
      vertex -1.500000e+001  4.300000e+001 -2.800000e+001
    endloop
  endfacet
  facet normal  0.000000e+000  1.000000e+000  0.000000e+000
    outer loop
      vertex -1.500000e+001  4.300000e+001 -2.800000e+001
      vertex -1.200000e+001  4.300000e+001 -1.300000e+001
      vertex -1.200000e+001  4.300000e+001 -2.800000e+001
    endloop
  endfacet
  facet normal -1.000000e+000  0.000000e+000  0.000000e+000
    outer loop
      vertex -1.500000e+001  7.500000e+000 -1.900000e+001
      vertex -1.500000e+001  6.439340e+000 -1.943934e+001
      vertex -1.500000e+001  3.000000e+000 -5.000000e+000
    endloop
  endfacet
  facet normal -1.000000e+000  0.000000e+000  0.000000e+000
    outer loop
      vertex -1.500000e+001  6.439340e+000 -1.943934e+001
      vertex -1.500000e+001  6.000000e+000 -2.050000e+001
      vertex -1.500000e+001  3.000000e+000 -5.000000e+000
    endloop
  endfacet
  facet normal -1.000000e+000  0.000000e+000  0.000000e+000
    outer loop
      vertex -1.500000e+001  3.350000e+001 -1.450000e+001
      vertex -1.500000e+001  9.500000e+000 -1.450000e+001
      vertex -1.500000e+001  1.800000e+001 -1.000000e+001
    endloop
  endfacet
  facet normal -1.000000e+000  0.000000e+000  0.000000e+000
    outer loop
      vertex -1.500000e+001  3.350000e+001 -1.450000e+001
      vertex -1.500000e+001  1.800000e+001 -1.000000e+001
      vertex -1.500000e+001  4.300000e+001 -1.000000e+001
    endloop
  endfacet
  facet normal -1.000000e+000  0.000000e+000  0.000000e+000
    outer loop
      vertex -1.500000e+001  3.350000e+001 -1.450000e+001
      vertex -1.500000e+001  4.300000e+001 -1.000000e+001
      vertex -1.500000e+001  3.550000e+001 -1.900000e+001
    endloop
  endfacet
  facet normal -9.999999e-001  -0.000000e+000  0.000000e+000
    outer loop
      vertex -1.500000e+001  3.350000e+001 -1.450000e+001
      vertex -1.500000e+001  3.550000e+001 -1.900000e+001
      vertex -1.500000e+001  3.443934e+001 -1.943934e+001
    endloop
  endfacet
  facet normal -1.000000e+000  -0.000000e+000  0.000000e+000
    outer loop
      vertex -1.500000e+001  3.350000e+001 -1.450000e+001
      vertex -1.500000e+001  3.443934e+001 -1.943934e+001
      vertex -1.500000e+001  3.400000e+001 -2.050000e+001
    endloop
  endfacet
  facet normal -9.999999e-001  0.000000e+000  0.000000e+000
    outer loop
      vertex -1.500000e+001  9.500000e+000 -1.450000e+001
      vertex -1.500000e+001  9.000000e+000 -2.050000e+001
      vertex -1.500000e+001  8.560660e+000 -1.943934e+001
    endloop
  endfacet
  facet normal -9.999999e-001  0.000000e+000  0.000000e+000
    outer loop
      vertex -1.500000e+001  9.500000e+000 -1.450000e+001
      vertex -1.500000e+001  8.560660e+000 -1.943934e+001
      vertex -1.500000e+001  7.500000e+000 -1.900000e+001
    endloop
  endfacet
  facet normal -1.000000e+000  0.000000e+000  0.000000e+000
    outer loop
      vertex -1.500000e+001  9.500000e+000 -1.450000e+001
      vertex -1.500000e+001  7.500000e+000 -1.900000e+001
      vertex -1.500000e+001  3.000000e+000 -5.000000e+000
    endloop
  endfacet
  facet normal -1.000000e+000  0.000000e+000  0.000000e+000
    outer loop
      vertex -1.500000e+001  9.500000e+000 -1.450000e+001
      vertex -1.500000e+001  3.000000e+000 -5.000000e+000
      vertex -1.500000e+001  3.000000e+000  5.000000e+000
    endloop
  endfacet
  facet normal -1.000000e+000  0.000000e+000  0.000000e+000
    outer loop
      vertex -1.500000e+001  9.500000e+000 -1.450000e+001
      vertex -1.500000e+001  3.000000e+000  5.000000e+000
      vertex -1.500000e+001  1.800000e+001 -1.000000e+001
    endloop
  endfacet
  facet normal -1.000000e+000  0.000000e+000  0.000000e+000
    outer loop
      vertex -1.500000e+001  3.000000e+000 -2.800000e+001
      vertex -1.500000e+001  3.000000e+000 -5.000000e+000
      vertex -1.500000e+001  6.000000e+000 -2.050000e+001
    endloop
  endfacet
  facet normal -1.000000e+000  0.000000e+000  -0.000000e+000
    outer loop
      vertex -1.500000e+001  3.000000e+000 -2.800000e+001
      vertex -1.500000e+001  6.000000e+000 -2.050000e+001
      vertex -1.500000e+001  6.439340e+000 -2.156066e+001
    endloop
  endfacet
  facet normal -1.000000e+000  0.000000e+000  -0.000000e+000
    outer loop
      vertex -1.500000e+001  3.000000e+000 -2.800000e+001
      vertex -1.500000e+001  6.439340e+000 -2.156066e+001
      vertex -1.500000e+001  7.500000e+000 -2.200000e+001
    endloop
  endfacet
  facet normal -1.000000e+000  0.000000e+000  -0.000000e+000
    outer loop
      vertex -1.500000e+001  3.000000e+000 -2.800000e+001
      vertex -1.500000e+001  7.500000e+000 -2.200000e+001
      vertex -1.500000e+001  9.500000e+000 -2.650000e+001
    endloop
  endfacet
  facet normal -1.000000e+000  0.000000e+000  -0.000000e+000
    outer loop
      vertex -1.500000e+001  3.000000e+000 -2.800000e+001
      vertex -1.500000e+001  9.500000e+000 -2.650000e+001
      vertex -1.500000e+001  4.300000e+001 -2.800000e+001
    endloop
  endfacet
  facet normal -1.000000e+000  0.000000e+000  0.000000e+000
    outer loop
      vertex -1.500000e+001  4.300000e+001 -2.800000e+001
      vertex -1.500000e+001  9.500000e+000 -2.650000e+001
      vertex -1.500000e+001  3.350000e+001 -2.650000e+001
    endloop
  endfacet
  facet normal -1.000000e+000  0.000000e+000  0.000000e+000
    outer loop
      vertex -1.500000e+001  4.300000e+001 -2.800000e+001
      vertex -1.500000e+001  3.350000e+001 -2.650000e+001
      vertex -1.500000e+001  3.550000e+001 -2.200000e+001
    endloop
  endfacet
  facet normal -1.000000e+000  0.000000e+000  0.000000e+000
    outer loop
      vertex -1.500000e+001  4.300000e+001 -2.800000e+001
      vertex -1.500000e+001  3.550000e+001 -2.200000e+001
      vertex -1.500000e+001  3.656066e+001 -2.156066e+001
    endloop
  endfacet
  facet normal -9.999999e-001  0.000000e+000  0.000000e+000
    outer loop
      vertex -1.500000e+001  4.300000e+001 -2.800000e+001
      vertex -1.500000e+001  3.656066e+001 -2.156066e+001
      vertex -1.500000e+001  4.300000e+001 -1.000000e+001
    endloop
  endfacet
  facet normal -1.000000e+000  0.000000e+000  0.000000e+000
    outer loop
      vertex -1.500000e+001  4.300000e+001 -1.000000e+001
      vertex -1.500000e+001  3.656066e+001 -2.156066e+001
      vertex -1.500000e+001  3.700000e+001 -2.050000e+001
    endloop
  endfacet
  facet normal -9.999999e-001  0.000000e+000  0.000000e+000
    outer loop
      vertex -1.500000e+001  4.300000e+001 -1.000000e+001
      vertex -1.500000e+001  3.700000e+001 -2.050000e+001
      vertex -1.500000e+001  3.656066e+001 -1.943934e+001
    endloop
  endfacet
  facet normal -1.000000e+000  0.000000e+000  0.000000e+000
    outer loop
      vertex -1.500000e+001  4.300000e+001 -1.000000e+001
      vertex -1.500000e+001  3.656066e+001 -1.943934e+001
      vertex -1.500000e+001  3.550000e+001 -1.900000e+001
    endloop
  endfacet
  facet normal -1.000000e+000  0.000000e+000  0.000000e+000
    outer loop
      vertex -1.500000e+001  3.350000e+001 -2.650000e+001
      vertex -1.500000e+001  3.350000e+001 -1.450000e+001
      vertex -1.500000e+001  3.400000e+001 -2.050000e+001
    endloop
  endfacet
  facet normal -1.000000e+000  0.000000e+000  -0.000000e+000
    outer loop
      vertex -1.500000e+001  3.350000e+001 -2.650000e+001
      vertex -1.500000e+001  3.400000e+001 -2.050000e+001
      vertex -1.500000e+001  3.443934e+001 -2.156066e+001
    endloop
  endfacet
  facet normal -9.999999e-001  0.000000e+000  -0.000000e+000
    outer loop
      vertex -1.500000e+001  3.350000e+001 -2.650000e+001
      vertex -1.500000e+001  3.443934e+001 -2.156066e+001
      vertex -1.500000e+001  3.550000e+001 -2.200000e+001
    endloop
  endfacet
  facet normal -9.999999e-001  0.000000e+000  0.000000e+000
    outer loop
      vertex -1.500000e+001  9.500000e+000 -2.650000e+001
      vertex -1.500000e+001  7.500000e+000 -2.200000e+001
      vertex -1.500000e+001  8.560660e+000 -2.156066e+001
    endloop
  endfacet
  facet normal -9.999999e-001  0.000000e+000  0.000000e+000
    outer loop
      vertex -1.500000e+001  9.500000e+000 -2.650000e+001
      vertex -1.500000e+001  8.560660e+000 -2.156066e+001
      vertex -1.500000e+001  9.000000e+000 -2.050000e+001
    endloop
  endfacet
  facet normal -1.000000e+000  0.000000e+000  0.000000e+000
    outer loop
      vertex -1.500000e+001  9.500000e+000 -2.650000e+001
      vertex -1.500000e+001  9.000000e+000 -2.050000e+001
      vertex -1.500000e+001  9.500000e+000 -1.450000e+001
    endloop
  endfacet
  facet normal  9.999999e-001  -0.000000e+000  0.000000e+000
    outer loop
      vertex -1.200000e+001  9.000000e+000 -2.050000e+001
      vertex -1.200000e+001  8.560660e+000 -2.156066e+001
      vertex -1.200000e+001  9.500000e+000 -2.650000e+001
    endloop
  endfacet
  facet normal  9.999999e-001  -0.000000e+000  0.000000e+000
    outer loop
      vertex -1.200000e+001  8.560660e+000 -2.156066e+001
      vertex -1.200000e+001  7.500000e+000 -2.200000e+001
      vertex -1.200000e+001  9.500000e+000 -2.650000e+001
    endloop
  endfacet
  facet normal  9.999999e-001  0.000000e+000  0.000000e+000
    outer loop
      vertex -1.200000e+001  3.550000e+001 -2.200000e+001
      vertex -1.200000e+001  3.443934e+001 -2.156066e+001
      vertex -1.200000e+001  3.350000e+001 -2.650000e+001
    endloop
  endfacet
  facet normal  1.000000e+000  0.000000e+000  0.000000e+000
    outer loop
      vertex -1.200000e+001  3.443934e+001 -2.156066e+001
      vertex -1.200000e+001  3.400000e+001 -2.050000e+001
      vertex -1.200000e+001  3.350000e+001 -2.650000e+001
    endloop
  endfacet
  facet normal  1.000000e+000  0.000000e+000  0.000000e+000
    outer loop
      vertex -1.200000e+001  3.000000e+000 -2.800000e+001
      vertex -1.200000e+001  9.500000e+000 -2.650000e+001
      vertex -1.200000e+001  7.500000e+000 -2.200000e+001
    endloop
  endfacet
  facet normal  1.000000e+000  0.000000e+000  0.000000e+000
    outer loop
      vertex -1.200000e+001  3.000000e+000 -2.800000e+001
      vertex -1.200000e+001  7.500000e+000 -2.200000e+001
      vertex -1.200000e+001  6.439340e+000 -2.156066e+001
    endloop
  endfacet
  facet normal  1.000000e+000  0.000000e+000  0.000000e+000
    outer loop
      vertex -1.200000e+001  3.000000e+000 -2.800000e+001
      vertex -1.200000e+001  6.439340e+000 -2.156066e+001
      vertex -1.200000e+001  6.000000e+000 -2.050000e+001
    endloop
  endfacet
  facet normal  1.000000e+000  0.000000e+000  0.000000e+000
    outer loop
      vertex -1.200000e+001  4.300000e+001 -2.800000e+001
      vertex -1.200000e+001  4.300000e+001 -1.300000e+001
      vertex -1.200000e+001  3.656066e+001 -1.943934e+001
    endloop
  endfacet
  facet normal  1.000000e+000  0.000000e+000  0.000000e+000
    outer loop
      vertex -1.200000e+001  4.300000e+001 -2.800000e+001
      vertex -1.200000e+001  3.656066e+001 -1.943934e+001
      vertex -1.200000e+001  3.700000e+001 -2.050000e+001
    endloop
  endfacet
  facet normal  1.000000e+000  0.000000e+000  0.000000e+000
    outer loop
      vertex -1.200000e+001  4.300000e+001 -2.800000e+001
      vertex -1.200000e+001  3.700000e+001 -2.050000e+001
      vertex -1.200000e+001  3.656066e+001 -2.156066e+001
    endloop
  endfacet
  facet normal  1.000000e+000  0.000000e+000  0.000000e+000
    outer loop
      vertex -1.200000e+001  4.300000e+001 -2.800000e+001
      vertex -1.200000e+001  3.656066e+001 -2.156066e+001
      vertex -1.200000e+001  3.550000e+001 -2.200000e+001
    endloop
  endfacet
  facet normal  1.000000e+000  0.000000e+000  0.000000e+000
    outer loop
      vertex -1.200000e+001  4.300000e+001 -2.800000e+001
      vertex -1.200000e+001  3.550000e+001 -2.200000e+001
      vertex -1.200000e+001  3.350000e+001 -2.650000e+001
    endloop
  endfacet
  facet normal  1.000000e+000  0.000000e+000  0.000000e+000
    outer loop
      vertex -1.200000e+001  4.300000e+001 -2.800000e+001
      vertex -1.200000e+001  3.350000e+001 -2.650000e+001
      vertex -1.200000e+001  9.500000e+000 -2.650000e+001
    endloop
  endfacet
  facet normal  1.000000e+000  0.000000e+000  0.000000e+000
    outer loop
      vertex -1.200000e+001  4.300000e+001 -2.800000e+001
      vertex -1.200000e+001  9.500000e+000 -2.650000e+001
      vertex -1.200000e+001  3.000000e+000 -2.800000e+001
    endloop
  endfacet
  facet normal  1.000000e+000  -0.000000e+000  0.000000e+000
    outer loop
      vertex -1.200000e+001  4.300000e+001 -1.300000e+001
      vertex -1.200000e+001  3.000000e+000 -1.300000e+001
      vertex -1.200000e+001  9.500000e+000 -1.450000e+001
    endloop
  endfacet
  facet normal  1.000000e+000  0.000000e+000  0.000000e+000
    outer loop
      vertex -1.200000e+001  4.300000e+001 -1.300000e+001
      vertex -1.200000e+001  9.500000e+000 -1.450000e+001
      vertex -1.200000e+001  3.350000e+001 -1.450000e+001
    endloop
  endfacet
  facet normal  1.000000e+000  -0.000000e+000  0.000000e+000
    outer loop
      vertex -1.200000e+001  4.300000e+001 -1.300000e+001
      vertex -1.200000e+001  3.350000e+001 -1.450000e+001
      vertex -1.200000e+001  3.550000e+001 -1.900000e+001
    endloop
  endfacet
  facet normal  1.000000e+000  -0.000000e+000  0.000000e+000
    outer loop
      vertex -1.200000e+001  4.300000e+001 -1.300000e+001
      vertex -1.200000e+001  3.550000e+001 -1.900000e+001
      vertex -1.200000e+001  3.656066e+001 -1.943934e+001
    endloop
  endfacet
  facet normal  1.000000e+000  0.000000e+000  0.000000e+000
    outer loop
      vertex -1.200000e+001  3.350000e+001 -1.450000e+001
      vertex -1.200000e+001  3.350000e+001 -2.650000e+001
      vertex -1.200000e+001  3.400000e+001 -2.050000e+001
    endloop
  endfacet
  facet normal  1.000000e+000  0.000000e+000  -0.000000e+000
    outer loop
      vertex -1.200000e+001  3.350000e+001 -1.450000e+001
      vertex -1.200000e+001  3.400000e+001 -2.050000e+001
      vertex -1.200000e+001  3.443934e+001 -1.943934e+001
    endloop
  endfacet
  facet normal  9.999999e-001  0.000000e+000  -0.000000e+000
    outer loop
      vertex -1.200000e+001  3.350000e+001 -1.450000e+001
      vertex -1.200000e+001  3.443934e+001 -1.943934e+001
      vertex -1.200000e+001  3.550000e+001 -1.900000e+001
    endloop
  endfacet
  facet normal  1.000000e+000  0.000000e+000  0.000000e+000
    outer loop
      vertex -1.200000e+001  9.500000e+000 -1.450000e+001
      vertex -1.200000e+001  3.000000e+000 -1.300000e+001
      vertex -1.200000e+001  7.500000e+000 -1.900000e+001
    endloop
  endfacet
  facet normal  9.999999e-001  -0.000000e+000  0.000000e+000
    outer loop
      vertex -1.200000e+001  9.500000e+000 -1.450000e+001
      vertex -1.200000e+001  7.500000e+000 -1.900000e+001
      vertex -1.200000e+001  8.560660e+000 -1.943934e+001
    endloop
  endfacet
  facet normal  9.999999e-001  -0.000000e+000  0.000000e+000
    outer loop
      vertex -1.200000e+001  9.500000e+000 -1.450000e+001
      vertex -1.200000e+001  8.560660e+000 -1.943934e+001
      vertex -1.200000e+001  9.000000e+000 -2.050000e+001
    endloop
  endfacet
  facet normal  1.000000e+000  -0.000000e+000  0.000000e+000
    outer loop
      vertex -1.200000e+001  9.500000e+000 -1.450000e+001
      vertex -1.200000e+001  9.000000e+000 -2.050000e+001
      vertex -1.200000e+001  9.500000e+000 -2.650000e+001
    endloop
  endfacet
  facet normal  1.000000e+000  0.000000e+000  0.000000e+000
    outer loop
      vertex -1.200000e+001  3.000000e+000 -1.300000e+001
      vertex -1.200000e+001  3.000000e+000 -2.800000e+001
      vertex -1.200000e+001  6.000000e+000 -2.050000e+001
    endloop
  endfacet
  facet normal  1.000000e+000  0.000000e+000  -0.000000e+000
    outer loop
      vertex -1.200000e+001  3.000000e+000 -1.300000e+001
      vertex -1.200000e+001  6.000000e+000 -2.050000e+001
      vertex -1.200000e+001  6.439340e+000 -1.943934e+001
    endloop
  endfacet
  facet normal  1.000000e+000  0.000000e+000  -0.000000e+000
    outer loop
      vertex -1.200000e+001  3.000000e+000 -1.300000e+001
      vertex -1.200000e+001  6.439340e+000 -1.943934e+001
      vertex -1.200000e+001  7.500000e+000 -1.900000e+001
    endloop
  endfacet
  facet normal  1.000000e+000  0.000000e+000  0.000000e+000
    outer loop
      vertex -1.200000e+001  3.000000e+000 -1.000000e+001
      vertex -1.200000e+001  1.800000e+001 -1.000000e+001
      vertex -1.200000e+001  3.000000e+000 -5.000000e+000
    endloop
  endfacet
  facet normal  1.000000e+000  0.000000e+000  0.000000e+000
    outer loop
      vertex -1.200000e+001  1.800000e+001 -1.000000e+001
      vertex -1.200000e+001  3.000000e+000  5.000000e+000
      vertex -1.200000e+001  3.000000e+000 -5.000000e+000
    endloop
  endfacet
  facet normal  0.000000e+000  7.071068e-001  7.071068e-001
    outer loop
      vertex -1.200000e+001  3.000000e+000  5.000000e+000
      vertex -1.200000e+001  1.800000e+001 -1.000000e+001
      vertex -1.500000e+001  3.000000e+000  5.000000e+000
    endloop
  endfacet
  facet normal  0.000000e+000  7.071068e-001  7.071068e-001
    outer loop
      vertex -1.500000e+001  3.000000e+000  5.000000e+000
      vertex -1.200000e+001  1.800000e+001 -1.000000e+001
      vertex -1.500000e+001  1.800000e+001 -1.000000e+001
    endloop
  endfacet
  facet normal  0.000000e+000  1.000000e+000  0.000000e+000
    outer loop
      vertex  2.800000e+001  3.000000e+000 -5.000000e+000
      vertex -1.200000e+001  3.000000e+000 -5.000000e+000
      vertex  2.800000e+001  3.000000e+000  5.000000e+000
    endloop
  endfacet
  facet normal  0.000000e+000  1.000000e+000  0.000000e+000
    outer loop
      vertex  2.800000e+001  3.000000e+000  5.000000e+000
      vertex -1.200000e+001  3.000000e+000 -5.000000e+000
      vertex -1.200000e+001  3.000000e+000  5.000000e+000
    endloop
  endfacet
  facet normal  0.000000e+000  1.000000e+000  0.000000e+000
    outer loop
      vertex -1.500000e+001  3.000000e+000 -5.000000e+000
      vertex -2.800000e+001  3.000000e+000 -5.000000e+000
      vertex -1.500000e+001  3.000000e+000  5.000000e+000
    endloop
  endfacet
  facet normal  0.000000e+000  1.000000e+000  0.000000e+000
    outer loop
      vertex -1.500000e+001  3.000000e+000  5.000000e+000
      vertex -2.800000e+001  3.000000e+000 -5.000000e+000
      vertex -2.800000e+001  3.000000e+000  5.000000e+000
    endloop
  endfacet
  facet normal  0.000000e+000  0.000000e+000  1.000000e+000
    outer loop
      vertex  4.000000e+001  1.800000e+001 -1.000000e+001
      vertex  4.000000e+001  4.300000e+001 -1.000000e+001
      vertex  2.800000e+001  4.300000e+001 -1.000000e+001
    endloop
  endfacet
  facet normal  0.000000e+000  0.000000e+000  1.000000e+000
    outer loop
      vertex -1.500000e+001  4.300000e+001 -1.000000e+001
      vertex -1.500000e+001  1.800000e+001 -1.000000e+001
      vertex -1.200000e+001  1.800000e+001 -1.000000e+001
    endloop
  endfacet
  facet normal  0.000000e+000  -0.000000e+000  1.000000e+000
    outer loop
      vertex -1.500000e+001  4.300000e+001 -1.000000e+001
      vertex -1.200000e+001  1.800000e+001 -1.000000e+001
      vertex  2.800000e+001  1.800000e+001 -1.000000e+001
    endloop
  endfacet
  facet normal  0.000000e+000  -0.000000e+000  1.000000e+000
    outer loop
      vertex -1.500000e+001  4.300000e+001 -1.000000e+001
      vertex  2.800000e+001  1.800000e+001 -1.000000e+001
      vertex  4.000000e+001  1.800000e+001 -1.000000e+001
    endloop
  endfacet
  facet normal  0.000000e+000  0.000000e+000  1.000000e+000
    outer loop
      vertex -1.500000e+001  4.300000e+001 -1.000000e+001
      vertex  4.000000e+001  1.800000e+001 -1.000000e+001
      vertex  2.800000e+001  4.300000e+001 -1.000000e+001
    endloop
  endfacet
  facet normal  0.000000e+000  0.000000e+000  1.000000e+000
    outer loop
      vertex -1.200000e+001  1.800000e+001 -1.000000e+001
      vertex -1.200000e+001  3.000000e+000 -1.000000e+001
      vertex  2.800000e+001  1.800000e+001 -1.000000e+001
    endloop
  endfacet
  facet normal  0.000000e+000  0.000000e+000  1.000000e+000
    outer loop
      vertex  2.800000e+001  1.800000e+001 -1.000000e+001
      vertex -1.200000e+001  3.000000e+000 -1.000000e+001
      vertex  2.800000e+001  3.000000e+000 -1.000000e+001
    endloop
  endfacet
  facet normal  -0.000000e+000  0.000000e+000 -1.000000e+000
    outer loop
      vertex -1.200000e+001  4.300000e+001 -1.300000e+001
      vertex  2.800000e+001  4.300000e+001 -1.300000e+001
      vertex -1.200000e+001  3.000000e+000 -1.300000e+001
    endloop
  endfacet
  facet normal  0.000000e+000  0.000000e+000 -1.000000e+000
    outer loop
      vertex -1.200000e+001  3.000000e+000 -1.300000e+001
      vertex  2.800000e+001  4.300000e+001 -1.300000e+001
      vertex  4.000000e+001  4.300000e+001 -1.300000e+001
    endloop
  endfacet
  facet normal  0.000000e+000  0.000000e+000 -1.000000e+000
    outer loop
      vertex -1.200000e+001  3.000000e+000 -1.300000e+001
      vertex  4.000000e+001  4.300000e+001 -1.300000e+001
      vertex  2.800000e+001  3.000000e+000 -1.300000e+001
    endloop
  endfacet
  facet normal  0.000000e+000  0.000000e+000 -1.000000e+000
    outer loop
      vertex  2.800000e+001  3.000000e+000 -1.300000e+001
      vertex  4.000000e+001  4.300000e+001 -1.300000e+001
      vertex  4.000000e+001 -5.500000e+001 -1.300000e+001
    endloop
  endfacet
  facet normal  0.000000e+000  0.000000e+000 -1.000000e+000
    outer loop
      vertex  2.800000e+001  3.000000e+000 -1.300000e+001
      vertex  4.000000e+001 -5.500000e+001 -1.300000e+001
      vertex  2.800000e+001 -1.700000e+001 -1.300000e+001
    endloop
  endfacet
  facet normal  0.000000e+000  -0.000000e+000 -1.000000e+000
    outer loop
      vertex  2.800000e+001 -1.700000e+001 -1.300000e+001
      vertex  4.000000e+001 -5.500000e+001 -1.300000e+001
      vertex -4.000000e+001 -5.500000e+001 -1.300000e+001
    endloop
  endfacet
  facet normal  0.000000e+000  0.000000e+000 -1.000000e+000
    outer loop
      vertex  2.800000e+001 -1.700000e+001 -1.300000e+001
      vertex -4.000000e+001 -5.500000e+001 -1.300000e+001
      vertex -2.800000e+001 -1.700000e+001 -1.300000e+001
    endloop
  endfacet
  facet normal  -0.000000e+000  0.000000e+000 -1.000000e+000
    outer loop
      vertex -2.800000e+001 -1.700000e+001 -1.300000e+001
      vertex -4.000000e+001 -5.500000e+001 -1.300000e+001
      vertex -4.000000e+001  4.300000e+001 -1.300000e+001
    endloop
  endfacet
  facet normal  0.000000e+000  0.000000e+000 -1.000000e+000
    outer loop
      vertex -2.800000e+001 -1.700000e+001 -1.300000e+001
      vertex -4.000000e+001  4.300000e+001 -1.300000e+001
      vertex -2.800000e+001  4.300000e+001 -1.300000e+001
    endloop
  endfacet
  facet normal  0.000000e+000  0.000000e+000  1.000000e+000
    outer loop
      vertex  2.800000e+001 -1.776357e-015  5.000000e+000
      vertex  2.800000e+001  3.000000e+000  5.000000e+000
      vertex -1.200000e+001  3.000000e+000  5.000000e+000
    endloop
  endfacet
  facet normal  -0.000000e+000  0.000000e+000  1.000000e+000
    outer loop
      vertex -1.200000e+001  3.000000e+000  5.000000e+000
      vertex -1.500000e+001  3.000000e+000  5.000000e+000
      vertex  2.800000e+001 -1.776357e-015  5.000000e+000
    endloop
  endfacet
  facet normal  0.000000e+000  0.000000e+000  1.000000e+000
    outer loop
      vertex  2.800000e+001 -1.776357e-015  5.000000e+000
      vertex -1.500000e+001  3.000000e+000  5.000000e+000
      vertex -2.800000e+001  3.000000e+000  5.000000e+000
    endloop
  endfacet
  facet normal  0.000000e+000  0.000000e+000  1.000000e+000
    outer loop
      vertex  2.800000e+001 -1.776357e-015  5.000000e+000
      vertex -2.800000e+001  3.000000e+000  5.000000e+000
      vertex -2.800000e+001 -1.776357e-015  5.000000e+000
    endloop
  endfacet
  facet normal  0.000000e+000  0.000000e+000 -1.000000e+000
    outer loop
      vertex -2.800000e+001  0.000000e+000 -5.000000e+000
      vertex -2.800000e+001  3.000000e+000 -5.000000e+000
      vertex -1.500000e+001  3.000000e+000 -5.000000e+000
    endloop
  endfacet
  facet normal  -0.000000e+000  0.000000e+000 -1.000000e+000
    outer loop
      vertex -1.500000e+001  3.000000e+000 -5.000000e+000
      vertex -1.200000e+001  3.000000e+000 -5.000000e+000
      vertex -2.800000e+001  0.000000e+000 -5.000000e+000
    endloop
  endfacet
  facet normal  0.000000e+000  0.000000e+000 -1.000000e+000
    outer loop
      vertex -2.800000e+001  0.000000e+000 -5.000000e+000
      vertex -1.200000e+001  3.000000e+000 -5.000000e+000
      vertex  2.800000e+001  3.000000e+000 -5.000000e+000
    endloop
  endfacet
  facet normal  0.000000e+000  -0.000000e+000 -1.000000e+000
    outer loop
      vertex -2.800000e+001  0.000000e+000 -5.000000e+000
      vertex  2.800000e+001  3.000000e+000 -5.000000e+000
      vertex  2.800000e+001  0.000000e+000 -5.000000e+000
    endloop
  endfacet
  facet normal  0.000000e+000  0.000000e+000 -1.000000e+000
    outer loop
      vertex -1.200000e+001  3.350000e+001 -1.450000e+001
      vertex -1.200000e+001  9.500000e+000 -1.450000e+001
      vertex -1.500000e+001  3.350000e+001 -1.450000e+001
    endloop
  endfacet
  facet normal  0.000000e+000  0.000000e+000 -1.000000e+000
    outer loop
      vertex -1.500000e+001  3.350000e+001 -1.450000e+001
      vertex -1.200000e+001  9.500000e+000 -1.450000e+001
      vertex -1.500000e+001  9.500000e+000 -1.450000e+001
    endloop
  endfacet
  facet normal  0.000000e+000 -1.000000e+000  -0.000000e+000
    outer loop
      vertex -1.200000e+001  3.350000e+001 -2.650000e+001
      vertex -1.200000e+001  3.350000e+001 -1.450000e+001
      vertex -1.500000e+001  3.350000e+001 -2.650000e+001
    endloop
  endfacet
  facet normal  0.000000e+000 -1.000000e+000  0.000000e+000
    outer loop
      vertex -1.500000e+001  3.350000e+001 -2.650000e+001
      vertex -1.200000e+001  3.350000e+001 -1.450000e+001
      vertex -1.500000e+001  3.350000e+001 -1.450000e+001
    endloop
  endfacet
  facet normal  0.000000e+000  0.000000e+000  1.000000e+000
    outer loop
      vertex -1.200000e+001  9.500000e+000 -2.650000e+001
      vertex -1.200000e+001  3.350000e+001 -2.650000e+001
      vertex -1.500000e+001  9.500000e+000 -2.650000e+001
    endloop
  endfacet
  facet normal  0.000000e+000  0.000000e+000  1.000000e+000
    outer loop
      vertex -1.500000e+001  9.500000e+000 -2.650000e+001
      vertex -1.200000e+001  3.350000e+001 -2.650000e+001
      vertex -1.500000e+001  3.350000e+001 -2.650000e+001
    endloop
  endfacet
  facet normal  0.000000e+000  1.000000e+000  -0.000000e+000
    outer loop
      vertex -1.200000e+001  9.500000e+000 -1.450000e+001
      vertex -1.200000e+001  9.500000e+000 -2.650000e+001
      vertex -1.500000e+001  9.500000e+000 -1.450000e+001
    endloop
  endfacet
  facet normal  0.000000e+000  1.000000e+000  0.000000e+000
    outer loop
      vertex -1.500000e+001  9.500000e+000 -1.450000e+001
      vertex -1.200000e+001  9.500000e+000 -2.650000e+001
      vertex -1.500000e+001  9.500000e+000 -2.650000e+001
    endloop
  endfacet
  facet normal  0.000000e+000 -3.826836e-001 -9.238794e-001
    outer loop
      vertex -1.200000e+001  3.550000e+001 -1.900000e+001
      vertex -1.500000e+001  3.656066e+001 -1.943934e+001
      vertex -1.200000e+001  3.656066e+001 -1.943934e+001
    endloop
  endfacet
  facet normal  -0.000000e+000 -9.238797e-001 -3.826828e-001
    outer loop
      vertex -1.200000e+001  3.656066e+001 -1.943934e+001
      vertex -1.500000e+001  3.656066e+001 -1.943934e+001
      vertex -1.500000e+001  3.700000e+001 -2.050000e+001
    endloop
  endfacet
  facet normal  0.000000e+000 -9.238797e-001 -3.826828e-001
    outer loop
      vertex -1.200000e+001  3.656066e+001 -1.943934e+001
      vertex -1.500000e+001  3.700000e+001 -2.050000e+001
      vertex -1.200000e+001  3.700000e+001 -2.050000e+001
    endloop
  endfacet
  facet normal  -0.000000e+000 -3.826836e-001 -9.238794e-001
    outer loop
      vertex -1.500000e+001  3.656066e+001 -1.943934e+001
      vertex -1.200000e+001  3.550000e+001 -1.900000e+001
      vertex -1.500000e+001  3.550000e+001 -1.900000e+001
    endloop
  endfacet
  facet normal  0.000000e+000  3.826836e-001 -9.238794e-001
    outer loop
      vertex -1.500000e+001  3.550000e+001 -1.900000e+001
      vertex -1.200000e+001  3.550000e+001 -1.900000e+001
      vertex -1.200000e+001  3.443934e+001 -1.943934e+001
    endloop
  endfacet
  facet normal  0.000000e+000  3.826836e-001 -9.238794e-001
    outer loop
      vertex -1.500000e+001  3.550000e+001 -1.900000e+001
      vertex -1.200000e+001  3.443934e+001 -1.943934e+001
      vertex -1.500000e+001  3.443934e+001 -1.943934e+001
    endloop
  endfacet
  facet normal  0.000000e+000  9.238797e-001 -3.826828e-001
    outer loop
      vertex -1.500000e+001  3.443934e+001 -1.943934e+001
      vertex -1.200000e+001  3.443934e+001 -1.943934e+001
      vertex -1.200000e+001  3.400000e+001 -2.050000e+001
    endloop
  endfacet
  facet normal  0.000000e+000  9.238797e-001 -3.826828e-001
    outer loop
      vertex -1.500000e+001  3.443934e+001 -1.943934e+001
      vertex -1.200000e+001  3.400000e+001 -2.050000e+001
      vertex -1.500000e+001  3.400000e+001 -2.050000e+001
    endloop
  endfacet
  facet normal  -0.000000e+000  3.826836e-001  9.238794e-001
    outer loop
      vertex -1.200000e+001  3.550000e+001 -2.200000e+001
      vertex -1.500000e+001  3.443934e+001 -2.156066e+001
      vertex -1.200000e+001  3.443934e+001 -2.156066e+001
    endloop
  endfacet
  facet normal  0.000000e+000  9.238797e-001  3.826828e-001
    outer loop
      vertex -1.200000e+001  3.443934e+001 -2.156066e+001
      vertex -1.500000e+001  3.443934e+001 -2.156066e+001
      vertex -1.500000e+001  3.400000e+001 -2.050000e+001
    endloop
  endfacet
  facet normal  -0.000000e+000  9.238797e-001  3.826828e-001
    outer loop
      vertex -1.200000e+001  3.443934e+001 -2.156066e+001
      vertex -1.500000e+001  3.400000e+001 -2.050000e+001
      vertex -1.200000e+001  3.400000e+001 -2.050000e+001
    endloop
  endfacet
  facet normal  0.000000e+000  3.826836e-001  9.238794e-001
    outer loop
      vertex -1.500000e+001  3.443934e+001 -2.156066e+001
      vertex -1.200000e+001  3.550000e+001 -2.200000e+001
      vertex -1.500000e+001  3.550000e+001 -2.200000e+001
    endloop
  endfacet
  facet normal  0.000000e+000 -3.826836e-001  9.238794e-001
    outer loop
      vertex -1.500000e+001  3.550000e+001 -2.200000e+001
      vertex -1.200000e+001  3.550000e+001 -2.200000e+001
      vertex -1.200000e+001  3.656066e+001 -2.156066e+001
    endloop
  endfacet
  facet normal  0.000000e+000 -3.826836e-001  9.238794e-001
    outer loop
      vertex -1.500000e+001  3.550000e+001 -2.200000e+001
      vertex -1.200000e+001  3.656066e+001 -2.156066e+001
      vertex -1.500000e+001  3.656066e+001 -2.156066e+001
    endloop
  endfacet
  facet normal  0.000000e+000 -9.238797e-001  3.826828e-001
    outer loop
      vertex -1.500000e+001  3.656066e+001 -2.156066e+001
      vertex -1.200000e+001  3.656066e+001 -2.156066e+001
      vertex -1.200000e+001  3.700000e+001 -2.050000e+001
    endloop
  endfacet
  facet normal  0.000000e+000 -9.238797e-001  3.826828e-001
    outer loop
      vertex -1.500000e+001  3.656066e+001 -2.156066e+001
      vertex -1.200000e+001  3.700000e+001 -2.050000e+001
      vertex -1.500000e+001  3.700000e+001 -2.050000e+001
    endloop
  endfacet
  facet normal  0.000000e+000 -3.826839e-001 -9.238793e-001
    outer loop
      vertex -1.200000e+001  7.500000e+000 -1.900000e+001
      vertex -1.500000e+001  8.560660e+000 -1.943934e+001
      vertex -1.200000e+001  8.560660e+000 -1.943934e+001
    endloop
  endfacet
  facet normal  -0.000000e+000 -9.238795e-001 -3.826835e-001
    outer loop
      vertex -1.200000e+001  8.560660e+000 -1.943934e+001
      vertex -1.500000e+001  8.560660e+000 -1.943934e+001
      vertex -1.500000e+001  9.000000e+000 -2.050000e+001
    endloop
  endfacet
  facet normal  0.000000e+000 -9.238795e-001 -3.826835e-001
    outer loop
      vertex -1.200000e+001  8.560660e+000 -1.943934e+001
      vertex -1.500000e+001  9.000000e+000 -2.050000e+001
      vertex -1.200000e+001  9.000000e+000 -2.050000e+001
    endloop
  endfacet
  facet normal  -0.000000e+000 -3.826839e-001 -9.238793e-001
    outer loop
      vertex -1.500000e+001  8.560660e+000 -1.943934e+001
      vertex -1.200000e+001  7.500000e+000 -1.900000e+001
      vertex -1.500000e+001  7.500000e+000 -1.900000e+001
    endloop
  endfacet
  facet normal  0.000000e+000  3.826839e-001 -9.238793e-001
    outer loop
      vertex -1.500000e+001  7.500000e+000 -1.900000e+001
      vertex -1.200000e+001  7.500000e+000 -1.900000e+001
      vertex -1.200000e+001  6.439340e+000 -1.943934e+001
    endloop
  endfacet
  facet normal  0.000000e+000  3.826839e-001 -9.238793e-001
    outer loop
      vertex -1.500000e+001  7.500000e+000 -1.900000e+001
      vertex -1.200000e+001  6.439340e+000 -1.943934e+001
      vertex -1.500000e+001  6.439340e+000 -1.943934e+001
    endloop
  endfacet
  facet normal  0.000000e+000  9.238795e-001 -3.826835e-001
    outer loop
      vertex -1.500000e+001  6.439340e+000 -1.943934e+001
      vertex -1.200000e+001  6.439340e+000 -1.943934e+001
      vertex -1.200000e+001  6.000000e+000 -2.050000e+001
    endloop
  endfacet
  facet normal  0.000000e+000  9.238795e-001 -3.826835e-001
    outer loop
      vertex -1.500000e+001  6.439340e+000 -1.943934e+001
      vertex -1.200000e+001  6.000000e+000 -2.050000e+001
      vertex -1.500000e+001  6.000000e+000 -2.050000e+001
    endloop
  endfacet
  facet normal  -0.000000e+000  3.826839e-001  9.238793e-001
    outer loop
      vertex -1.200000e+001  7.500000e+000 -2.200000e+001
      vertex -1.500000e+001  6.439340e+000 -2.156066e+001
      vertex -1.200000e+001  6.439340e+000 -2.156066e+001
    endloop
  endfacet
  facet normal  0.000000e+000  9.238795e-001  3.826835e-001
    outer loop
      vertex -1.200000e+001  6.439340e+000 -2.156066e+001
      vertex -1.500000e+001  6.439340e+000 -2.156066e+001
      vertex -1.500000e+001  6.000000e+000 -2.050000e+001
    endloop
  endfacet
  facet normal  -0.000000e+000  9.238795e-001  3.826835e-001
    outer loop
      vertex -1.200000e+001  6.439340e+000 -2.156066e+001
      vertex -1.500000e+001  6.000000e+000 -2.050000e+001
      vertex -1.200000e+001  6.000000e+000 -2.050000e+001
    endloop
  endfacet
  facet normal  0.000000e+000  3.826839e-001  9.238793e-001
    outer loop
      vertex -1.500000e+001  6.439340e+000 -2.156066e+001
      vertex -1.200000e+001  7.500000e+000 -2.200000e+001
      vertex -1.500000e+001  7.500000e+000 -2.200000e+001
    endloop
  endfacet
  facet normal  0.000000e+000 -3.826839e-001  9.238793e-001
    outer loop
      vertex -1.500000e+001  7.500000e+000 -2.200000e+001
      vertex -1.200000e+001  7.500000e+000 -2.200000e+001
      vertex -1.200000e+001  8.560660e+000 -2.156066e+001
    endloop
  endfacet
  facet normal  0.000000e+000 -3.826839e-001  9.238793e-001
    outer loop
      vertex -1.500000e+001  7.500000e+000 -2.200000e+001
      vertex -1.200000e+001  8.560660e+000 -2.156066e+001
      vertex -1.500000e+001  8.560660e+000 -2.156066e+001
    endloop
  endfacet
  facet normal  0.000000e+000 -9.238795e-001  3.826835e-001
    outer loop
      vertex -1.500000e+001  8.560660e+000 -2.156066e+001
      vertex -1.200000e+001  8.560660e+000 -2.156066e+001
      vertex -1.200000e+001  9.000000e+000 -2.050000e+001
    endloop
  endfacet
  facet normal  0.000000e+000 -9.238795e-001  3.826835e-001
    outer loop
      vertex -1.500000e+001  8.560660e+000 -2.156066e+001
      vertex -1.200000e+001  9.000000e+000 -2.050000e+001
      vertex -1.500000e+001  9.000000e+000 -2.050000e+001
    endloop
  endfacet
  facet normal -1.000000e+000  0.000000e+000  0.000000e+000
    outer loop
      vertex  2.800000e+001  3.000000e+000 -5.000000e+000
      vertex  2.800000e+001  1.800000e+001 -1.000000e+001
      vertex  2.800000e+001  3.000000e+000 -1.000000e+001
    endloop
  endfacet
  facet normal -1.000000e+000  0.000000e+000  0.000000e+000
    outer loop
      vertex  2.800000e+001  3.000000e+000 -5.000000e+000
      vertex  2.800000e+001  3.000000e+000  5.000000e+000
      vertex  2.800000e+001  1.800000e+001 -1.000000e+001
    endloop
  endfacet
  facet normal -1.000000e+000  0.000000e+000  0.000000e+000
    outer loop
      vertex  2.800000e+001 -1.776357e-015  5.000000e+000
      vertex  2.800000e+001 -1.700000e+001 -1.000000e+001
      vertex  2.800000e+001 -2.600000e+001 -1.000000e+001
    endloop
  endfacet
  facet normal -1.000000e+000  0.000000e+000  0.000000e+000
    outer loop
      vertex  2.800000e+001 -1.700000e+001 -1.300000e+001
      vertex  2.800000e+001 -1.700000e+001 -1.000000e+001
      vertex  2.800000e+001 -1.776357e-015  5.000000e+000
    endloop
  endfacet
  facet normal -1.000000e+000  0.000000e+000  -0.000000e+000
    outer loop
      vertex  2.800000e+001 -1.700000e+001 -1.300000e+001
      vertex  2.800000e+001 -1.776357e-015  5.000000e+000
      vertex  2.800000e+001  0.000000e+000 -5.000000e+000
    endloop
  endfacet
  facet normal -1.000000e+000  0.000000e+000  -0.000000e+000
    outer loop
      vertex  2.800000e+001 -1.700000e+001 -1.300000e+001
      vertex  2.800000e+001  0.000000e+000 -5.000000e+000
      vertex  2.800000e+001  3.000000e+000 -5.000000e+000
    endloop
  endfacet
  facet normal -1.000000e+000  0.000000e+000  -0.000000e+000
    outer loop
      vertex  2.800000e+001 -1.700000e+001 -1.300000e+001
      vertex  2.800000e+001  3.000000e+000 -5.000000e+000
      vertex  2.800000e+001  3.000000e+000 -1.000000e+001
    endloop
  endfacet
  facet normal -1.000000e+000  0.000000e+000  -0.000000e+000
    outer loop
      vertex  2.800000e+001 -1.700000e+001 -1.300000e+001
      vertex  2.800000e+001  3.000000e+000 -1.000000e+001
      vertex  2.800000e+001  3.000000e+000 -1.300000e+001
    endloop
  endfacet
  facet normal  0.000000e+000  7.071068e-001  7.071068e-001
    outer loop
      vertex  2.800000e+001  3.000000e+000  5.000000e+000
      vertex  4.000000e+001  3.000000e+000  5.000000e+000
      vertex  2.800000e+001  1.800000e+001 -1.000000e+001
    endloop
  endfacet
  facet normal  -0.000000e+000  7.071068e-001  7.071068e-001
    outer loop
      vertex  2.800000e+001  1.800000e+001 -1.000000e+001
      vertex  4.000000e+001  3.000000e+000  5.000000e+000
      vertex  4.000000e+001  1.800000e+001 -1.000000e+001
    endloop
  endfacet
  facet normal  0.000000e+000 -1.000000e+000  0.000000e+000
    outer loop
      vertex -3.500000e+001  0.000000e+000  1.250000e+001
      vertex -3.393934e+001  0.000000e+000  1.206066e+001
      vertex -2.800000e+001  0.000000e+000  1.500000e+001
    endloop
  endfacet
  facet normal  5.301718e-016 -1.000000e+000  7.105427e-016
    outer loop
      vertex -4.000000e+001  0.000000e+000  1.500000e+001
      vertex -4.000000e+001 -7.105427e-015  5.000000e+000
      vertex -3.606066e+001  0.000000e+000  1.206066e+001
    endloop
  endfacet
  facet normal  0.000000e+000 -1.000000e+000  0.000000e+000
    outer loop
      vertex -4.000000e+001  0.000000e+000  1.500000e+001
      vertex -3.606066e+001  0.000000e+000  1.206066e+001
      vertex -3.500000e+001  0.000000e+000  1.250000e+001
    endloop
  endfacet
  facet normal  0.000000e+000 -1.000000e+000  0.000000e+000
    outer loop
      vertex -4.000000e+001  0.000000e+000  1.500000e+001
      vertex -3.500000e+001  0.000000e+000  1.250000e+001
      vertex -2.800000e+001  0.000000e+000  1.500000e+001
    endloop
  endfacet
  facet normal -8.791073e-017 -1.000000e+000  1.776357e-016
    outer loop
      vertex -2.800000e+001 -1.776357e-015  5.000000e+000
      vertex -2.800000e+001  0.000000e+000  1.500000e+001
      vertex -3.393934e+001  0.000000e+000  1.206066e+001
    endloop
  endfacet
  facet normal -5.892267e-016 -1.000000e+000 -2.440650e-016
    outer loop
      vertex -2.800000e+001 -1.776357e-015  5.000000e+000
      vertex -3.393934e+001  0.000000e+000  1.206066e+001
      vertex -3.350000e+001  0.000000e+000  1.100000e+001
    endloop
  endfacet
  facet normal -2.224541e-016 -1.000000e+000  9.214324e-017
    outer loop
      vertex -2.800000e+001 -1.776357e-015  5.000000e+000
      vertex -3.350000e+001  0.000000e+000  1.100000e+001
      vertex -3.393934e+001  0.000000e+000  9.939340e+000
    endloop
  endfacet
  facet normal -9.943792e-017 -9.999999e-001  2.400647e-016
    outer loop
      vertex -2.800000e+001 -1.776357e-015  5.000000e+000
      vertex -3.393934e+001  0.000000e+000  9.939340e+000
      vertex -3.500000e+001  0.000000e+000  9.500000e+000
    endloop
  endfacet
  facet normal  4.440892e-016 -1.000000e+000  1.085551e-015
    outer loop
      vertex -2.800000e+001 -1.776357e-015  5.000000e+000
      vertex -3.500000e+001  0.000000e+000  9.500000e+000
      vertex -4.000000e+001 -7.105427e-015  5.000000e+000
    endloop
  endfacet
  facet normal  4.478970e-016 -1.000000e+000  1.081321e-015
    outer loop
      vertex -4.000000e+001 -7.105427e-015  5.000000e+000
      vertex -3.500000e+001  0.000000e+000  9.500000e+000
      vertex -3.606066e+001  0.000000e+000  9.939340e+000
    endloop
  endfacet
  facet normal  1.187152e-015 -1.000000e+000  4.917329e-016
    outer loop
      vertex -4.000000e+001 -7.105427e-015  5.000000e+000
      vertex -3.606066e+001  0.000000e+000  9.939340e+000
      vertex -3.650000e+001  0.000000e+000  1.100000e+001
    endloop
  endfacet
  facet normal  7.002315e-015 -1.000000e+000 -2.900446e-015
    outer loop
      vertex -4.000000e+001 -7.105427e-015  5.000000e+000
      vertex -3.650000e+001  0.000000e+000  1.100000e+001
      vertex -3.606066e+001  0.000000e+000  1.206066e+001
    endloop
  endfacet
  facet normal  0.000000e+000  1.000000e+000  -0.000000e+000
    outer loop
      vertex -2.800000e+001  3.000000e+000  1.500000e+001
      vertex -3.393934e+001  3.000000e+000  1.206066e+001
      vertex -3.500000e+001  3.000000e+000  1.250000e+001
    endloop
  endfacet
  facet normal  0.000000e+000  1.000000e+000  0.000000e+000
    outer loop
      vertex -4.000000e+001  3.000000e+000  1.500000e+001
      vertex -2.800000e+001  3.000000e+000  1.500000e+001
      vertex -3.500000e+001  3.000000e+000  1.250000e+001
    endloop
  endfacet
  facet normal  0.000000e+000  1.000000e+000  0.000000e+000
    outer loop
      vertex -4.000000e+001  3.000000e+000  1.500000e+001
      vertex -3.500000e+001  3.000000e+000  1.250000e+001
      vertex -3.606066e+001  3.000000e+000  1.206066e+001
    endloop
  endfacet
  facet normal  0.000000e+000  1.000000e+000  0.000000e+000
    outer loop
      vertex -4.000000e+001  3.000000e+000  1.500000e+001
      vertex -3.606066e+001  3.000000e+000  1.206066e+001
      vertex -4.000000e+001  3.000000e+000  5.000000e+000
    endloop
  endfacet
  facet normal  0.000000e+000  1.000000e+000  0.000000e+000
    outer loop
      vertex -2.800000e+001  3.000000e+000  5.000000e+000
      vertex -4.000000e+001  3.000000e+000  5.000000e+000
      vertex -3.500000e+001  3.000000e+000  9.500000e+000
    endloop
  endfacet
  facet normal  -0.000000e+000  9.999999e-001  0.000000e+000
    outer loop
      vertex -2.800000e+001  3.000000e+000  5.000000e+000
      vertex -3.500000e+001  3.000000e+000  9.500000e+000
      vertex -3.393934e+001  3.000000e+000  9.939340e+000
    endloop
  endfacet
  facet normal  -0.000000e+000  1.000000e+000  0.000000e+000
    outer loop
      vertex -2.800000e+001  3.000000e+000  5.000000e+000
      vertex -3.393934e+001  3.000000e+000  9.939340e+000
      vertex -3.350000e+001  3.000000e+000  1.100000e+001
    endloop
  endfacet
  facet normal  -0.000000e+000  1.000000e+000  -0.000000e+000
    outer loop
      vertex -2.800000e+001  3.000000e+000  5.000000e+000
      vertex -3.350000e+001  3.000000e+000  1.100000e+001
      vertex -3.393934e+001  3.000000e+000  1.206066e+001
    endloop
  endfacet
  facet normal  -0.000000e+000  1.000000e+000  0.000000e+000
    outer loop
      vertex -2.800000e+001  3.000000e+000  5.000000e+000
      vertex -3.393934e+001  3.000000e+000  1.206066e+001
      vertex -2.800000e+001  3.000000e+000  1.500000e+001
    endloop
  endfacet
  facet normal  0.000000e+000  1.000000e+000  0.000000e+000
    outer loop
      vertex -4.000000e+001  3.000000e+000  5.000000e+000
      vertex -3.606066e+001  3.000000e+000  1.206066e+001
      vertex -3.650000e+001  3.000000e+000  1.100000e+001
    endloop
  endfacet
  facet normal  0.000000e+000  1.000000e+000  0.000000e+000
    outer loop
      vertex -4.000000e+001  3.000000e+000  5.000000e+000
      vertex -3.650000e+001  3.000000e+000  1.100000e+001
      vertex -3.606066e+001  3.000000e+000  9.939340e+000
    endloop
  endfacet
  facet normal  0.000000e+000  1.000000e+000  0.000000e+000
    outer loop
      vertex -4.000000e+001  3.000000e+000  5.000000e+000
      vertex -3.606066e+001  3.000000e+000  9.939340e+000
      vertex -3.500000e+001  3.000000e+000  9.500000e+000
    endloop
  endfacet
  facet normal  0.000000e+000 -1.000000e+000  0.000000e+000
    outer loop
      vertex  3.500000e+001  0.000000e+000  1.250000e+001
      vertex  3.606066e+001  0.000000e+000  1.206066e+001
      vertex  4.000000e+001  0.000000e+000  1.500000e+001
    endloop
  endfacet
  facet normal  8.791073e-017 -1.000000e+000  1.776357e-016
    outer loop
      vertex  2.800000e+001  0.000000e+000  1.500000e+001
      vertex  2.800000e+001 -1.776357e-015  5.000000e+000
      vertex  3.393934e+001  0.000000e+000  1.206066e+001
    endloop
  endfacet
  facet normal  0.000000e+000 -1.000000e+000  0.000000e+000
    outer loop
      vertex  2.800000e+001  0.000000e+000  1.500000e+001
      vertex  3.393934e+001  0.000000e+000  1.206066e+001
      vertex  3.500000e+001  0.000000e+000  1.250000e+001
    endloop
  endfacet
  facet normal  0.000000e+000 -1.000000e+000  0.000000e+000
    outer loop
      vertex  2.800000e+001  0.000000e+000  1.500000e+001
      vertex  3.500000e+001  0.000000e+000  1.250000e+001
      vertex  4.000000e+001  0.000000e+000  1.500000e+001
    endloop
  endfacet
  facet normal -5.301718e-016 -1.000000e+000  7.105427e-016
    outer loop
      vertex  4.000000e+001 -7.105427e-015  5.000000e+000
      vertex  4.000000e+001  0.000000e+000  1.500000e+001
      vertex  3.606066e+001  0.000000e+000  1.206066e+001
    endloop
  endfacet
  facet normal -7.002315e-015 -1.000000e+000 -2.900446e-015
    outer loop
      vertex  4.000000e+001 -7.105427e-015  5.000000e+000
      vertex  3.606066e+001  0.000000e+000  1.206066e+001
      vertex  3.650000e+001  0.000000e+000  1.100000e+001
    endloop
  endfacet
  facet normal -1.187152e-015 -1.000000e+000  4.917329e-016
    outer loop
      vertex  4.000000e+001 -7.105427e-015  5.000000e+000
      vertex  3.650000e+001  0.000000e+000  1.100000e+001
      vertex  3.606066e+001  0.000000e+000  9.939340e+000
    endloop
  endfacet
  facet normal -4.478970e-016 -1.000000e+000  1.081321e-015
    outer loop
      vertex  4.000000e+001 -7.105427e-015  5.000000e+000
      vertex  3.606066e+001  0.000000e+000  9.939340e+000
      vertex  3.500000e+001  0.000000e+000  9.500000e+000
    endloop
  endfacet
  facet normal -4.440892e-016 -1.000000e+000  1.085551e-015
    outer loop
      vertex  4.000000e+001 -7.105427e-015  5.000000e+000
      vertex  3.500000e+001  0.000000e+000  9.500000e+000
      vertex  2.800000e+001 -1.776357e-015  5.000000e+000
    endloop
  endfacet
  facet normal  9.943792e-017 -9.999999e-001  2.400647e-016
    outer loop
      vertex  2.800000e+001 -1.776357e-015  5.000000e+000
      vertex  3.500000e+001  0.000000e+000  9.500000e+000
      vertex  3.393934e+001  0.000000e+000  9.939340e+000
    endloop
  endfacet
  facet normal  2.224541e-016 -1.000000e+000  9.214324e-017
    outer loop
      vertex  2.800000e+001 -1.776357e-015  5.000000e+000
      vertex  3.393934e+001  0.000000e+000  9.939340e+000
      vertex  3.350000e+001  0.000000e+000  1.100000e+001
    endloop
  endfacet
  facet normal  5.892267e-016 -1.000000e+000 -2.440650e-016
    outer loop
      vertex  2.800000e+001 -1.776357e-015  5.000000e+000
      vertex  3.350000e+001  0.000000e+000  1.100000e+001
      vertex  3.393934e+001  0.000000e+000  1.206066e+001
    endloop
  endfacet
  facet normal  0.000000e+000  1.000000e+000  -0.000000e+000
    outer loop
      vertex  4.000000e+001  3.000000e+000  1.500000e+001
      vertex  3.606066e+001  3.000000e+000  1.206066e+001
      vertex  3.500000e+001  3.000000e+000  1.250000e+001
    endloop
  endfacet
  facet normal  0.000000e+000  1.000000e+000  0.000000e+000
    outer loop
      vertex  2.800000e+001  3.000000e+000  1.500000e+001
      vertex  4.000000e+001  3.000000e+000  1.500000e+001
      vertex  3.500000e+001  3.000000e+000  1.250000e+001
    endloop
  endfacet
  facet normal  0.000000e+000  1.000000e+000  0.000000e+000
    outer loop
      vertex  2.800000e+001  3.000000e+000  1.500000e+001
      vertex  3.500000e+001  3.000000e+000  1.250000e+001
      vertex  3.393934e+001  3.000000e+000  1.206066e+001
    endloop
  endfacet
  facet normal  0.000000e+000  1.000000e+000  0.000000e+000
    outer loop
      vertex  2.800000e+001  3.000000e+000  1.500000e+001
      vertex  3.393934e+001  3.000000e+000  1.206066e+001
      vertex  2.800000e+001  3.000000e+000  5.000000e+000
    endloop
  endfacet
  facet normal  0.000000e+000  1.000000e+000  0.000000e+000
    outer loop
      vertex  4.000000e+001  3.000000e+000  5.000000e+000
      vertex  2.800000e+001  3.000000e+000  5.000000e+000
      vertex  3.500000e+001  3.000000e+000  9.500000e+000
    endloop
  endfacet
  facet normal  -0.000000e+000  1.000000e+000  0.000000e+000
    outer loop
      vertex  4.000000e+001  3.000000e+000  5.000000e+000
      vertex  3.500000e+001  3.000000e+000  9.500000e+000
      vertex  3.606066e+001  3.000000e+000  9.939340e+000
    endloop
  endfacet
  facet normal  -0.000000e+000  1.000000e+000  0.000000e+000
    outer loop
      vertex  4.000000e+001  3.000000e+000  5.000000e+000
      vertex  3.606066e+001  3.000000e+000  9.939340e+000
      vertex  3.650000e+001  3.000000e+000  1.100000e+001
    endloop
  endfacet
  facet normal  -0.000000e+000  1.000000e+000  -0.000000e+000
    outer loop
      vertex  4.000000e+001  3.000000e+000  5.000000e+000
      vertex  3.650000e+001  3.000000e+000  1.100000e+001
      vertex  3.606066e+001  3.000000e+000  1.206066e+001
    endloop
  endfacet
  facet normal  -0.000000e+000  1.000000e+000  0.000000e+000
    outer loop
      vertex  4.000000e+001  3.000000e+000  5.000000e+000
      vertex  3.606066e+001  3.000000e+000  1.206066e+001
      vertex  4.000000e+001  3.000000e+000  1.500000e+001
    endloop
  endfacet
  facet normal  0.000000e+000  1.000000e+000  0.000000e+000
    outer loop
      vertex  2.800000e+001  3.000000e+000  5.000000e+000
      vertex  3.393934e+001  3.000000e+000  1.206066e+001
      vertex  3.350000e+001  3.000000e+000  1.100000e+001
    endloop
  endfacet
  facet normal  0.000000e+000  1.000000e+000  0.000000e+000
    outer loop
      vertex  2.800000e+001  3.000000e+000  5.000000e+000
      vertex  3.350000e+001  3.000000e+000  1.100000e+001
      vertex  3.393934e+001  3.000000e+000  9.939340e+000
    endloop
  endfacet
  facet normal  0.000000e+000  9.999999e-001  0.000000e+000
    outer loop
      vertex  2.800000e+001  3.000000e+000  5.000000e+000
      vertex  3.393934e+001  3.000000e+000  9.939340e+000
      vertex  3.500000e+001  3.000000e+000  9.500000e+000
    endloop
  endfacet
  facet normal -3.826829e-001  -0.000000e+000 -9.238797e-001
    outer loop
      vertex -3.500000e+001  0.000000e+000  1.250000e+001
      vertex -3.393934e+001  3.000000e+000  1.206066e+001
      vertex -3.393934e+001  0.000000e+000  1.206066e+001
    endloop
  endfacet
  facet normal -9.238799e-001  0.000000e+000 -3.826825e-001
    outer loop
      vertex -3.393934e+001  0.000000e+000  1.206066e+001
      vertex -3.393934e+001  3.000000e+000  1.206066e+001
      vertex -3.350000e+001  3.000000e+000  1.100000e+001
    endloop
  endfacet
  facet normal -9.238799e-001  -0.000000e+000 -3.826825e-001
    outer loop
      vertex -3.393934e+001  0.000000e+000  1.206066e+001
      vertex -3.350000e+001  3.000000e+000  1.100000e+001
      vertex -3.350000e+001  0.000000e+000  1.100000e+001
    endloop
  endfacet
  facet normal -3.826829e-001  0.000000e+000 -9.238797e-001
    outer loop
      vertex -3.393934e+001  3.000000e+000  1.206066e+001
      vertex -3.500000e+001  0.000000e+000  1.250000e+001
      vertex -3.500000e+001  3.000000e+000  1.250000e+001
    endloop
  endfacet
  facet normal  3.826829e-001  0.000000e+000 -9.238797e-001
    outer loop
      vertex -3.500000e+001  3.000000e+000  1.250000e+001
      vertex -3.500000e+001  0.000000e+000  1.250000e+001
      vertex -3.606066e+001  0.000000e+000  1.206066e+001
    endloop
  endfacet
  facet normal  3.826829e-001  0.000000e+000 -9.238797e-001
    outer loop
      vertex -3.500000e+001  3.000000e+000  1.250000e+001
      vertex -3.606066e+001  0.000000e+000  1.206066e+001
      vertex -3.606066e+001  3.000000e+000  1.206066e+001
    endloop
  endfacet
  facet normal  9.238799e-001  0.000000e+000 -3.826825e-001
    outer loop
      vertex -3.606066e+001  3.000000e+000  1.206066e+001
      vertex -3.606066e+001  0.000000e+000  1.206066e+001
      vertex -3.650000e+001  0.000000e+000  1.100000e+001
    endloop
  endfacet
  facet normal  9.238799e-001  0.000000e+000 -3.826825e-001
    outer loop
      vertex -3.606066e+001  3.000000e+000  1.206066e+001
      vertex -3.650000e+001  0.000000e+000  1.100000e+001
      vertex -3.650000e+001  3.000000e+000  1.100000e+001
    endloop
  endfacet
  facet normal  3.826829e-001  0.000000e+000  9.238797e-001
    outer loop
      vertex -3.500000e+001  0.000000e+000  9.500000e+000
      vertex -3.606066e+001  3.000000e+000  9.939340e+000
      vertex -3.606066e+001  0.000000e+000  9.939340e+000
    endloop
  endfacet
  facet normal  9.238799e-001  -0.000000e+000  3.826825e-001
    outer loop
      vertex -3.606066e+001  0.000000e+000  9.939340e+000
      vertex -3.606066e+001  3.000000e+000  9.939340e+000
      vertex -3.650000e+001  3.000000e+000  1.100000e+001
    endloop
  endfacet
  facet normal  9.238799e-001  0.000000e+000  3.826825e-001
    outer loop
      vertex -3.606066e+001  0.000000e+000  9.939340e+000
      vertex -3.650000e+001  3.000000e+000  1.100000e+001
      vertex -3.650000e+001  0.000000e+000  1.100000e+001
    endloop
  endfacet
  facet normal  3.826829e-001  -0.000000e+000  9.238797e-001
    outer loop
      vertex -3.606066e+001  3.000000e+000  9.939340e+000
      vertex -3.500000e+001  0.000000e+000  9.500000e+000
      vertex -3.500000e+001  3.000000e+000  9.500000e+000
    endloop
  endfacet
  facet normal -3.826829e-001  0.000000e+000  9.238797e-001
    outer loop
      vertex -3.500000e+001  3.000000e+000  9.500000e+000
      vertex -3.500000e+001  0.000000e+000  9.500000e+000
      vertex -3.393934e+001  0.000000e+000  9.939340e+000
    endloop
  endfacet
  facet normal -3.826829e-001  0.000000e+000  9.238797e-001
    outer loop
      vertex -3.500000e+001  3.000000e+000  9.500000e+000
      vertex -3.393934e+001  0.000000e+000  9.939340e+000
      vertex -3.393934e+001  3.000000e+000  9.939340e+000
    endloop
  endfacet
  facet normal -9.238799e-001  0.000000e+000  3.826825e-001
    outer loop
      vertex -3.393934e+001  3.000000e+000  9.939340e+000
      vertex -3.393934e+001  0.000000e+000  9.939340e+000
      vertex -3.350000e+001  0.000000e+000  1.100000e+001
    endloop
  endfacet
  facet normal -9.238799e-001  0.000000e+000  3.826825e-001
    outer loop
      vertex -3.393934e+001  3.000000e+000  9.939340e+000
      vertex -3.350000e+001  0.000000e+000  1.100000e+001
      vertex -3.350000e+001  3.000000e+000  1.100000e+001
    endloop
  endfacet
  facet normal  3.826829e-001  0.000000e+000  9.238797e-001
    outer loop
      vertex  3.500000e+001  0.000000e+000  9.500000e+000
      vertex  3.393934e+001  3.000000e+000  9.939340e+000
      vertex  3.393934e+001  0.000000e+000  9.939340e+000
    endloop
  endfacet
  facet normal  9.238799e-001  -0.000000e+000  3.826825e-001
    outer loop
      vertex  3.393934e+001  0.000000e+000  9.939340e+000
      vertex  3.393934e+001  3.000000e+000  9.939340e+000
      vertex  3.350000e+001  3.000000e+000  1.100000e+001
    endloop
  endfacet
  facet normal  9.238799e-001  0.000000e+000  3.826825e-001
    outer loop
      vertex  3.393934e+001  0.000000e+000  9.939340e+000
      vertex  3.350000e+001  3.000000e+000  1.100000e+001
      vertex  3.350000e+001  0.000000e+000  1.100000e+001
    endloop
  endfacet
  facet normal  3.826829e-001  -0.000000e+000  9.238797e-001
    outer loop
      vertex  3.393934e+001  3.000000e+000  9.939340e+000
      vertex  3.500000e+001  0.000000e+000  9.500000e+000
      vertex  3.500000e+001  3.000000e+000  9.500000e+000
    endloop
  endfacet
  facet normal -3.826829e-001  0.000000e+000  9.238797e-001
    outer loop
      vertex  3.500000e+001  3.000000e+000  9.500000e+000
      vertex  3.500000e+001  0.000000e+000  9.500000e+000
      vertex  3.606066e+001  0.000000e+000  9.939340e+000
    endloop
  endfacet
  facet normal -3.826829e-001  0.000000e+000  9.238797e-001
    outer loop
      vertex  3.500000e+001  3.000000e+000  9.500000e+000
      vertex  3.606066e+001  0.000000e+000  9.939340e+000
      vertex  3.606066e+001  3.000000e+000  9.939340e+000
    endloop
  endfacet
  facet normal -9.238799e-001  0.000000e+000  3.826825e-001
    outer loop
      vertex  3.606066e+001  3.000000e+000  9.939340e+000
      vertex  3.606066e+001  0.000000e+000  9.939340e+000
      vertex  3.650000e+001  0.000000e+000  1.100000e+001
    endloop
  endfacet
  facet normal -9.238799e-001  0.000000e+000  3.826825e-001
    outer loop
      vertex  3.606066e+001  3.000000e+000  9.939340e+000
      vertex  3.650000e+001  0.000000e+000  1.100000e+001
      vertex  3.650000e+001  3.000000e+000  1.100000e+001
    endloop
  endfacet
  facet normal -3.826829e-001  -0.000000e+000 -9.238797e-001
    outer loop
      vertex  3.500000e+001  0.000000e+000  1.250000e+001
      vertex  3.606066e+001  3.000000e+000  1.206066e+001
      vertex  3.606066e+001  0.000000e+000  1.206066e+001
    endloop
  endfacet
  facet normal -9.238799e-001  0.000000e+000 -3.826825e-001
    outer loop
      vertex  3.606066e+001  0.000000e+000  1.206066e+001
      vertex  3.606066e+001  3.000000e+000  1.206066e+001
      vertex  3.650000e+001  3.000000e+000  1.100000e+001
    endloop
  endfacet
  facet normal -9.238799e-001  -0.000000e+000 -3.826825e-001
    outer loop
      vertex  3.606066e+001  0.000000e+000  1.206066e+001
      vertex  3.650000e+001  3.000000e+000  1.100000e+001
      vertex  3.650000e+001  0.000000e+000  1.100000e+001
    endloop
  endfacet
  facet normal -3.826829e-001  0.000000e+000 -9.238797e-001
    outer loop
      vertex  3.606066e+001  3.000000e+000  1.206066e+001
      vertex  3.500000e+001  0.000000e+000  1.250000e+001
      vertex  3.500000e+001  3.000000e+000  1.250000e+001
    endloop
  endfacet
  facet normal  3.826829e-001  0.000000e+000 -9.238797e-001
    outer loop
      vertex  3.500000e+001  3.000000e+000  1.250000e+001
      vertex  3.500000e+001  0.000000e+000  1.250000e+001
      vertex  3.393934e+001  0.000000e+000  1.206066e+001
    endloop
  endfacet
  facet normal  3.826829e-001  0.000000e+000 -9.238797e-001
    outer loop
      vertex  3.500000e+001  3.000000e+000  1.250000e+001
      vertex  3.393934e+001  0.000000e+000  1.206066e+001
      vertex  3.393934e+001  3.000000e+000  1.206066e+001
    endloop
  endfacet
  facet normal  9.238799e-001  0.000000e+000 -3.826825e-001
    outer loop
      vertex  3.393934e+001  3.000000e+000  1.206066e+001
      vertex  3.393934e+001  0.000000e+000  1.206066e+001
      vertex  3.350000e+001  0.000000e+000  1.100000e+001
    endloop
  endfacet
  facet normal  9.238799e-001  0.000000e+000 -3.826825e-001
    outer loop
      vertex  3.393934e+001  3.000000e+000  1.206066e+001
      vertex  3.350000e+001  0.000000e+000  1.100000e+001
      vertex  3.350000e+001  3.000000e+000  1.100000e+001
    endloop
  endfacet
  facet normal  1.000000e+000  0.000000e+000  0.000000e+000
    outer loop
      vertex  4.000000e+001  4.300000e+001 -1.300000e+001
      vertex  4.000000e+001  4.300000e+001 -1.000000e+001
      vertex  4.000000e+001  1.800000e+001 -1.000000e+001
    endloop
  endfacet
  facet normal  1.000000e+000  0.000000e+000  0.000000e+000
    outer loop
      vertex  4.000000e+001  4.300000e+001 -1.300000e+001
      vertex  4.000000e+001  1.800000e+001 -1.000000e+001
      vertex  4.000000e+001 -2.600000e+001 -1.000000e+001
    endloop
  endfacet
  facet normal  1.000000e+000  0.000000e+000  0.000000e+000
    outer loop
      vertex  4.000000e+001  4.300000e+001 -1.300000e+001
      vertex  4.000000e+001 -2.600000e+001 -1.000000e+001
      vertex  4.000000e+001 -5.500000e+001 -1.000000e+001
    endloop
  endfacet
  facet normal  1.000000e+000  0.000000e+000  0.000000e+000
    outer loop
      vertex  4.000000e+001  4.300000e+001 -1.300000e+001
      vertex  4.000000e+001 -5.500000e+001 -1.000000e+001
      vertex  4.000000e+001 -5.500000e+001 -1.300000e+001
    endloop
  endfacet
  facet normal  9.999999e-001  0.000000e+000  0.000000e+000
    outer loop
      vertex  4.000000e+001 -2.600000e+001 -1.000000e+001
      vertex  4.000000e+001  1.800000e+001 -1.000000e+001
      vertex  4.000000e+001 -7.105427e-015  5.000000e+000
    endloop
  endfacet
  facet normal  1.000000e+000  -0.000000e+000  0.000000e+000
    outer loop
      vertex  4.000000e+001 -7.105427e-015  5.000000e+000
      vertex  4.000000e+001  1.800000e+001 -1.000000e+001
      vertex  4.000000e+001  3.000000e+000  5.000000e+000
    endloop
  endfacet
  facet normal  1.000000e+000  0.000000e+000  0.000000e+000
    outer loop
      vertex  4.000000e+001 -7.105427e-015  5.000000e+000
      vertex  4.000000e+001  3.000000e+000  5.000000e+000
      vertex  4.000000e+001  0.000000e+000  1.500000e+001
    endloop
  endfacet
  facet normal  1.000000e+000  -0.000000e+000  0.000000e+000
    outer loop
      vertex  4.000000e+001  0.000000e+000  1.500000e+001
      vertex  4.000000e+001  3.000000e+000  5.000000e+000
      vertex  4.000000e+001  3.000000e+000  1.500000e+001
    endloop
  endfacet
  facet normal -1.000000e+000  0.000000e+000  0.000000e+000
    outer loop
      vertex -4.000000e+001  4.300000e+001 -1.300000e+001
      vertex -4.000000e+001 -5.500000e+001 -1.300000e+001
      vertex -4.000000e+001 -5.500000e+001 -1.000000e+001
    endloop
  endfacet
  facet normal -1.000000e+000  0.000000e+000  0.000000e+000
    outer loop
      vertex -4.000000e+001  4.300000e+001 -1.300000e+001
      vertex -4.000000e+001 -5.500000e+001 -1.000000e+001
      vertex -4.000000e+001 -2.600000e+001 -1.000000e+001
    endloop
  endfacet
  facet normal -1.000000e+000  0.000000e+000  0.000000e+000
    outer loop
      vertex -4.000000e+001  4.300000e+001 -1.300000e+001
      vertex -4.000000e+001 -2.600000e+001 -1.000000e+001
      vertex -4.000000e+001  1.800000e+001 -1.000000e+001
    endloop
  endfacet
  facet normal -1.000000e+000  0.000000e+000  0.000000e+000
    outer loop
      vertex -4.000000e+001  4.300000e+001 -1.300000e+001
      vertex -4.000000e+001  1.800000e+001 -1.000000e+001
      vertex -4.000000e+001  4.300000e+001 -1.000000e+001
    endloop
  endfacet
  facet normal -9.999999e-001  0.000000e+000  -0.000000e+000
    outer loop
      vertex -4.000000e+001 -2.600000e+001 -1.000000e+001
      vertex -4.000000e+001 -7.105427e-015  5.000000e+000
      vertex -4.000000e+001  1.800000e+001 -1.000000e+001
    endloop
  endfacet
  facet normal -1.000000e+000  0.000000e+000  0.000000e+000
    outer loop
      vertex -4.000000e+001  1.800000e+001 -1.000000e+001
      vertex -4.000000e+001 -7.105427e-015  5.000000e+000
      vertex -4.000000e+001  3.000000e+000  5.000000e+000
    endloop
  endfacet
  facet normal -1.000000e+000  0.000000e+000  -0.000000e+000
    outer loop
      vertex -4.000000e+001 -7.105427e-015  5.000000e+000
      vertex -4.000000e+001  0.000000e+000  1.500000e+001
      vertex -4.000000e+001  3.000000e+000  5.000000e+000
    endloop
  endfacet
  facet normal -1.000000e+000  0.000000e+000  0.000000e+000
    outer loop
      vertex -4.000000e+001  3.000000e+000  5.000000e+000
      vertex -4.000000e+001  0.000000e+000  1.500000e+001
      vertex -4.000000e+001  3.000000e+000  1.500000e+001
    endloop
  endfacet
  facet normal  0.000000e+000  0.000000e+000  1.000000e+000
    outer loop
      vertex  4.000000e+001 -5.500000e+001 -1.000000e+001
      vertex  4.000000e+001 -2.600000e+001 -1.000000e+001
      vertex  2.800000e+001 -2.600000e+001 -1.000000e+001
    endloop
  endfacet
  facet normal  0.000000e+000  0.000000e+000  1.000000e+000
    outer loop
      vertex  4.000000e+001 -5.500000e+001 -1.000000e+001
      vertex  2.800000e+001 -2.600000e+001 -1.000000e+001
      vertex -2.800000e+001 -2.600000e+001 -1.000000e+001
    endloop
  endfacet
  facet normal  0.000000e+000  0.000000e+000  1.000000e+000
    outer loop
      vertex  4.000000e+001 -5.500000e+001 -1.000000e+001
      vertex -2.800000e+001 -2.600000e+001 -1.000000e+001
      vertex -4.000000e+001 -2.600000e+001 -1.000000e+001
    endloop
  endfacet
  facet normal  0.000000e+000  0.000000e+000  1.000000e+000
    outer loop
      vertex  4.000000e+001 -5.500000e+001 -1.000000e+001
      vertex -4.000000e+001 -2.600000e+001 -1.000000e+001
      vertex -4.000000e+001 -5.500000e+001 -1.000000e+001
    endloop
  endfacet
  facet normal  0.000000e+000 -1.000000e+000  -0.000000e+000
    outer loop
      vertex  4.000000e+001 -5.500000e+001 -1.300000e+001
      vertex  4.000000e+001 -5.500000e+001 -1.000000e+001
      vertex -4.000000e+001 -5.500000e+001 -1.300000e+001
    endloop
  endfacet
  facet normal  0.000000e+000 -1.000000e+000  0.000000e+000
    outer loop
      vertex -4.000000e+001 -5.500000e+001 -1.300000e+001
      vertex  4.000000e+001 -5.500000e+001 -1.000000e+001
      vertex -4.000000e+001 -5.500000e+001 -1.000000e+001
    endloop
  endfacet
  facet normal  1.000000e+000  -0.000000e+000  0.000000e+000
    outer loop
      vertex -2.800000e+001  3.000000e+000  5.000000e+000
      vertex -2.800000e+001  3.000000e+000 -5.000000e+000
      vertex -2.800000e+001  1.800000e+001 -1.000000e+001
    endloop
  endfacet
  facet normal  1.000000e+000  0.000000e+000  0.000000e+000
    outer loop
      vertex -2.800000e+001 -1.700000e+001 -1.000000e+001
      vertex -2.800000e+001 -1.776357e-015  5.000000e+000
      vertex -2.800000e+001 -2.600000e+001 -1.000000e+001
    endloop
  endfacet
  facet normal  1.000000e+000  0.000000e+000  -0.000000e+000
    outer loop
      vertex -2.800000e+001 -1.700000e+001 -1.300000e+001
      vertex -2.800000e+001  4.300000e+001 -1.300000e+001
      vertex -2.800000e+001  4.300000e+001 -1.000000e+001
    endloop
  endfacet
  facet normal  1.000000e+000  0.000000e+000  0.000000e+000
    outer loop
      vertex -2.800000e+001 -1.700000e+001 -1.300000e+001
      vertex -2.800000e+001  4.300000e+001 -1.000000e+001
      vertex -2.800000e+001  1.800000e+001 -1.000000e+001
    endloop
  endfacet
  facet normal  9.999999e-001  0.000000e+000  0.000000e+000
    outer loop
      vertex -2.800000e+001 -1.700000e+001 -1.300000e+001
      vertex -2.800000e+001  1.800000e+001 -1.000000e+001
      vertex -2.800000e+001  3.000000e+000 -5.000000e+000
    endloop
  endfacet
  facet normal  1.000000e+000  0.000000e+000  0.000000e+000
    outer loop
      vertex -2.800000e+001 -1.700000e+001 -1.300000e+001
      vertex -2.800000e+001  3.000000e+000 -5.000000e+000
      vertex -2.800000e+001  0.000000e+000 -5.000000e+000
    endloop
  endfacet
  facet normal  1.000000e+000  0.000000e+000  0.000000e+000
    outer loop
      vertex -2.800000e+001 -1.700000e+001 -1.300000e+001
      vertex -2.800000e+001  0.000000e+000 -5.000000e+000
      vertex -2.800000e+001 -1.776357e-015  5.000000e+000
    endloop
  endfacet
  facet normal  1.000000e+000  0.000000e+000  0.000000e+000
    outer loop
      vertex -2.800000e+001 -1.700000e+001 -1.300000e+001
      vertex -2.800000e+001 -1.776357e-015  5.000000e+000
      vertex -2.800000e+001 -1.700000e+001 -1.000000e+001
    endloop
  endfacet
  facet normal  0.000000e+000 -4.997225e-001  8.661855e-001
    outer loop
      vertex  2.800000e+001 -2.600000e+001 -1.000000e+001
      vertex  4.000000e+001 -2.600000e+001 -1.000000e+001
      vertex  2.800000e+001 -1.776357e-015  5.000000e+000
    endloop
  endfacet
  facet normal -2.219213e-016 -4.997225e-001  8.661855e-001
    outer loop
      vertex  2.800000e+001 -1.776357e-015  5.000000e+000
      vertex  4.000000e+001 -2.600000e+001 -1.000000e+001
      vertex  4.000000e+001 -7.105427e-015  5.000000e+000
    endloop
  endfacet
  facet normal  0.000000e+000 -4.997225e-001  8.661855e-001
    outer loop
      vertex -4.000000e+001 -2.600000e+001 -1.000000e+001
      vertex -2.800000e+001 -2.600000e+001 -1.000000e+001
      vertex -4.000000e+001 -7.105427e-015  5.000000e+000
    endloop
  endfacet
  facet normal  2.219213e-016 -4.997225e-001  8.661855e-001
    outer loop
      vertex -4.000000e+001 -7.105427e-015  5.000000e+000
      vertex -2.800000e+001 -2.600000e+001 -1.000000e+001
      vertex -2.800000e+001 -1.776357e-015  5.000000e+000
    endloop
  endfacet
  facet normal  0.000000e+000  1.000000e+000  0.000000e+000
    outer loop
      vertex -2.800000e+001 -1.700000e+001 -1.000000e+001
      vertex  2.800000e+001 -1.700000e+001 -1.000000e+001
      vertex -2.800000e+001 -1.700000e+001 -1.300000e+001
    endloop
  endfacet
  facet normal  0.000000e+000  1.000000e+000  0.000000e+000
    outer loop
      vertex -2.800000e+001 -1.700000e+001 -1.300000e+001
      vertex  2.800000e+001 -1.700000e+001 -1.000000e+001
      vertex  2.800000e+001 -1.700000e+001 -1.300000e+001
    endloop
  endfacet
  facet normal  0.000000e+000  0.000000e+000  1.000000e+000
    outer loop
      vertex -2.800000e+001 -1.700000e+001 -1.000000e+001
      vertex -2.800000e+001 -2.600000e+001 -1.000000e+001
      vertex  2.800000e+001 -1.700000e+001 -1.000000e+001
    endloop
  endfacet
  facet normal  0.000000e+000  0.000000e+000  1.000000e+000
    outer loop
      vertex  2.800000e+001 -1.700000e+001 -1.000000e+001
      vertex -2.800000e+001 -2.600000e+001 -1.000000e+001
      vertex  2.800000e+001 -2.600000e+001 -1.000000e+001
    endloop
  endfacet
  facet normal  0.000000e+000 -1.000000e+000 -1.776357e-016
    outer loop
      vertex  2.800000e+001  0.000000e+000 -5.000000e+000
      vertex  2.800000e+001 -1.776357e-015  5.000000e+000
      vertex -2.800000e+001  0.000000e+000 -5.000000e+000
    endloop
  endfacet
  facet normal  0.000000e+000 -1.000000e+000 -1.776357e-016
    outer loop
      vertex -2.800000e+001  0.000000e+000 -5.000000e+000
      vertex  2.800000e+001 -1.776357e-015  5.000000e+000
      vertex -2.800000e+001 -1.776357e-015  5.000000e+000
    endloop
  endfacet
  facet normal  0.000000e+000  7.071068e-001  7.071068e-001
    outer loop
      vertex -4.000000e+001  3.000000e+000  5.000000e+000
      vertex -2.800000e+001  3.000000e+000  5.000000e+000
      vertex -4.000000e+001  1.800000e+001 -1.000000e+001
    endloop
  endfacet
  facet normal  -0.000000e+000  7.071068e-001  7.071068e-001
    outer loop
      vertex -4.000000e+001  1.800000e+001 -1.000000e+001
      vertex -2.800000e+001  3.000000e+000  5.000000e+000
      vertex -2.800000e+001  1.800000e+001 -1.000000e+001
    endloop
  endfacet
  facet normal  1.000000e+000  0.000000e+000  0.000000e+000
    outer loop
      vertex -2.800000e+001 -1.776357e-015  5.000000e+000
      vertex -2.800000e+001  3.000000e+000  5.000000e+000
      vertex -2.800000e+001  0.000000e+000  1.500000e+001
    endloop
  endfacet
  facet normal  1.000000e+000  -0.000000e+000  0.000000e+000
    outer loop
      vertex -2.800000e+001  0.000000e+000  1.500000e+001
      vertex -2.800000e+001  3.000000e+000  5.000000e+000
      vertex -2.800000e+001  3.000000e+000  1.500000e+001
    endloop
  endfacet
  facet normal  -0.000000e+000  0.000000e+000  1.000000e+000
    outer loop
      vertex  4.000000e+001  3.000000e+000  1.500000e+001
      vertex  2.800000e+001  3.000000e+000  1.500000e+001
      vertex  4.000000e+001  0.000000e+000  1.500000e+001
    endloop
  endfacet
  facet normal  0.000000e+000  0.000000e+000  1.000000e+000
    outer loop
      vertex  4.000000e+001  0.000000e+000  1.500000e+001
      vertex  2.800000e+001  3.000000e+000  1.500000e+001
      vertex  2.800000e+001  0.000000e+000  1.500000e+001
    endloop
  endfacet
  facet normal -1.000000e+000  0.000000e+000  -0.000000e+000
    outer loop
      vertex  2.800000e+001 -1.776357e-015  5.000000e+000
      vertex  2.800000e+001  0.000000e+000  1.500000e+001
      vertex  2.800000e+001  3.000000e+000  5.000000e+000
    endloop
  endfacet
  facet normal -1.000000e+000  0.000000e+000  0.000000e+000
    outer loop
      vertex  2.800000e+001  3.000000e+000  5.000000e+000
      vertex  2.800000e+001  0.000000e+000  1.500000e+001
      vertex  2.800000e+001  3.000000e+000  1.500000e+001
    endloop
  endfacet
  facet normal  -0.000000e+000  0.000000e+000  1.000000e+000
    outer loop
      vertex -2.800000e+001  3.000000e+000  1.500000e+001
      vertex -4.000000e+001  3.000000e+000  1.500000e+001
      vertex -2.800000e+001  0.000000e+000  1.500000e+001
    endloop
  endfacet
  facet normal  0.000000e+000  0.000000e+000  1.000000e+000
    outer loop
      vertex -2.800000e+001  0.000000e+000  1.500000e+001
      vertex -4.000000e+001  3.000000e+000  1.500000e+001
      vertex -4.000000e+001  0.000000e+000  1.500000e+001
    endloop
  endfacet
  facet normal  0.000000e+000  1.000000e+000  -0.000000e+000
    outer loop
      vertex -2.800000e+001  4.300000e+001 -1.000000e+001
      vertex -2.800000e+001  4.300000e+001 -1.300000e+001
      vertex -4.000000e+001  4.300000e+001 -1.000000e+001
    endloop
  endfacet
  facet normal  0.000000e+000  1.000000e+000  0.000000e+000
    outer loop
      vertex -4.000000e+001  4.300000e+001 -1.000000e+001
      vertex -2.800000e+001  4.300000e+001 -1.300000e+001
      vertex -4.000000e+001  4.300000e+001 -1.300000e+001
    endloop
  endfacet
  facet normal  0.000000e+000  0.000000e+000  1.000000e+000
    outer loop
      vertex -4.000000e+001  4.300000e+001 -1.000000e+001
      vertex -4.000000e+001  1.800000e+001 -1.000000e+001
      vertex -2.800000e+001  4.300000e+001 -1.000000e+001
    endloop
  endfacet
  facet normal  0.000000e+000  0.000000e+000  1.000000e+000
    outer loop
      vertex -2.800000e+001  4.300000e+001 -1.000000e+001
      vertex -4.000000e+001  1.800000e+001 -1.000000e+001
      vertex -2.800000e+001  1.800000e+001 -1.000000e+001
    endloop
  endfacet
endsolid CATIA STL
