solid CATIA STL
  facet normal  0.000000e+000  0.000000e+000  9.999999e-001
    outer loop
      vertex -2.045337e+001  2.625000e+000  4.000000e+000
      vertex -2.237500e+001  4.546633e+000  4.000000e+000
      vertex -2.500000e+001  1.750000e+000  4.000000e+000
    endloop
  endfacet
  facet normal  0.000000e+000  0.000000e+000  1.000000e+000
    outer loop
      vertex -2.500000e+001  1.750000e+000  4.000000e+000
      vertex -2.237500e+001  4.546633e+000  4.000000e+000
      vertex -2.500000e+001  5.250000e+000  4.000000e+000
    endloop
  endfacet
  facet normal  0.000000e+000  0.000000e+000  1.000000e+000
    outer loop
      vertex -2.500000e+001  1.750000e+000  4.000000e+000
      vertex -2.500000e+001  5.250000e+000  4.000000e+000
      vertex -2.954663e+001  2.625000e+000  4.000000e+000
    endloop
  endfacet
  facet normal  0.000000e+000  0.000000e+000  1.000000e+000
    outer loop
      vertex -2.954663e+001  2.625000e+000  4.000000e+000
      vertex -2.500000e+001  5.250000e+000  4.000000e+000
      vertex -2.762500e+001  4.546633e+000  4.000000e+000
    endloop
  endfacet
  facet normal  0.000000e+000  0.000000e+000  1.000000e+000
    outer loop
      vertex -2.500000e+001  1.750000e+000  4.000000e+000
      vertex -2.954663e+001  2.625000e+000  4.000000e+000
      vertex -2.623744e+001  1.237437e+000  4.000000e+000
    endloop
  endfacet
  facet normal  0.000000e+000  0.000000e+000  1.000000e+000
    outer loop
      vertex -2.623744e+001  1.237437e+000  4.000000e+000
      vertex -2.954663e+001  2.625000e+000  4.000000e+000
      vertex -3.025000e+001  2.089598e-014  4.000000e+000
    endloop
  endfacet
  facet normal  -0.000000e+000  0.000000e+000  1.000000e+000
    outer loop
      vertex -2.623744e+001  1.237437e+000  4.000000e+000
      vertex -3.025000e+001  2.089598e-014  4.000000e+000
      vertex -2.675000e+001 -2.847311e-015  4.000000e+000
    endloop
  endfacet
  facet normal  0.000000e+000  0.000000e+000  1.000000e+000
    outer loop
      vertex -2.675000e+001 -2.847311e-015  4.000000e+000
      vertex -3.025000e+001  2.089598e-014  4.000000e+000
      vertex -2.623744e+001 -1.237437e+000  4.000000e+000
    endloop
  endfacet
  facet normal  0.000000e+000  0.000000e+000  1.000000e+000
    outer loop
      vertex -2.623744e+001 -1.237437e+000  4.000000e+000
      vertex -3.025000e+001  2.089598e-014  4.000000e+000
      vertex -2.954663e+001 -2.625000e+000  4.000000e+000
    endloop
  endfacet
  facet normal  0.000000e+000  0.000000e+000  1.000000e+000
    outer loop
      vertex -2.623744e+001 -1.237437e+000  4.000000e+000
      vertex -2.954663e+001 -2.625000e+000  4.000000e+000
      vertex -2.500000e+001 -1.750000e+000  4.000000e+000
    endloop
  endfacet
  facet normal  0.000000e+000  0.000000e+000  1.000000e+000
    outer loop
      vertex -2.237500e+001 -4.546633e+000  4.000000e+000
      vertex -2.045337e+001 -2.625000e+000  4.000000e+000
      vertex -2.500000e+001 -5.250000e+000  4.000000e+000
    endloop
  endfacet
  facet normal  0.000000e+000  0.000000e+000  1.000000e+000
    outer loop
      vertex -2.500000e+001 -5.250000e+000  4.000000e+000
      vertex -2.045337e+001 -2.625000e+000  4.000000e+000
      vertex -2.500000e+001 -1.750000e+000  4.000000e+000
    endloop
  endfacet
  facet normal  0.000000e+000  0.000000e+000  1.000000e+000
    outer loop
      vertex -2.500000e+001 -5.250000e+000  4.000000e+000
      vertex -2.500000e+001 -1.750000e+000  4.000000e+000
      vertex -2.762500e+001 -4.546633e+000  4.000000e+000
    endloop
  endfacet
  facet normal  0.000000e+000  -0.000000e+000  9.999999e-001
    outer loop
      vertex -2.762500e+001 -4.546633e+000  4.000000e+000
      vertex -2.500000e+001 -1.750000e+000  4.000000e+000
      vertex -2.954663e+001 -2.625000e+000  4.000000e+000
    endloop
  endfacet
  facet normal  -0.000000e+000  0.000000e+000  1.000000e+000
    outer loop
      vertex -2.045337e+001  2.625000e+000  4.000000e+000
      vertex -2.500000e+001  1.750000e+000  4.000000e+000
      vertex -1.975000e+001 -3.061617e-015  4.000000e+000
    endloop
  endfacet
  facet normal  0.000000e+000  0.000000e+000  1.000000e+000
    outer loop
      vertex -1.975000e+001 -3.061617e-015  4.000000e+000
      vertex -2.500000e+001  1.750000e+000  4.000000e+000
      vertex -2.376256e+001  1.237437e+000  4.000000e+000
    endloop
  endfacet
  facet normal  0.000000e+000  0.000000e+000  1.000000e+000
    outer loop
      vertex -1.975000e+001 -3.061617e-015  4.000000e+000
      vertex -2.376256e+001  1.237437e+000  4.000000e+000
      vertex -2.325000e+001 -5.091549e-015  4.000000e+000
    endloop
  endfacet
  facet normal  -0.000000e+000  0.000000e+000  1.000000e+000
    outer loop
      vertex -1.975000e+001 -3.061617e-015  4.000000e+000
      vertex -2.325000e+001 -5.091549e-015  4.000000e+000
      vertex -2.045337e+001 -2.625000e+000  4.000000e+000
    endloop
  endfacet
  facet normal  0.000000e+000  0.000000e+000  1.000000e+000
    outer loop
      vertex -2.045337e+001 -2.625000e+000  4.000000e+000
      vertex -2.325000e+001 -5.091549e-015  4.000000e+000
      vertex -2.376256e+001 -1.237437e+000  4.000000e+000
    endloop
  endfacet
  facet normal  0.000000e+000  0.000000e+000  1.000000e+000
    outer loop
      vertex -2.045337e+001 -2.625000e+000  4.000000e+000
      vertex -2.376256e+001 -1.237437e+000  4.000000e+000
      vertex -2.500000e+001 -1.750000e+000  4.000000e+000
    endloop
  endfacet
  facet normal  0.000000e+000  0.000000e+000  1.000000e+000
    outer loop
      vertex -2.045337e+001 -2.625000e+000  6.000000e+000
      vertex  2.500000e+001 -1.750000e+000  6.000000e+000
      vertex  2.376256e+001 -1.237437e+000  6.000000e+000
    endloop
  endfacet
  facet normal  0.000000e+000  0.000000e+000  1.000000e+000
    outer loop
      vertex -2.500000e+001 -5.250000e+000  6.000000e+000
      vertex  2.500000e+001 -5.250000e+000  6.000000e+000
      vertex -2.237500e+001 -4.546633e+000  6.000000e+000
    endloop
  endfacet
  facet normal  0.000000e+000  -0.000000e+000  1.000000e+000
    outer loop
      vertex -2.500000e+001  5.250000e+000  6.000000e+000
      vertex -2.237500e+001  4.546633e+000  6.000000e+000
      vertex  2.500000e+001  5.250000e+000  6.000000e+000
    endloop
  endfacet
  facet normal  0.000000e+000  0.000000e+000  1.000000e+000
    outer loop
      vertex  2.500000e+001  5.250000e+000  6.000000e+000
      vertex -2.237500e+001  4.546633e+000  6.000000e+000
      vertex  2.500000e+001  1.750000e+000  6.000000e+000
    endloop
  endfacet
  facet normal  0.000000e+000  0.000000e+000  1.000000e+000
    outer loop
      vertex  2.500000e+001  5.250000e+000  6.000000e+000
      vertex  2.500000e+001  1.750000e+000  6.000000e+000
      vertex  2.762500e+001  4.546633e+000  6.000000e+000
    endloop
  endfacet
  facet normal  0.000000e+000  0.000000e+000  9.999999e-001
    outer loop
      vertex  2.762500e+001  4.546633e+000  6.000000e+000
      vertex  2.500000e+001  1.750000e+000  6.000000e+000
      vertex  2.954663e+001  2.625000e+000  6.000000e+000
    endloop
  endfacet
  facet normal  0.000000e+000  0.000000e+000  9.999999e-001
    outer loop
      vertex -1.975000e+001 -3.061617e-015  6.000000e+000
      vertex  2.376256e+001  1.237437e+000  6.000000e+000
      vertex -2.045337e+001  2.625000e+000  6.000000e+000
    endloop
  endfacet
  facet normal  0.000000e+000  0.000000e+000  1.000000e+000
    outer loop
      vertex -2.045337e+001  2.625000e+000  6.000000e+000
      vertex  2.376256e+001  1.237437e+000  6.000000e+000
      vertex  2.500000e+001  1.750000e+000  6.000000e+000
    endloop
  endfacet
  facet normal  0.000000e+000  0.000000e+000  1.000000e+000
    outer loop
      vertex -2.045337e+001  2.625000e+000  6.000000e+000
      vertex  2.500000e+001  1.750000e+000  6.000000e+000
      vertex -2.237500e+001  4.546633e+000  6.000000e+000
    endloop
  endfacet
  facet normal  0.000000e+000  0.000000e+000  9.999999e-001
    outer loop
      vertex -2.045337e+001 -2.625000e+000  6.000000e+000
      vertex  2.376256e+001 -1.237437e+000  6.000000e+000
      vertex -1.975000e+001 -3.061617e-015  6.000000e+000
    endloop
  endfacet
  facet normal  -0.000000e+000  0.000000e+000  1.000000e+000
    outer loop
      vertex -1.975000e+001 -3.061617e-015  6.000000e+000
      vertex  2.376256e+001 -1.237437e+000  6.000000e+000
      vertex  2.325000e+001  3.275923e-015  6.000000e+000
    endloop
  endfacet
  facet normal  0.000000e+000  -0.000000e+000  1.000000e+000
    outer loop
      vertex -1.975000e+001 -3.061617e-015  6.000000e+000
      vertex  2.325000e+001  3.275923e-015  6.000000e+000
      vertex  2.376256e+001  1.237437e+000  6.000000e+000
    endloop
  endfacet
  facet normal  0.000000e+000  0.000000e+000  1.000000e+000
    outer loop
      vertex  2.762500e+001 -4.546633e+000  6.000000e+000
      vertex  2.954663e+001 -2.625000e+000  6.000000e+000
      vertex  2.500000e+001 -5.250000e+000  6.000000e+000
    endloop
  endfacet
  facet normal  0.000000e+000  0.000000e+000  1.000000e+000
    outer loop
      vertex  2.500000e+001 -5.250000e+000  6.000000e+000
      vertex  2.954663e+001 -2.625000e+000  6.000000e+000
      vertex  2.500000e+001 -1.750000e+000  6.000000e+000
    endloop
  endfacet
  facet normal  0.000000e+000  0.000000e+000  1.000000e+000
    outer loop
      vertex  2.500000e+001 -5.250000e+000  6.000000e+000
      vertex  2.500000e+001 -1.750000e+000  6.000000e+000
      vertex -2.237500e+001 -4.546633e+000  6.000000e+000
    endloop
  endfacet
  facet normal  0.000000e+000  0.000000e+000  9.999999e-001
    outer loop
      vertex -2.237500e+001 -4.546633e+000  6.000000e+000
      vertex  2.500000e+001 -1.750000e+000  6.000000e+000
      vertex -2.045337e+001 -2.625000e+000  6.000000e+000
    endloop
  endfacet
  facet normal  -0.000000e+000  0.000000e+000  1.000000e+000
    outer loop
      vertex  2.954663e+001  2.625000e+000  6.000000e+000
      vertex  2.500000e+001  1.750000e+000  6.000000e+000
      vertex  3.025000e+001  1.775780e-015  6.000000e+000
    endloop
  endfacet
  facet normal  0.000000e+000  0.000000e+000  1.000000e+000
    outer loop
      vertex  3.025000e+001  1.775780e-015  6.000000e+000
      vertex  2.500000e+001  1.750000e+000  6.000000e+000
      vertex  2.623744e+001  1.237437e+000  6.000000e+000
    endloop
  endfacet
  facet normal  0.000000e+000  0.000000e+000  1.000000e+000
    outer loop
      vertex  3.025000e+001  1.775780e-015  6.000000e+000
      vertex  2.623744e+001  1.237437e+000  6.000000e+000
      vertex  2.675000e+001  3.061617e-015  6.000000e+000
    endloop
  endfacet
  facet normal  0.000000e+000  0.000000e+000  1.000000e+000
    outer loop
      vertex  3.025000e+001  1.775780e-015  6.000000e+000
      vertex  2.675000e+001  3.061617e-015  6.000000e+000
      vertex  2.954663e+001 -2.625000e+000  6.000000e+000
    endloop
  endfacet
  facet normal  0.000000e+000  0.000000e+000  1.000000e+000
    outer loop
      vertex  2.954663e+001 -2.625000e+000  6.000000e+000
      vertex  2.675000e+001  3.061617e-015  6.000000e+000
      vertex  2.623744e+001 -1.237437e+000  6.000000e+000
    endloop
  endfacet
  facet normal  0.000000e+000  0.000000e+000  1.000000e+000
    outer loop
      vertex  2.954663e+001 -2.625000e+000  6.000000e+000
      vertex  2.623744e+001 -1.237437e+000  6.000000e+000
      vertex  2.500000e+001 -1.750000e+000  6.000000e+000
    endloop
  endfacet
  facet normal  3.826836e-001 -9.238795e-001  0.000000e+000
    outer loop
      vertex -2.500000e+001  1.750000e+000  2.150000e+000
      vertex -2.623744e+001  1.237437e+000  4.000000e+000
      vertex -2.623744e+001  1.237437e+000  2.150000e+000
    endloop
  endfacet
  facet normal  9.238793e-001 -3.826838e-001  0.000000e+000
    outer loop
      vertex -2.623744e+001  1.237437e+000  2.150000e+000
      vertex -2.623744e+001  1.237437e+000  4.000000e+000
      vertex -2.675000e+001 -2.847311e-015  4.000000e+000
    endloop
  endfacet
  facet normal  9.238793e-001 -3.826838e-001  0.000000e+000
    outer loop
      vertex -2.623744e+001  1.237437e+000  2.150000e+000
      vertex -2.675000e+001 -2.847311e-015  4.000000e+000
      vertex -2.675000e+001 -2.847311e-015  2.150000e+000
    endloop
  endfacet
  facet normal  3.826836e-001 -9.238795e-001  0.000000e+000
    outer loop
      vertex -2.623744e+001  1.237437e+000  4.000000e+000
      vertex -2.500000e+001  1.750000e+000  2.150000e+000
      vertex -2.500000e+001  1.750000e+000  4.000000e+000
    endloop
  endfacet
  facet normal -3.826836e-001 -9.238795e-001  -0.000000e+000
    outer loop
      vertex -2.500000e+001  1.750000e+000  4.000000e+000
      vertex -2.500000e+001  1.750000e+000  2.150000e+000
      vertex -2.376256e+001  1.237437e+000  2.150000e+000
    endloop
  endfacet
  facet normal -3.826836e-001 -9.238795e-001  0.000000e+000
    outer loop
      vertex -2.500000e+001  1.750000e+000  4.000000e+000
      vertex -2.376256e+001  1.237437e+000  2.150000e+000
      vertex -2.376256e+001  1.237437e+000  4.000000e+000
    endloop
  endfacet
  facet normal -9.238793e-001 -3.826838e-001  -0.000000e+000
    outer loop
      vertex -2.376256e+001  1.237437e+000  4.000000e+000
      vertex -2.376256e+001  1.237437e+000  2.150000e+000
      vertex -2.325000e+001 -3.061617e-015  2.150000e+000
    endloop
  endfacet
  facet normal -9.238793e-001 -3.826838e-001 -4.199038e-016
    outer loop
      vertex -2.376256e+001  1.237437e+000  4.000000e+000
      vertex -2.325000e+001 -3.061617e-015  2.150000e+000
      vertex -2.325000e+001 -5.091549e-015  4.000000e+000
    endloop
  endfacet
  facet normal -3.826836e-001  9.238795e-001  0.000000e+000
    outer loop
      vertex -2.500000e+001 -1.750000e+000  2.150000e+000
      vertex -2.376256e+001 -1.237437e+000  4.000000e+000
      vertex -2.376256e+001 -1.237437e+000  2.150000e+000
    endloop
  endfacet
  facet normal -9.238793e-001  3.826838e-001  0.000000e+000
    outer loop
      vertex -2.376256e+001 -1.237437e+000  2.150000e+000
      vertex -2.376256e+001 -1.237437e+000  4.000000e+000
      vertex -2.325000e+001 -5.091549e-015  4.000000e+000
    endloop
  endfacet
  facet normal -9.238793e-001  3.826838e-001  4.199038e-016
    outer loop
      vertex -2.376256e+001 -1.237437e+000  2.150000e+000
      vertex -2.325000e+001 -5.091549e-015  4.000000e+000
      vertex -2.325000e+001 -3.061617e-015  2.150000e+000
    endloop
  endfacet
  facet normal -3.826836e-001  9.238795e-001  0.000000e+000
    outer loop
      vertex -2.376256e+001 -1.237437e+000  4.000000e+000
      vertex -2.500000e+001 -1.750000e+000  2.150000e+000
      vertex -2.500000e+001 -1.750000e+000  4.000000e+000
    endloop
  endfacet
  facet normal  3.826836e-001  9.238795e-001  0.000000e+000
    outer loop
      vertex -2.500000e+001 -1.750000e+000  4.000000e+000
      vertex -2.500000e+001 -1.750000e+000  2.150000e+000
      vertex -2.623744e+001 -1.237437e+000  2.150000e+000
    endloop
  endfacet
  facet normal  3.826836e-001  9.238795e-001  -0.000000e+000
    outer loop
      vertex -2.500000e+001 -1.750000e+000  4.000000e+000
      vertex -2.623744e+001 -1.237437e+000  2.150000e+000
      vertex -2.623744e+001 -1.237437e+000  4.000000e+000
    endloop
  endfacet
  facet normal  9.238793e-001  3.826838e-001  0.000000e+000
    outer loop
      vertex -2.623744e+001 -1.237437e+000  4.000000e+000
      vertex -2.623744e+001 -1.237437e+000  2.150000e+000
      vertex -2.675000e+001 -2.847311e-015  2.150000e+000
    endloop
  endfacet
  facet normal  9.238793e-001  3.826838e-001  -0.000000e+000
    outer loop
      vertex -2.623744e+001 -1.237437e+000  4.000000e+000
      vertex -2.675000e+001 -2.847311e-015  2.150000e+000
      vertex -2.675000e+001 -2.847311e-015  4.000000e+000
    endloop
  endfacet
  facet normal -2.588191e-001 -9.659258e-001  -0.000000e+000
    outer loop
      vertex -2.500000e+001 -5.250000e+000  2.150000e+000
      vertex -2.500000e+001 -5.250000e+000  4.000000e+000
      vertex -2.762500e+001 -4.546633e+000  2.150000e+000
    endloop
  endfacet
  facet normal -2.588191e-001 -9.659258e-001  0.000000e+000
    outer loop
      vertex -2.762500e+001 -4.546633e+000  2.150000e+000
      vertex -2.500000e+001 -5.250000e+000  4.000000e+000
      vertex -2.762500e+001 -4.546633e+000  4.000000e+000
    endloop
  endfacet
  facet normal -7.071069e-001 -7.071066e-001  -0.000000e+000
    outer loop
      vertex -2.762500e+001 -4.546633e+000  2.150000e+000
      vertex -2.762500e+001 -4.546633e+000  4.000000e+000
      vertex -2.954663e+001 -2.625000e+000  2.150000e+000
    endloop
  endfacet
  facet normal -7.071069e-001 -7.071066e-001  0.000000e+000
    outer loop
      vertex -2.954663e+001 -2.625000e+000  2.150000e+000
      vertex -2.762500e+001 -4.546633e+000  4.000000e+000
      vertex -2.954663e+001 -2.625000e+000  4.000000e+000
    endloop
  endfacet
  facet normal -9.659258e-001 -2.588193e-001  -0.000000e+000
    outer loop
      vertex -2.954663e+001 -2.625000e+000  2.150000e+000
      vertex -2.954663e+001 -2.625000e+000  4.000000e+000
      vertex -3.025000e+001 -2.418699e-015  2.150000e+000
    endloop
  endfacet
  facet normal -9.659258e-001 -2.588193e-001  3.261778e-015
    outer loop
      vertex -3.025000e+001 -2.418699e-015  2.150000e+000
      vertex -2.954663e+001 -2.625000e+000  4.000000e+000
      vertex -3.025000e+001  2.089598e-014  4.000000e+000
    endloop
  endfacet
  facet normal -9.659258e-001  2.588193e-001 -3.261778e-015
    outer loop
      vertex -3.025000e+001 -2.418699e-015  2.150000e+000
      vertex -3.025000e+001  2.089598e-014  4.000000e+000
      vertex -2.954663e+001  2.625000e+000  2.150000e+000
    endloop
  endfacet
  facet normal -9.659258e-001  2.588193e-001  0.000000e+000
    outer loop
      vertex -2.954663e+001  2.625000e+000  2.150000e+000
      vertex -3.025000e+001  2.089598e-014  4.000000e+000
      vertex -2.954663e+001  2.625000e+000  4.000000e+000
    endloop
  endfacet
  facet normal -7.071069e-001  7.071066e-001  0.000000e+000
    outer loop
      vertex -2.954663e+001  2.625000e+000  2.150000e+000
      vertex -2.954663e+001  2.625000e+000  4.000000e+000
      vertex -2.762500e+001  4.546633e+000  2.150000e+000
    endloop
  endfacet
  facet normal -7.071069e-001  7.071066e-001  0.000000e+000
    outer loop
      vertex -2.762500e+001  4.546633e+000  2.150000e+000
      vertex -2.954663e+001  2.625000e+000  4.000000e+000
      vertex -2.762500e+001  4.546633e+000  4.000000e+000
    endloop
  endfacet
  facet normal -2.588191e-001  9.659258e-001  0.000000e+000
    outer loop
      vertex -2.762500e+001  4.546633e+000  2.150000e+000
      vertex -2.762500e+001  4.546633e+000  4.000000e+000
      vertex -2.500000e+001  5.250000e+000  2.150000e+000
    endloop
  endfacet
  facet normal -2.588191e-001  9.659258e-001  0.000000e+000
    outer loop
      vertex -2.500000e+001  5.250000e+000  2.150000e+000
      vertex -2.762500e+001  4.546633e+000  4.000000e+000
      vertex -2.500000e+001  5.250000e+000  4.000000e+000
    endloop
  endfacet
  facet normal -2.588191e-001 -9.659258e-001  -0.000000e+000
    outer loop
      vertex -2.237500e+001  4.546633e+000  4.000000e+000
      vertex -2.500000e+001  5.250000e+000  6.000000e+000
      vertex -2.500000e+001  5.250000e+000  4.000000e+000
    endloop
  endfacet
  facet normal -2.588191e-001 -9.659258e-001  0.000000e+000
    outer loop
      vertex -2.500000e+001  5.250000e+000  6.000000e+000
      vertex -2.237500e+001  4.546633e+000  4.000000e+000
      vertex -2.237500e+001  4.546633e+000  6.000000e+000
    endloop
  endfacet
  facet normal -7.071068e-001 -7.071067e-001  -0.000000e+000
    outer loop
      vertex -2.237500e+001  4.546633e+000  6.000000e+000
      vertex -2.237500e+001  4.546633e+000  4.000000e+000
      vertex -2.045337e+001  2.625000e+000  4.000000e+000
    endloop
  endfacet
  facet normal -7.071068e-001 -7.071067e-001  0.000000e+000
    outer loop
      vertex -2.237500e+001  4.546633e+000  6.000000e+000
      vertex -2.045337e+001  2.625000e+000  4.000000e+000
      vertex -2.045337e+001  2.625000e+000  6.000000e+000
    endloop
  endfacet
  facet normal -9.659258e-001 -2.588193e-001  -0.000000e+000
    outer loop
      vertex -2.045337e+001  2.625000e+000  6.000000e+000
      vertex -2.045337e+001  2.625000e+000  4.000000e+000
      vertex -1.975000e+001 -3.061617e-015  4.000000e+000
    endloop
  endfacet
  facet normal -9.659258e-001 -2.588193e-001  0.000000e+000
    outer loop
      vertex -2.045337e+001  2.625000e+000  6.000000e+000
      vertex -1.975000e+001 -3.061617e-015  4.000000e+000
      vertex -1.975000e+001 -3.061617e-015  6.000000e+000
    endloop
  endfacet
  facet normal -9.659258e-001  2.588193e-001  0.000000e+000
    outer loop
      vertex -2.045337e+001 -2.625000e+000  4.000000e+000
      vertex -1.975000e+001 -3.061617e-015  6.000000e+000
      vertex -1.975000e+001 -3.061617e-015  4.000000e+000
    endloop
  endfacet
  facet normal -9.659258e-001  2.588193e-001  0.000000e+000
    outer loop
      vertex -1.975000e+001 -3.061617e-015  6.000000e+000
      vertex -2.045337e+001 -2.625000e+000  4.000000e+000
      vertex -2.045337e+001 -2.625000e+000  6.000000e+000
    endloop
  endfacet
  facet normal -7.071068e-001  7.071067e-001  0.000000e+000
    outer loop
      vertex -2.045337e+001 -2.625000e+000  6.000000e+000
      vertex -2.045337e+001 -2.625000e+000  4.000000e+000
      vertex -2.237500e+001 -4.546633e+000  4.000000e+000
    endloop
  endfacet
  facet normal -7.071068e-001  7.071067e-001  0.000000e+000
    outer loop
      vertex -2.045337e+001 -2.625000e+000  6.000000e+000
      vertex -2.237500e+001 -4.546633e+000  4.000000e+000
      vertex -2.237500e+001 -4.546633e+000  6.000000e+000
    endloop
  endfacet
  facet normal -2.588191e-001  9.659258e-001  0.000000e+000
    outer loop
      vertex -2.237500e+001 -4.546633e+000  6.000000e+000
      vertex -2.237500e+001 -4.546633e+000  4.000000e+000
      vertex -2.500000e+001 -5.250000e+000  4.000000e+000
    endloop
  endfacet
  facet normal -2.588191e-001  9.659258e-001  0.000000e+000
    outer loop
      vertex -2.237500e+001 -4.546633e+000  6.000000e+000
      vertex -2.500000e+001 -5.250000e+000  4.000000e+000
      vertex -2.500000e+001 -5.250000e+000  6.000000e+000
    endloop
  endfacet
  facet normal  0.000000e+000  1.000000e+000  0.000000e+000
    outer loop
      vertex -2.500000e+001  5.250000e+000  2.150000e+000
      vertex -2.500000e+001  5.250000e+000  4.000000e+000
      vertex -1.775000e+001  5.250000e+000  2.150000e+000
    endloop
  endfacet
  facet normal  0.000000e+000  1.000000e+000  -0.000000e+000
    outer loop
      vertex  1.775000e+001  5.250000e+000  2.150000e+000
      vertex  1.775000e+001  5.250000e+000 -2.150000e+000
      vertex -1.775000e+001  5.250000e+000 -2.150000e+000
    endloop
  endfacet
  facet normal  0.000000e+000  1.000000e+000  0.000000e+000
    outer loop
      vertex  1.775000e+001  5.250000e+000  2.150000e+000
      vertex -1.775000e+001  5.250000e+000 -2.150000e+000
      vertex -1.775000e+001  5.250000e+000  2.150000e+000
    endloop
  endfacet
  facet normal  0.000000e+000  1.000000e+000  -0.000000e+000
    outer loop
      vertex  1.775000e+001  5.250000e+000  2.150000e+000
      vertex -1.775000e+001  5.250000e+000  2.150000e+000
      vertex -2.500000e+001  5.250000e+000  4.000000e+000
    endloop
  endfacet
  facet normal  -0.000000e+000  1.000000e+000  0.000000e+000
    outer loop
      vertex  1.775000e+001  5.250000e+000  2.150000e+000
      vertex -2.500000e+001  5.250000e+000  4.000000e+000
      vertex -2.500000e+001  5.250000e+000  6.000000e+000
    endloop
  endfacet
  facet normal  -0.000000e+000  1.000000e+000  0.000000e+000
    outer loop
      vertex  1.775000e+001  5.250000e+000  2.150000e+000
      vertex -2.500000e+001  5.250000e+000  6.000000e+000
      vertex  2.500000e+001  5.250000e+000  6.000000e+000
    endloop
  endfacet
  facet normal  0.000000e+000  9.999999e-001  0.000000e+000
    outer loop
      vertex  1.775000e+001  5.250000e+000  2.150000e+000
      vertex  2.500000e+001  5.250000e+000  6.000000e+000
      vertex  2.500000e+001  5.250000e+000  2.150000e+000
    endloop
  endfacet
  facet normal  0.000000e+000  1.000000e+000  0.000000e+000
    outer loop
      vertex  2.500000e+001  5.250000e+000 -6.000000e+000
      vertex -2.500000e+001  5.250000e+000 -6.000000e+000
      vertex -2.500000e+001  5.250000e+000 -2.150000e+000
    endloop
  endfacet
  facet normal  -0.000000e+000  9.999999e-001  0.000000e+000
    outer loop
      vertex  2.500000e+001  5.250000e+000 -6.000000e+000
      vertex -2.500000e+001  5.250000e+000 -2.150000e+000
      vertex -1.775000e+001  5.250000e+000 -2.150000e+000
    endloop
  endfacet
  facet normal  -0.000000e+000  1.000000e+000  0.000000e+000
    outer loop
      vertex  2.500000e+001  5.250000e+000 -6.000000e+000
      vertex -1.775000e+001  5.250000e+000 -2.150000e+000
      vertex  1.775000e+001  5.250000e+000 -2.150000e+000
    endloop
  endfacet
  facet normal  -0.000000e+000  9.999999e-001  0.000000e+000
    outer loop
      vertex  2.500000e+001  5.250000e+000 -6.000000e+000
      vertex  1.775000e+001  5.250000e+000 -2.150000e+000
      vertex  2.500000e+001  5.250000e+000 -2.150000e+000
    endloop
  endfacet
  facet normal  0.000000e+000 -9.999999e-001  -0.000000e+000
    outer loop
      vertex  2.500000e+001 -5.250000e+000  2.150000e+000
      vertex  2.500000e+001 -5.250000e+000  6.000000e+000
      vertex  1.775000e+001 -5.250000e+000  2.150000e+000
    endloop
  endfacet
  facet normal  0.000000e+000 -1.000000e+000  0.000000e+000
    outer loop
      vertex -1.775000e+001 -5.250000e+000  2.150000e+000
      vertex -1.775000e+001 -5.250000e+000 -2.150000e+000
      vertex  1.775000e+001 -5.250000e+000 -2.150000e+000
    endloop
  endfacet
  facet normal  0.000000e+000 -1.000000e+000  0.000000e+000
    outer loop
      vertex -1.775000e+001 -5.250000e+000  2.150000e+000
      vertex  1.775000e+001 -5.250000e+000 -2.150000e+000
      vertex  1.775000e+001 -5.250000e+000  2.150000e+000
    endloop
  endfacet
  facet normal  0.000000e+000 -1.000000e+000  0.000000e+000
    outer loop
      vertex -1.775000e+001 -5.250000e+000  2.150000e+000
      vertex  1.775000e+001 -5.250000e+000  2.150000e+000
      vertex  2.500000e+001 -5.250000e+000  6.000000e+000
    endloop
  endfacet
  facet normal  -0.000000e+000 -1.000000e+000  0.000000e+000
    outer loop
      vertex -1.775000e+001 -5.250000e+000  2.150000e+000
      vertex  2.500000e+001 -5.250000e+000  6.000000e+000
      vertex -2.500000e+001 -5.250000e+000  6.000000e+000
    endloop
  endfacet
  facet normal  0.000000e+000 -1.000000e+000  0.000000e+000
    outer loop
      vertex -1.775000e+001 -5.250000e+000  2.150000e+000
      vertex -2.500000e+001 -5.250000e+000  6.000000e+000
      vertex -2.500000e+001 -5.250000e+000  4.000000e+000
    endloop
  endfacet
  facet normal  0.000000e+000 -1.000000e+000  0.000000e+000
    outer loop
      vertex -1.775000e+001 -5.250000e+000  2.150000e+000
      vertex -2.500000e+001 -5.250000e+000  4.000000e+000
      vertex -2.500000e+001 -5.250000e+000  2.150000e+000
    endloop
  endfacet
  facet normal  0.000000e+000 -1.000000e+000  0.000000e+000
    outer loop
      vertex -2.500000e+001 -5.250000e+000 -6.000000e+000
      vertex  2.500000e+001 -5.250000e+000 -6.000000e+000
      vertex  2.500000e+001 -5.250000e+000 -2.150000e+000
    endloop
  endfacet
  facet normal  -0.000000e+000 -9.999999e-001  0.000000e+000
    outer loop
      vertex -2.500000e+001 -5.250000e+000 -6.000000e+000
      vertex  2.500000e+001 -5.250000e+000 -2.150000e+000
      vertex  1.775000e+001 -5.250000e+000 -2.150000e+000
    endloop
  endfacet
  facet normal  -0.000000e+000 -1.000000e+000  0.000000e+000
    outer loop
      vertex -2.500000e+001 -5.250000e+000 -6.000000e+000
      vertex  1.775000e+001 -5.250000e+000 -2.150000e+000
      vertex -1.775000e+001 -5.250000e+000 -2.150000e+000
    endloop
  endfacet
  facet normal  -0.000000e+000 -9.999999e-001  0.000000e+000
    outer loop
      vertex -2.500000e+001 -5.250000e+000 -6.000000e+000
      vertex -1.775000e+001 -5.250000e+000 -2.150000e+000
      vertex -2.500000e+001 -5.250000e+000 -2.150000e+000
    endloop
  endfacet
  facet normal  2.588191e-001  9.659258e-001  0.000000e+000
    outer loop
      vertex  2.500000e+001  5.250000e+000  2.150000e+000
      vertex  2.500000e+001  5.250000e+000  6.000000e+000
      vertex  2.762500e+001  4.546633e+000  2.150000e+000
    endloop
  endfacet
  facet normal  2.588191e-001  9.659258e-001  -0.000000e+000
    outer loop
      vertex  2.762500e+001  4.546633e+000  2.150000e+000
      vertex  2.500000e+001  5.250000e+000  6.000000e+000
      vertex  2.762500e+001  4.546633e+000  6.000000e+000
    endloop
  endfacet
  facet normal  7.071068e-001  7.071066e-001  0.000000e+000
    outer loop
      vertex  2.762500e+001  4.546633e+000  2.150000e+000
      vertex  2.762500e+001  4.546633e+000  6.000000e+000
      vertex  2.954663e+001  2.625000e+000  2.150000e+000
    endloop
  endfacet
  facet normal  7.071068e-001  7.071066e-001  -0.000000e+000
    outer loop
      vertex  2.954663e+001  2.625000e+000  2.150000e+000
      vertex  2.762500e+001  4.546633e+000  6.000000e+000
      vertex  2.954663e+001  2.625000e+000  6.000000e+000
    endloop
  endfacet
  facet normal  9.659258e-001  2.588193e-001  0.000000e+000
    outer loop
      vertex  2.954663e+001  2.625000e+000  2.150000e+000
      vertex  2.954663e+001  2.625000e+000  6.000000e+000
      vertex  3.025000e+001 -7.550093e-015  2.150000e+000
    endloop
  endfacet
  facet normal  9.659258e-001  2.588193e-001 -6.269392e-016
    outer loop
      vertex  3.025000e+001 -7.550093e-015  2.150000e+000
      vertex  2.954663e+001  2.625000e+000  6.000000e+000
      vertex  3.025000e+001  1.775780e-015  6.000000e+000
    endloop
  endfacet
  facet normal  9.659258e-001 -2.588193e-001  6.269392e-016
    outer loop
      vertex  3.025000e+001 -7.550093e-015  2.150000e+000
      vertex  3.025000e+001  1.775780e-015  6.000000e+000
      vertex  2.954663e+001 -2.625000e+000  2.150000e+000
    endloop
  endfacet
  facet normal  9.659258e-001 -2.588193e-001  0.000000e+000
    outer loop
      vertex  2.954663e+001 -2.625000e+000  2.150000e+000
      vertex  3.025000e+001  1.775780e-015  6.000000e+000
      vertex  2.954663e+001 -2.625000e+000  6.000000e+000
    endloop
  endfacet
  facet normal  7.071068e-001 -7.071066e-001  0.000000e+000
    outer loop
      vertex  2.954663e+001 -2.625000e+000  2.150000e+000
      vertex  2.954663e+001 -2.625000e+000  6.000000e+000
      vertex  2.762500e+001 -4.546633e+000  2.150000e+000
    endloop
  endfacet
  facet normal  7.071068e-001 -7.071066e-001  0.000000e+000
    outer loop
      vertex  2.762500e+001 -4.546633e+000  2.150000e+000
      vertex  2.954663e+001 -2.625000e+000  6.000000e+000
      vertex  2.762500e+001 -4.546633e+000  6.000000e+000
    endloop
  endfacet
  facet normal  2.588191e-001 -9.659258e-001  0.000000e+000
    outer loop
      vertex  2.762500e+001 -4.546633e+000  2.150000e+000
      vertex  2.762500e+001 -4.546633e+000  6.000000e+000
      vertex  2.500000e+001 -5.250000e+000  2.150000e+000
    endloop
  endfacet
  facet normal  2.588191e-001 -9.659258e-001  0.000000e+000
    outer loop
      vertex  2.500000e+001 -5.250000e+000  2.150000e+000
      vertex  2.762500e+001 -4.546633e+000  6.000000e+000
      vertex  2.500000e+001 -5.250000e+000  6.000000e+000
    endloop
  endfacet
  facet normal  2.588191e-001  9.659258e-001  0.000000e+000
    outer loop
      vertex  2.500000e+001  5.250000e+000 -6.000000e+000
      vertex  2.500000e+001  5.250000e+000 -2.150000e+000
      vertex  2.762500e+001  4.546633e+000 -6.000000e+000
    endloop
  endfacet
  facet normal  2.588191e-001  9.659258e-001  -0.000000e+000
    outer loop
      vertex  2.762500e+001  4.546633e+000 -6.000000e+000
      vertex  2.500000e+001  5.250000e+000 -2.150000e+000
      vertex  2.762500e+001  4.546633e+000 -2.150000e+000
    endloop
  endfacet
  facet normal  7.071068e-001  7.071066e-001  0.000000e+000
    outer loop
      vertex  2.762500e+001  4.546633e+000 -6.000000e+000
      vertex  2.762500e+001  4.546633e+000 -2.150000e+000
      vertex  2.954663e+001  2.625000e+000 -6.000000e+000
    endloop
  endfacet
  facet normal  7.071068e-001  7.071066e-001  -0.000000e+000
    outer loop
      vertex  2.954663e+001  2.625000e+000 -6.000000e+000
      vertex  2.762500e+001  4.546633e+000 -2.150000e+000
      vertex  2.954663e+001  2.625000e+000 -2.150000e+000
    endloop
  endfacet
  facet normal  9.659258e-001  2.588193e-001  0.000000e+000
    outer loop
      vertex  2.954663e+001  2.625000e+000 -6.000000e+000
      vertex  2.954663e+001  2.625000e+000 -2.150000e+000
      vertex  3.025000e+001  1.775780e-015 -6.000000e+000
    endloop
  endfacet
  facet normal  9.659258e-001  2.588193e-001  6.269392e-016
    outer loop
      vertex  3.025000e+001  1.775780e-015 -6.000000e+000
      vertex  2.954663e+001  2.625000e+000 -2.150000e+000
      vertex  3.025000e+001 -7.550093e-015 -2.150000e+000
    endloop
  endfacet
  facet normal  9.659258e-001 -2.588193e-001 -6.269392e-016
    outer loop
      vertex  3.025000e+001  1.775780e-015 -6.000000e+000
      vertex  3.025000e+001 -7.550093e-015 -2.150000e+000
      vertex  2.954663e+001 -2.625000e+000 -6.000000e+000
    endloop
  endfacet
  facet normal  9.659258e-001 -2.588193e-001  0.000000e+000
    outer loop
      vertex  2.954663e+001 -2.625000e+000 -6.000000e+000
      vertex  3.025000e+001 -7.550093e-015 -2.150000e+000
      vertex  2.954663e+001 -2.625000e+000 -2.150000e+000
    endloop
  endfacet
  facet normal  7.071068e-001 -7.071066e-001  0.000000e+000
    outer loop
      vertex  2.954663e+001 -2.625000e+000 -6.000000e+000
      vertex  2.954663e+001 -2.625000e+000 -2.150000e+000
      vertex  2.762500e+001 -4.546633e+000 -6.000000e+000
    endloop
  endfacet
  facet normal  7.071068e-001 -7.071066e-001  0.000000e+000
    outer loop
      vertex  2.762500e+001 -4.546633e+000 -6.000000e+000
      vertex  2.954663e+001 -2.625000e+000 -2.150000e+000
      vertex  2.762500e+001 -4.546633e+000 -2.150000e+000
    endloop
  endfacet
  facet normal  2.588191e-001 -9.659258e-001  0.000000e+000
    outer loop
      vertex  2.762500e+001 -4.546633e+000 -6.000000e+000
      vertex  2.762500e+001 -4.546633e+000 -2.150000e+000
      vertex  2.500000e+001 -5.250000e+000 -6.000000e+000
    endloop
  endfacet
  facet normal  2.588191e-001 -9.659258e-001  0.000000e+000
    outer loop
      vertex  2.500000e+001 -5.250000e+000 -6.000000e+000
      vertex  2.762500e+001 -4.546633e+000 -2.150000e+000
      vertex  2.500000e+001 -5.250000e+000 -2.150000e+000
    endloop
  endfacet
  facet normal -2.588191e-001 -9.659258e-001  -0.000000e+000
    outer loop
      vertex -2.500000e+001 -5.250000e+000 -6.000000e+000
      vertex -2.500000e+001 -5.250000e+000 -2.150000e+000
      vertex -2.762500e+001 -4.546633e+000 -6.000000e+000
    endloop
  endfacet
  facet normal -2.588191e-001 -9.659258e-001  0.000000e+000
    outer loop
      vertex -2.762500e+001 -4.546633e+000 -6.000000e+000
      vertex -2.500000e+001 -5.250000e+000 -2.150000e+000
      vertex -2.762500e+001 -4.546633e+000 -2.150000e+000
    endloop
  endfacet
  facet normal -7.071068e-001 -7.071066e-001  -0.000000e+000
    outer loop
      vertex -2.762500e+001 -4.546633e+000 -6.000000e+000
      vertex -2.762500e+001 -4.546633e+000 -2.150000e+000
      vertex -2.954663e+001 -2.625000e+000 -6.000000e+000
    endloop
  endfacet
  facet normal -7.071068e-001 -7.071066e-001  0.000000e+000
    outer loop
      vertex -2.954663e+001 -2.625000e+000 -6.000000e+000
      vertex -2.762500e+001 -4.546633e+000 -2.150000e+000
      vertex -2.954663e+001 -2.625000e+000 -2.150000e+000
    endloop
  endfacet
  facet normal -9.659258e-001 -2.588193e-001  -0.000000e+000
    outer loop
      vertex -2.954663e+001 -2.625000e+000 -6.000000e+000
      vertex -2.954663e+001 -2.625000e+000 -2.150000e+000
      vertex -3.025000e+001 -8.723031e-017 -6.000000e+000
    endloop
  endfacet
  facet normal -9.659258e-001 -2.588193e-001 -1.567348e-016
    outer loop
      vertex -3.025000e+001 -8.723031e-017 -6.000000e+000
      vertex -2.954663e+001 -2.625000e+000 -2.150000e+000
      vertex -3.025000e+001 -2.418699e-015 -2.150000e+000
    endloop
  endfacet
  facet normal -9.659258e-001  2.588193e-001  1.567348e-016
    outer loop
      vertex -3.025000e+001 -8.723031e-017 -6.000000e+000
      vertex -3.025000e+001 -2.418699e-015 -2.150000e+000
      vertex -2.954663e+001  2.625000e+000 -6.000000e+000
    endloop
  endfacet
  facet normal -9.659258e-001  2.588193e-001  0.000000e+000
    outer loop
      vertex -2.954663e+001  2.625000e+000 -6.000000e+000
      vertex -3.025000e+001 -2.418699e-015 -2.150000e+000
      vertex -2.954663e+001  2.625000e+000 -2.150000e+000
    endloop
  endfacet
  facet normal -7.071068e-001  7.071066e-001  0.000000e+000
    outer loop
      vertex -2.954663e+001  2.625000e+000 -6.000000e+000
      vertex -2.954663e+001  2.625000e+000 -2.150000e+000
      vertex -2.762500e+001  4.546633e+000 -6.000000e+000
    endloop
  endfacet
  facet normal -7.071068e-001  7.071066e-001  0.000000e+000
    outer loop
      vertex -2.762500e+001  4.546633e+000 -6.000000e+000
      vertex -2.954663e+001  2.625000e+000 -2.150000e+000
      vertex -2.762500e+001  4.546633e+000 -2.150000e+000
    endloop
  endfacet
  facet normal -2.588191e-001  9.659258e-001  0.000000e+000
    outer loop
      vertex -2.762500e+001  4.546633e+000 -6.000000e+000
      vertex -2.762500e+001  4.546633e+000 -2.150000e+000
      vertex -2.500000e+001  5.250000e+000 -6.000000e+000
    endloop
  endfacet
  facet normal -2.588191e-001  9.659258e-001  0.000000e+000
    outer loop
      vertex -2.500000e+001  5.250000e+000 -6.000000e+000
      vertex -2.762500e+001  4.546633e+000 -2.150000e+000
      vertex -2.500000e+001  5.250000e+000 -2.150000e+000
    endloop
  endfacet
  facet normal -3.826836e-001  9.238795e-001  0.000000e+000
    outer loop
      vertex -2.500000e+001 -1.750000e+000 -6.000000e+000
      vertex -2.376256e+001 -1.237437e+000 -2.150000e+000
      vertex -2.376256e+001 -1.237437e+000 -6.000000e+000
    endloop
  endfacet
  facet normal -9.238794e-001  3.826838e-001  0.000000e+000
    outer loop
      vertex -2.376256e+001 -1.237437e+000 -6.000000e+000
      vertex -2.376256e+001 -1.237437e+000 -2.150000e+000
      vertex -2.325000e+001 -3.061617e-015 -2.150000e+000
    endloop
  endfacet
  facet normal -9.238794e-001  3.826838e-001  0.000000e+000
    outer loop
      vertex -2.376256e+001 -1.237437e+000 -6.000000e+000
      vertex -2.325000e+001 -3.061617e-015 -2.150000e+000
      vertex -2.325000e+001 -3.061617e-015 -6.000000e+000
    endloop
  endfacet
  facet normal -3.826836e-001  9.238795e-001  0.000000e+000
    outer loop
      vertex -2.376256e+001 -1.237437e+000 -2.150000e+000
      vertex -2.500000e+001 -1.750000e+000 -6.000000e+000
      vertex -2.500000e+001 -1.750000e+000 -2.150000e+000
    endloop
  endfacet
  facet normal  3.826836e-001  9.238795e-001  0.000000e+000
    outer loop
      vertex -2.500000e+001 -1.750000e+000 -2.150000e+000
      vertex -2.500000e+001 -1.750000e+000 -6.000000e+000
      vertex -2.623744e+001 -1.237437e+000 -6.000000e+000
    endloop
  endfacet
  facet normal  3.826836e-001  9.238795e-001  -0.000000e+000
    outer loop
      vertex -2.500000e+001 -1.750000e+000 -2.150000e+000
      vertex -2.623744e+001 -1.237437e+000 -6.000000e+000
      vertex -2.623744e+001 -1.237437e+000 -2.150000e+000
    endloop
  endfacet
  facet normal  9.238794e-001  3.826838e-001  0.000000e+000
    outer loop
      vertex -2.623744e+001 -1.237437e+000 -2.150000e+000
      vertex -2.623744e+001 -1.237437e+000 -6.000000e+000
      vertex -2.675000e+001 -2.847311e-015 -6.000000e+000
    endloop
  endfacet
  facet normal  9.238794e-001  3.826838e-001  -0.000000e+000
    outer loop
      vertex -2.623744e+001 -1.237437e+000 -2.150000e+000
      vertex -2.675000e+001 -2.847311e-015 -6.000000e+000
      vertex -2.675000e+001 -2.847311e-015 -2.150000e+000
    endloop
  endfacet
  facet normal  3.826836e-001 -9.238795e-001  0.000000e+000
    outer loop
      vertex -2.500000e+001  1.750000e+000 -6.000000e+000
      vertex -2.623744e+001  1.237437e+000 -2.150000e+000
      vertex -2.623744e+001  1.237437e+000 -6.000000e+000
    endloop
  endfacet
  facet normal  9.238794e-001 -3.826838e-001  0.000000e+000
    outer loop
      vertex -2.623744e+001  1.237437e+000 -6.000000e+000
      vertex -2.623744e+001  1.237437e+000 -2.150000e+000
      vertex -2.675000e+001 -2.847311e-015 -2.150000e+000
    endloop
  endfacet
  facet normal  9.238794e-001 -3.826838e-001  0.000000e+000
    outer loop
      vertex -2.623744e+001  1.237437e+000 -6.000000e+000
      vertex -2.675000e+001 -2.847311e-015 -2.150000e+000
      vertex -2.675000e+001 -2.847311e-015 -6.000000e+000
    endloop
  endfacet
  facet normal  3.826836e-001 -9.238795e-001  0.000000e+000
    outer loop
      vertex -2.623744e+001  1.237437e+000 -2.150000e+000
      vertex -2.500000e+001  1.750000e+000 -6.000000e+000
      vertex -2.500000e+001  1.750000e+000 -2.150000e+000
    endloop
  endfacet
  facet normal -3.826836e-001 -9.238795e-001  -0.000000e+000
    outer loop
      vertex -2.500000e+001  1.750000e+000 -2.150000e+000
      vertex -2.500000e+001  1.750000e+000 -6.000000e+000
      vertex -2.376256e+001  1.237437e+000 -6.000000e+000
    endloop
  endfacet
  facet normal -3.826836e-001 -9.238795e-001  0.000000e+000
    outer loop
      vertex -2.500000e+001  1.750000e+000 -2.150000e+000
      vertex -2.376256e+001  1.237437e+000 -6.000000e+000
      vertex -2.376256e+001  1.237437e+000 -2.150000e+000
    endloop
  endfacet
  facet normal -9.238794e-001 -3.826838e-001  -0.000000e+000
    outer loop
      vertex -2.376256e+001  1.237437e+000 -2.150000e+000
      vertex -2.376256e+001  1.237437e+000 -6.000000e+000
      vertex -2.325000e+001 -3.061617e-015 -6.000000e+000
    endloop
  endfacet
  facet normal -9.238794e-001 -3.826838e-001  0.000000e+000
    outer loop
      vertex -2.376256e+001  1.237437e+000 -2.150000e+000
      vertex -2.325000e+001 -3.061617e-015 -6.000000e+000
      vertex -2.325000e+001 -3.061617e-015 -2.150000e+000
    endloop
  endfacet
  facet normal -3.826836e-001  9.238795e-001  0.000000e+000
    outer loop
      vertex  2.500000e+001 -1.750000e+000  2.150000e+000
      vertex  2.623744e+001 -1.237437e+000  6.000000e+000
      vertex  2.623744e+001 -1.237437e+000  2.150000e+000
    endloop
  endfacet
  facet normal -9.238794e-001  3.826838e-001  0.000000e+000
    outer loop
      vertex  2.623744e+001 -1.237437e+000  2.150000e+000
      vertex  2.623744e+001 -1.237437e+000  6.000000e+000
      vertex  2.675000e+001  3.061617e-015  6.000000e+000
    endloop
  endfacet
  facet normal -9.238794e-001  3.826838e-001  0.000000e+000
    outer loop
      vertex  2.623744e+001 -1.237437e+000  2.150000e+000
      vertex  2.675000e+001  3.061617e-015  6.000000e+000
      vertex  2.675000e+001  3.061617e-015  2.150000e+000
    endloop
  endfacet
  facet normal -3.826836e-001  9.238795e-001  0.000000e+000
    outer loop
      vertex  2.623744e+001 -1.237437e+000  6.000000e+000
      vertex  2.500000e+001 -1.750000e+000  2.150000e+000
      vertex  2.500000e+001 -1.750000e+000  6.000000e+000
    endloop
  endfacet
  facet normal  3.826836e-001  9.238795e-001  0.000000e+000
    outer loop
      vertex  2.500000e+001 -1.750000e+000  6.000000e+000
      vertex  2.500000e+001 -1.750000e+000  2.150000e+000
      vertex  2.376256e+001 -1.237437e+000  2.150000e+000
    endloop
  endfacet
  facet normal  3.826836e-001  9.238795e-001  -0.000000e+000
    outer loop
      vertex  2.500000e+001 -1.750000e+000  6.000000e+000
      vertex  2.376256e+001 -1.237437e+000  2.150000e+000
      vertex  2.376256e+001 -1.237437e+000  6.000000e+000
    endloop
  endfacet
  facet normal  9.238794e-001  3.826838e-001  0.000000e+000
    outer loop
      vertex  2.376256e+001 -1.237437e+000  6.000000e+000
      vertex  2.376256e+001 -1.237437e+000  2.150000e+000
      vertex  2.325000e+001  3.275923e-015  2.150000e+000
    endloop
  endfacet
  facet normal  9.238794e-001  3.826838e-001  -0.000000e+000
    outer loop
      vertex  2.376256e+001 -1.237437e+000  6.000000e+000
      vertex  2.325000e+001  3.275923e-015  2.150000e+000
      vertex  2.325000e+001  3.275923e-015  6.000000e+000
    endloop
  endfacet
  facet normal -3.826836e-001  9.238795e-001  0.000000e+000
    outer loop
      vertex  2.500000e+001 -1.750000e+000 -6.000000e+000
      vertex  2.623744e+001 -1.237437e+000 -2.150000e+000
      vertex  2.623744e+001 -1.237437e+000 -6.000000e+000
    endloop
  endfacet
  facet normal -9.238794e-001  3.826838e-001  0.000000e+000
    outer loop
      vertex  2.623744e+001 -1.237437e+000 -6.000000e+000
      vertex  2.623744e+001 -1.237437e+000 -2.150000e+000
      vertex  2.675000e+001  3.061617e-015 -2.150000e+000
    endloop
  endfacet
  facet normal -9.238794e-001  3.826838e-001  0.000000e+000
    outer loop
      vertex  2.623744e+001 -1.237437e+000 -6.000000e+000
      vertex  2.675000e+001  3.061617e-015 -2.150000e+000
      vertex  2.675000e+001  3.061617e-015 -6.000000e+000
    endloop
  endfacet
  facet normal -3.826836e-001  9.238795e-001  0.000000e+000
    outer loop
      vertex  2.623744e+001 -1.237437e+000 -2.150000e+000
      vertex  2.500000e+001 -1.750000e+000 -6.000000e+000
      vertex  2.500000e+001 -1.750000e+000 -2.150000e+000
    endloop
  endfacet
  facet normal  3.826836e-001  9.238795e-001  0.000000e+000
    outer loop
      vertex  2.500000e+001 -1.750000e+000 -2.150000e+000
      vertex  2.500000e+001 -1.750000e+000 -6.000000e+000
      vertex  2.376256e+001 -1.237437e+000 -6.000000e+000
    endloop
  endfacet
  facet normal  3.826836e-001  9.238795e-001  -0.000000e+000
    outer loop
      vertex  2.500000e+001 -1.750000e+000 -2.150000e+000
      vertex  2.376256e+001 -1.237437e+000 -6.000000e+000
      vertex  2.376256e+001 -1.237437e+000 -2.150000e+000
    endloop
  endfacet
  facet normal  9.238794e-001  3.826838e-001  0.000000e+000
    outer loop
      vertex  2.376256e+001 -1.237437e+000 -2.150000e+000
      vertex  2.376256e+001 -1.237437e+000 -6.000000e+000
      vertex  2.325000e+001  3.275923e-015 -6.000000e+000
    endloop
  endfacet
  facet normal  9.238794e-001  3.826838e-001  -0.000000e+000
    outer loop
      vertex  2.376256e+001 -1.237437e+000 -2.150000e+000
      vertex  2.325000e+001  3.275923e-015 -6.000000e+000
      vertex  2.325000e+001  3.275923e-015 -2.150000e+000
    endloop
  endfacet
  facet normal  3.826836e-001 -9.238795e-001  0.000000e+000
    outer loop
      vertex  2.500000e+001  1.750000e+000  2.150000e+000
      vertex  2.376256e+001  1.237437e+000  6.000000e+000
      vertex  2.376256e+001  1.237437e+000  2.150000e+000
    endloop
  endfacet
  facet normal  9.238794e-001 -3.826838e-001  0.000000e+000
    outer loop
      vertex  2.376256e+001  1.237437e+000  2.150000e+000
      vertex  2.376256e+001  1.237437e+000  6.000000e+000
      vertex  2.325000e+001  3.275923e-015  6.000000e+000
    endloop
  endfacet
  facet normal  9.238794e-001 -3.826838e-001  0.000000e+000
    outer loop
      vertex  2.376256e+001  1.237437e+000  2.150000e+000
      vertex  2.325000e+001  3.275923e-015  6.000000e+000
      vertex  2.325000e+001  3.275923e-015  2.150000e+000
    endloop
  endfacet
  facet normal  3.826836e-001 -9.238795e-001  0.000000e+000
    outer loop
      vertex  2.376256e+001  1.237437e+000  6.000000e+000
      vertex  2.500000e+001  1.750000e+000  2.150000e+000
      vertex  2.500000e+001  1.750000e+000  6.000000e+000
    endloop
  endfacet
  facet normal -3.826836e-001 -9.238795e-001  -0.000000e+000
    outer loop
      vertex  2.500000e+001  1.750000e+000  6.000000e+000
      vertex  2.500000e+001  1.750000e+000  2.150000e+000
      vertex  2.623744e+001  1.237437e+000  2.150000e+000
    endloop
  endfacet
  facet normal -3.826836e-001 -9.238795e-001  0.000000e+000
    outer loop
      vertex  2.500000e+001  1.750000e+000  6.000000e+000
      vertex  2.623744e+001  1.237437e+000  2.150000e+000
      vertex  2.623744e+001  1.237437e+000  6.000000e+000
    endloop
  endfacet
  facet normal -9.238794e-001 -3.826838e-001  -0.000000e+000
    outer loop
      vertex  2.623744e+001  1.237437e+000  6.000000e+000
      vertex  2.623744e+001  1.237437e+000  2.150000e+000
      vertex  2.675000e+001  3.061617e-015  2.150000e+000
    endloop
  endfacet
  facet normal -9.238794e-001 -3.826838e-001  0.000000e+000
    outer loop
      vertex  2.623744e+001  1.237437e+000  6.000000e+000
      vertex  2.675000e+001  3.061617e-015  2.150000e+000
      vertex  2.675000e+001  3.061617e-015  6.000000e+000
    endloop
  endfacet
  facet normal  3.826836e-001 -9.238795e-001  0.000000e+000
    outer loop
      vertex  2.500000e+001  1.750000e+000 -6.000000e+000
      vertex  2.376256e+001  1.237437e+000 -2.150000e+000
      vertex  2.376256e+001  1.237437e+000 -6.000000e+000
    endloop
  endfacet
  facet normal  9.238794e-001 -3.826838e-001  0.000000e+000
    outer loop
      vertex  2.376256e+001  1.237437e+000 -6.000000e+000
      vertex  2.376256e+001  1.237437e+000 -2.150000e+000
      vertex  2.325000e+001  3.275923e-015 -2.150000e+000
    endloop
  endfacet
  facet normal  9.238794e-001 -3.826838e-001  0.000000e+000
    outer loop
      vertex  2.376256e+001  1.237437e+000 -6.000000e+000
      vertex  2.325000e+001  3.275923e-015 -2.150000e+000
      vertex  2.325000e+001  3.275923e-015 -6.000000e+000
    endloop
  endfacet
  facet normal  3.826836e-001 -9.238795e-001  0.000000e+000
    outer loop
      vertex  2.376256e+001  1.237437e+000 -2.150000e+000
      vertex  2.500000e+001  1.750000e+000 -6.000000e+000
      vertex  2.500000e+001  1.750000e+000 -2.150000e+000
    endloop
  endfacet
  facet normal -3.826836e-001 -9.238795e-001  -0.000000e+000
    outer loop
      vertex  2.500000e+001  1.750000e+000 -2.150000e+000
      vertex  2.500000e+001  1.750000e+000 -6.000000e+000
      vertex  2.623744e+001  1.237437e+000 -6.000000e+000
    endloop
  endfacet
  facet normal -3.826836e-001 -9.238795e-001  0.000000e+000
    outer loop
      vertex  2.500000e+001  1.750000e+000 -2.150000e+000
      vertex  2.623744e+001  1.237437e+000 -6.000000e+000
      vertex  2.623744e+001  1.237437e+000 -2.150000e+000
    endloop
  endfacet
  facet normal -9.238794e-001 -3.826838e-001  -0.000000e+000
    outer loop
      vertex  2.623744e+001  1.237437e+000 -2.150000e+000
      vertex  2.623744e+001  1.237437e+000 -6.000000e+000
      vertex  2.675000e+001  3.061617e-015 -6.000000e+000
    endloop
  endfacet
  facet normal -9.238794e-001 -3.826838e-001  0.000000e+000
    outer loop
      vertex  2.623744e+001  1.237437e+000 -2.150000e+000
      vertex  2.675000e+001  3.061617e-015 -6.000000e+000
      vertex  2.675000e+001  3.061617e-015 -2.150000e+000
    endloop
  endfacet
  facet normal  0.000000e+000  0.000000e+000 -1.000000e+000
    outer loop
      vertex -1.775000e+001 -5.250000e+000  2.150000e+000
      vertex -2.500000e+001 -5.250000e+000  2.150000e+000
      vertex -2.500000e+001 -1.750000e+000  2.150000e+000
    endloop
  endfacet
  facet normal  0.000000e+000  0.000000e+000 -1.000000e+000
    outer loop
      vertex -1.775000e+001 -5.250000e+000  2.150000e+000
      vertex -2.500000e+001 -1.750000e+000  2.150000e+000
      vertex -2.376256e+001 -1.237437e+000  2.150000e+000
    endloop
  endfacet
  facet normal  0.000000e+000  0.000000e+000 -1.000000e+000
    outer loop
      vertex -1.775000e+001 -5.250000e+000  2.150000e+000
      vertex -2.376256e+001 -1.237437e+000  2.150000e+000
      vertex -2.325000e+001 -3.061617e-015  2.150000e+000
    endloop
  endfacet
  facet normal  0.000000e+000  0.000000e+000 -1.000000e+000
    outer loop
      vertex -1.775000e+001 -5.250000e+000  2.150000e+000
      vertex -2.325000e+001 -3.061617e-015  2.150000e+000
      vertex -2.376256e+001  1.237437e+000  2.150000e+000
    endloop
  endfacet
  facet normal  0.000000e+000  0.000000e+000 -1.000000e+000
    outer loop
      vertex -1.775000e+001 -5.250000e+000  2.150000e+000
      vertex -2.376256e+001  1.237437e+000  2.150000e+000
      vertex -1.775000e+001  5.250000e+000  2.150000e+000
    endloop
  endfacet
  facet normal  0.000000e+000  0.000000e+000 -1.000000e+000
    outer loop
      vertex -2.376256e+001  1.237437e+000  2.150000e+000
      vertex -2.500000e+001  1.750000e+000  2.150000e+000
      vertex -1.775000e+001  5.250000e+000  2.150000e+000
    endloop
  endfacet
  facet normal  -0.000000e+000  0.000000e+000 -1.000000e+000
    outer loop
      vertex -1.775000e+001  5.250000e+000  2.150000e+000
      vertex -2.500000e+001  1.750000e+000  2.150000e+000
      vertex -2.500000e+001  5.250000e+000  2.150000e+000
    endloop
  endfacet
  facet normal  0.000000e+000  0.000000e+000 -1.000000e+000
    outer loop
      vertex -2.500000e+001  1.750000e+000  2.150000e+000
      vertex -2.954663e+001  2.625000e+000  2.150000e+000
      vertex -2.500000e+001  5.250000e+000  2.150000e+000
    endloop
  endfacet
  facet normal  0.000000e+000  0.000000e+000 -1.000000e+000
    outer loop
      vertex -2.500000e+001  5.250000e+000  2.150000e+000
      vertex -2.954663e+001  2.625000e+000  2.150000e+000
      vertex -2.762500e+001  4.546633e+000  2.150000e+000
    endloop
  endfacet
  facet normal  0.000000e+000  0.000000e+000 -1.000000e+000
    outer loop
      vertex -2.675000e+001 -2.847311e-015  2.150000e+000
      vertex -3.025000e+001 -2.418699e-015  2.150000e+000
      vertex -2.623744e+001  1.237437e+000  2.150000e+000
    endloop
  endfacet
  facet normal  -0.000000e+000  0.000000e+000 -1.000000e+000
    outer loop
      vertex -2.623744e+001  1.237437e+000  2.150000e+000
      vertex -3.025000e+001 -2.418699e-015  2.150000e+000
      vertex -2.954663e+001  2.625000e+000  2.150000e+000
    endloop
  endfacet
  facet normal  0.000000e+000  0.000000e+000 -1.000000e+000
    outer loop
      vertex -2.623744e+001  1.237437e+000  2.150000e+000
      vertex -2.954663e+001  2.625000e+000  2.150000e+000
      vertex -2.500000e+001  1.750000e+000  2.150000e+000
    endloop
  endfacet
  facet normal  0.000000e+000  0.000000e+000 -1.000000e+000
    outer loop
      vertex -2.500000e+001 -1.750000e+000  2.150000e+000
      vertex -2.954663e+001 -2.625000e+000  2.150000e+000
      vertex -2.623744e+001 -1.237437e+000  2.150000e+000
    endloop
  endfacet
  facet normal  -0.000000e+000  0.000000e+000 -1.000000e+000
    outer loop
      vertex -2.623744e+001 -1.237437e+000  2.150000e+000
      vertex -2.954663e+001 -2.625000e+000  2.150000e+000
      vertex -3.025000e+001 -2.418699e-015  2.150000e+000
    endloop
  endfacet
  facet normal  0.000000e+000  0.000000e+000 -1.000000e+000
    outer loop
      vertex -2.623744e+001 -1.237437e+000  2.150000e+000
      vertex -3.025000e+001 -2.418699e-015  2.150000e+000
      vertex -2.675000e+001 -2.847311e-015  2.150000e+000
    endloop
  endfacet
  facet normal  0.000000e+000  0.000000e+000 -9.999999e-001
    outer loop
      vertex -2.954663e+001 -2.625000e+000  2.150000e+000
      vertex -2.500000e+001 -1.750000e+000  2.150000e+000
      vertex -2.762500e+001 -4.546633e+000  2.150000e+000
    endloop
  endfacet
  facet normal  0.000000e+000  0.000000e+000 -1.000000e+000
    outer loop
      vertex -2.762500e+001 -4.546633e+000  2.150000e+000
      vertex -2.500000e+001 -1.750000e+000  2.150000e+000
      vertex -2.500000e+001 -5.250000e+000  2.150000e+000
    endloop
  endfacet
  facet normal  0.000000e+000  0.000000e+000  1.000000e+000
    outer loop
      vertex -1.775000e+001 -5.250000e+000 -2.150000e+000
      vertex -1.775000e+001  5.250000e+000 -2.150000e+000
      vertex -2.376256e+001  1.237437e+000 -2.150000e+000
    endloop
  endfacet
  facet normal  0.000000e+000  0.000000e+000  1.000000e+000
    outer loop
      vertex -1.775000e+001 -5.250000e+000 -2.150000e+000
      vertex -2.376256e+001  1.237437e+000 -2.150000e+000
      vertex -2.325000e+001 -3.061617e-015 -2.150000e+000
    endloop
  endfacet
  facet normal  0.000000e+000  0.000000e+000  1.000000e+000
    outer loop
      vertex -1.775000e+001 -5.250000e+000 -2.150000e+000
      vertex -2.325000e+001 -3.061617e-015 -2.150000e+000
      vertex -2.376256e+001 -1.237437e+000 -2.150000e+000
    endloop
  endfacet
  facet normal  0.000000e+000  0.000000e+000  1.000000e+000
    outer loop
      vertex -1.775000e+001 -5.250000e+000 -2.150000e+000
      vertex -2.376256e+001 -1.237437e+000 -2.150000e+000
      vertex -2.500000e+001 -1.750000e+000 -2.150000e+000
    endloop
  endfacet
  facet normal  0.000000e+000  0.000000e+000  1.000000e+000
    outer loop
      vertex -1.775000e+001 -5.250000e+000 -2.150000e+000
      vertex -2.500000e+001 -1.750000e+000 -2.150000e+000
      vertex -2.500000e+001 -5.250000e+000 -2.150000e+000
    endloop
  endfacet
  facet normal  0.000000e+000  0.000000e+000  1.000000e+000
    outer loop
      vertex -2.376256e+001  1.237437e+000 -2.150000e+000
      vertex -1.775000e+001  5.250000e+000 -2.150000e+000
      vertex -2.500000e+001  1.750000e+000 -2.150000e+000
    endloop
  endfacet
  facet normal  0.000000e+000  0.000000e+000  1.000000e+000
    outer loop
      vertex -2.500000e+001  1.750000e+000 -2.150000e+000
      vertex -1.775000e+001  5.250000e+000 -2.150000e+000
      vertex -2.500000e+001  5.250000e+000 -2.150000e+000
    endloop
  endfacet
  facet normal  0.000000e+000  0.000000e+000  1.000000e+000
    outer loop
      vertex -2.500000e+001  1.750000e+000 -2.150000e+000
      vertex -2.500000e+001  5.250000e+000 -2.150000e+000
      vertex -2.954663e+001  2.625000e+000 -2.150000e+000
    endloop
  endfacet
  facet normal  0.000000e+000  0.000000e+000  1.000000e+000
    outer loop
      vertex -2.954663e+001  2.625000e+000 -2.150000e+000
      vertex -2.500000e+001  5.250000e+000 -2.150000e+000
      vertex -2.762500e+001  4.546633e+000 -2.150000e+000
    endloop
  endfacet
  facet normal  0.000000e+000  0.000000e+000  1.000000e+000
    outer loop
      vertex -2.500000e+001  1.750000e+000 -2.150000e+000
      vertex -2.954663e+001  2.625000e+000 -2.150000e+000
      vertex -2.623744e+001  1.237437e+000 -2.150000e+000
    endloop
  endfacet
  facet normal  0.000000e+000  0.000000e+000  1.000000e+000
    outer loop
      vertex -2.623744e+001  1.237437e+000 -2.150000e+000
      vertex -2.954663e+001  2.625000e+000 -2.150000e+000
      vertex -3.025000e+001 -2.418699e-015 -2.150000e+000
    endloop
  endfacet
  facet normal  -0.000000e+000  0.000000e+000  1.000000e+000
    outer loop
      vertex -2.623744e+001  1.237437e+000 -2.150000e+000
      vertex -3.025000e+001 -2.418699e-015 -2.150000e+000
      vertex -2.675000e+001 -2.847311e-015 -2.150000e+000
    endloop
  endfacet
  facet normal  0.000000e+000  0.000000e+000  1.000000e+000
    outer loop
      vertex -2.675000e+001 -2.847311e-015 -2.150000e+000
      vertex -3.025000e+001 -2.418699e-015 -2.150000e+000
      vertex -2.623744e+001 -1.237437e+000 -2.150000e+000
    endloop
  endfacet
  facet normal  0.000000e+000  0.000000e+000  1.000000e+000
    outer loop
      vertex -2.623744e+001 -1.237437e+000 -2.150000e+000
      vertex -3.025000e+001 -2.418699e-015 -2.150000e+000
      vertex -2.954663e+001 -2.625000e+000 -2.150000e+000
    endloop
  endfacet
  facet normal  0.000000e+000  0.000000e+000  1.000000e+000
    outer loop
      vertex -2.623744e+001 -1.237437e+000 -2.150000e+000
      vertex -2.954663e+001 -2.625000e+000 -2.150000e+000
      vertex -2.500000e+001 -1.750000e+000 -2.150000e+000
    endloop
  endfacet
  facet normal  0.000000e+000  -0.000000e+000  9.999999e-001
    outer loop
      vertex -2.954663e+001 -2.625000e+000 -2.150000e+000
      vertex -2.762500e+001 -4.546633e+000 -2.150000e+000
      vertex -2.500000e+001 -1.750000e+000 -2.150000e+000
    endloop
  endfacet
  facet normal  0.000000e+000  0.000000e+000  1.000000e+000
    outer loop
      vertex -2.500000e+001 -1.750000e+000 -2.150000e+000
      vertex -2.762500e+001 -4.546633e+000 -2.150000e+000
      vertex -2.500000e+001 -5.250000e+000 -2.150000e+000
    endloop
  endfacet
  facet normal  0.000000e+000  0.000000e+000 -1.000000e+000
    outer loop
      vertex  2.500000e+001  1.750000e+000  2.150000e+000
      vertex  2.376256e+001  1.237437e+000  2.150000e+000
      vertex  2.500000e+001  5.250000e+000  2.150000e+000
    endloop
  endfacet
  facet normal  0.000000e+000  0.000000e+000 -1.000000e+000
    outer loop
      vertex  1.775000e+001 -5.250000e+000  2.150000e+000
      vertex  1.775000e+001  5.250000e+000  2.150000e+000
      vertex  2.500000e+001  5.250000e+000  2.150000e+000
    endloop
  endfacet
  facet normal  0.000000e+000  0.000000e+000 -1.000000e+000
    outer loop
      vertex  1.775000e+001 -5.250000e+000  2.150000e+000
      vertex  2.500000e+001  5.250000e+000  2.150000e+000
      vertex  2.376256e+001  1.237437e+000  2.150000e+000
    endloop
  endfacet
  facet normal  0.000000e+000  0.000000e+000 -1.000000e+000
    outer loop
      vertex  1.775000e+001 -5.250000e+000  2.150000e+000
      vertex  2.376256e+001  1.237437e+000  2.150000e+000
      vertex  2.325000e+001  3.275923e-015  2.150000e+000
    endloop
  endfacet
  facet normal  0.000000e+000  -0.000000e+000 -1.000000e+000
    outer loop
      vertex  1.775000e+001 -5.250000e+000  2.150000e+000
      vertex  2.325000e+001  3.275923e-015  2.150000e+000
      vertex  2.376256e+001 -1.237437e+000  2.150000e+000
    endloop
  endfacet
  facet normal  0.000000e+000  -0.000000e+000 -1.000000e+000
    outer loop
      vertex  1.775000e+001 -5.250000e+000  2.150000e+000
      vertex  2.376256e+001 -1.237437e+000  2.150000e+000
      vertex  2.500000e+001 -1.750000e+000  2.150000e+000
    endloop
  endfacet
  facet normal  0.000000e+000  -0.000000e+000 -1.000000e+000
    outer loop
      vertex  1.775000e+001 -5.250000e+000  2.150000e+000
      vertex  2.500000e+001 -1.750000e+000  2.150000e+000
      vertex  2.500000e+001 -5.250000e+000  2.150000e+000
    endloop
  endfacet
  facet normal  0.000000e+000  0.000000e+000 -1.000000e+000
    outer loop
      vertex  2.675000e+001  3.061617e-015  2.150000e+000
      vertex  2.623744e+001  1.237437e+000  2.150000e+000
      vertex  3.025000e+001 -7.550093e-015  2.150000e+000
    endloop
  endfacet
  facet normal  0.000000e+000  0.000000e+000 -1.000000e+000
    outer loop
      vertex  3.025000e+001 -7.550093e-015  2.150000e+000
      vertex  2.623744e+001  1.237437e+000  2.150000e+000
      vertex  2.500000e+001  1.750000e+000  2.150000e+000
    endloop
  endfacet
  facet normal  0.000000e+000  0.000000e+000 -1.000000e+000
    outer loop
      vertex  3.025000e+001 -7.550093e-015  2.150000e+000
      vertex  2.500000e+001  1.750000e+000  2.150000e+000
      vertex  2.954663e+001  2.625000e+000  2.150000e+000
    endloop
  endfacet
  facet normal  -0.000000e+000  0.000000e+000 -1.000000e+000
    outer loop
      vertex  2.954663e+001  2.625000e+000  2.150000e+000
      vertex  2.500000e+001  1.750000e+000  2.150000e+000
      vertex  2.500000e+001  5.250000e+000  2.150000e+000
    endloop
  endfacet
  facet normal  0.000000e+000  0.000000e+000 -1.000000e+000
    outer loop
      vertex  2.954663e+001  2.625000e+000  2.150000e+000
      vertex  2.500000e+001  5.250000e+000  2.150000e+000
      vertex  2.762500e+001  4.546633e+000  2.150000e+000
    endloop
  endfacet
  facet normal  0.000000e+000  -0.000000e+000 -1.000000e+000
    outer loop
      vertex  2.500000e+001 -1.750000e+000  2.150000e+000
      vertex  2.623744e+001 -1.237437e+000  2.150000e+000
      vertex  2.954663e+001 -2.625000e+000  2.150000e+000
    endloop
  endfacet
  facet normal  0.000000e+000  0.000000e+000 -1.000000e+000
    outer loop
      vertex  2.954663e+001 -2.625000e+000  2.150000e+000
      vertex  2.623744e+001 -1.237437e+000  2.150000e+000
      vertex  2.675000e+001  3.061617e-015  2.150000e+000
    endloop
  endfacet
  facet normal  0.000000e+000  0.000000e+000 -1.000000e+000
    outer loop
      vertex  2.954663e+001 -2.625000e+000  2.150000e+000
      vertex  2.675000e+001  3.061617e-015  2.150000e+000
      vertex  3.025000e+001 -7.550093e-015  2.150000e+000
    endloop
  endfacet
  facet normal  0.000000e+000  0.000000e+000 -1.000000e+000
    outer loop
      vertex  2.500000e+001 -5.250000e+000  2.150000e+000
      vertex  2.500000e+001 -1.750000e+000  2.150000e+000
      vertex  2.762500e+001 -4.546633e+000  2.150000e+000
    endloop
  endfacet
  facet normal  0.000000e+000  0.000000e+000 -9.999999e-001
    outer loop
      vertex  2.762500e+001 -4.546633e+000  2.150000e+000
      vertex  2.500000e+001 -1.750000e+000  2.150000e+000
      vertex  2.954663e+001 -2.625000e+000  2.150000e+000
    endloop
  endfacet
  facet normal  0.000000e+000  0.000000e+000  1.000000e+000
    outer loop
      vertex  2.500000e+001  5.250000e+000 -2.150000e+000
      vertex  2.376256e+001  1.237437e+000 -2.150000e+000
      vertex  2.500000e+001  1.750000e+000 -2.150000e+000
    endloop
  endfacet
  facet normal  0.000000e+000  -0.000000e+000  1.000000e+000
    outer loop
      vertex  1.775000e+001 -5.250000e+000 -2.150000e+000
      vertex  2.500000e+001 -5.250000e+000 -2.150000e+000
      vertex  2.500000e+001 -1.750000e+000 -2.150000e+000
    endloop
  endfacet
  facet normal  0.000000e+000  0.000000e+000  1.000000e+000
    outer loop
      vertex  1.775000e+001 -5.250000e+000 -2.150000e+000
      vertex  2.500000e+001 -1.750000e+000 -2.150000e+000
      vertex  2.376256e+001 -1.237437e+000 -2.150000e+000
    endloop
  endfacet
  facet normal  0.000000e+000  0.000000e+000  1.000000e+000
    outer loop
      vertex  1.775000e+001 -5.250000e+000 -2.150000e+000
      vertex  2.376256e+001 -1.237437e+000 -2.150000e+000
      vertex  2.325000e+001  3.275923e-015 -2.150000e+000
    endloop
  endfacet
  facet normal  0.000000e+000  -0.000000e+000  1.000000e+000
    outer loop
      vertex  1.775000e+001 -5.250000e+000 -2.150000e+000
      vertex  2.325000e+001  3.275923e-015 -2.150000e+000
      vertex  2.376256e+001  1.237437e+000 -2.150000e+000
    endloop
  endfacet
  facet normal  0.000000e+000  -0.000000e+000  1.000000e+000
    outer loop
      vertex  1.775000e+001 -5.250000e+000 -2.150000e+000
      vertex  2.376256e+001  1.237437e+000 -2.150000e+000
      vertex  2.500000e+001  5.250000e+000 -2.150000e+000
    endloop
  endfacet
  facet normal  0.000000e+000  0.000000e+000  1.000000e+000
    outer loop
      vertex  1.775000e+001 -5.250000e+000 -2.150000e+000
      vertex  2.500000e+001  5.250000e+000 -2.150000e+000
      vertex  1.775000e+001  5.250000e+000 -2.150000e+000
    endloop
  endfacet
  facet normal  0.000000e+000  0.000000e+000  1.000000e+000
    outer loop
      vertex  2.762500e+001  4.546633e+000 -2.150000e+000
      vertex  2.500000e+001  5.250000e+000 -2.150000e+000
      vertex  2.954663e+001  2.625000e+000 -2.150000e+000
    endloop
  endfacet
  facet normal  0.000000e+000  0.000000e+000  1.000000e+000
    outer loop
      vertex  2.954663e+001  2.625000e+000 -2.150000e+000
      vertex  2.500000e+001  5.250000e+000 -2.150000e+000
      vertex  2.500000e+001  1.750000e+000 -2.150000e+000
    endloop
  endfacet
  facet normal  -0.000000e+000  0.000000e+000  1.000000e+000
    outer loop
      vertex  2.954663e+001  2.625000e+000 -2.150000e+000
      vertex  2.500000e+001  1.750000e+000 -2.150000e+000
      vertex  3.025000e+001 -7.550093e-015 -2.150000e+000
    endloop
  endfacet
  facet normal  0.000000e+000  0.000000e+000  1.000000e+000
    outer loop
      vertex  3.025000e+001 -7.550093e-015 -2.150000e+000
      vertex  2.500000e+001  1.750000e+000 -2.150000e+000
      vertex  2.623744e+001  1.237437e+000 -2.150000e+000
    endloop
  endfacet
  facet normal  0.000000e+000  0.000000e+000  1.000000e+000
    outer loop
      vertex  3.025000e+001 -7.550093e-015 -2.150000e+000
      vertex  2.623744e+001  1.237437e+000 -2.150000e+000
      vertex  2.675000e+001  3.061617e-015 -2.150000e+000
    endloop
  endfacet
  facet normal  0.000000e+000  0.000000e+000  1.000000e+000
    outer loop
      vertex  3.025000e+001 -7.550093e-015 -2.150000e+000
      vertex  2.675000e+001  3.061617e-015 -2.150000e+000
      vertex  2.954663e+001 -2.625000e+000 -2.150000e+000
    endloop
  endfacet
  facet normal  0.000000e+000  0.000000e+000  1.000000e+000
    outer loop
      vertex  2.954663e+001 -2.625000e+000 -2.150000e+000
      vertex  2.675000e+001  3.061617e-015 -2.150000e+000
      vertex  2.623744e+001 -1.237437e+000 -2.150000e+000
    endloop
  endfacet
  facet normal  0.000000e+000  0.000000e+000  1.000000e+000
    outer loop
      vertex  2.954663e+001 -2.625000e+000 -2.150000e+000
      vertex  2.623744e+001 -1.237437e+000 -2.150000e+000
      vertex  2.500000e+001 -1.750000e+000 -2.150000e+000
    endloop
  endfacet
  facet normal  0.000000e+000  0.000000e+000  1.000000e+000
    outer loop
      vertex  2.500000e+001 -5.250000e+000 -2.150000e+000
      vertex  2.762500e+001 -4.546633e+000 -2.150000e+000
      vertex  2.500000e+001 -1.750000e+000 -2.150000e+000
    endloop
  endfacet
  facet normal  0.000000e+000  0.000000e+000  9.999999e-001
    outer loop
      vertex  2.500000e+001 -1.750000e+000 -2.150000e+000
      vertex  2.762500e+001 -4.546633e+000 -2.150000e+000
      vertex  2.954663e+001 -2.625000e+000 -2.150000e+000
    endloop
  endfacet
  facet normal -1.000000e+000  0.000000e+000  0.000000e+000
    outer loop
      vertex -1.775000e+001 -5.250000e+000 -2.150000e+000
      vertex -1.775000e+001 -5.250000e+000  2.150000e+000
      vertex -1.775000e+001  5.250000e+000 -2.150000e+000
    endloop
  endfacet
  facet normal -1.000000e+000  0.000000e+000  0.000000e+000
    outer loop
      vertex -1.775000e+001  5.250000e+000 -2.150000e+000
      vertex -1.775000e+001 -5.250000e+000  2.150000e+000
      vertex -1.775000e+001  5.250000e+000  2.150000e+000
    endloop
  endfacet
  facet normal  1.000000e+000  0.000000e+000  0.000000e+000
    outer loop
      vertex  1.775000e+001 -5.250000e+000 -2.150000e+000
      vertex  1.775000e+001  5.250000e+000 -2.150000e+000
      vertex  1.775000e+001 -5.250000e+000  2.150000e+000
    endloop
  endfacet
  facet normal  1.000000e+000  -0.000000e+000  0.000000e+000
    outer loop
      vertex  1.775000e+001 -5.250000e+000  2.150000e+000
      vertex  1.775000e+001  5.250000e+000 -2.150000e+000
      vertex  1.775000e+001  5.250000e+000  2.150000e+000
    endloop
  endfacet
  facet normal  0.000000e+000  0.000000e+000 -1.000000e+000
    outer loop
      vertex -2.954663e+001 -2.625000e+000 -6.000000e+000
      vertex -3.025000e+001 -8.723031e-017 -6.000000e+000
      vertex -2.675000e+001 -2.847311e-015 -6.000000e+000
    endloop
  endfacet
  facet normal  0.000000e+000  -0.000000e+000 -1.000000e+000
    outer loop
      vertex -2.954663e+001 -2.625000e+000 -6.000000e+000
      vertex -2.675000e+001 -2.847311e-015 -6.000000e+000
      vertex -2.623744e+001 -1.237437e+000 -6.000000e+000
    endloop
  endfacet
  facet normal  0.000000e+000  -0.000000e+000 -1.000000e+000
    outer loop
      vertex -2.954663e+001 -2.625000e+000 -6.000000e+000
      vertex -2.623744e+001 -1.237437e+000 -6.000000e+000
      vertex -2.500000e+001 -1.750000e+000 -6.000000e+000
    endloop
  endfacet
  facet normal  0.000000e+000  -0.000000e+000 -1.000000e+000
    outer loop
      vertex -2.954663e+001 -2.625000e+000 -6.000000e+000
      vertex -2.500000e+001 -1.750000e+000 -6.000000e+000
      vertex -2.500000e+001 -5.250000e+000 -6.000000e+000
    endloop
  endfacet
  facet normal  0.000000e+000  0.000000e+000 -1.000000e+000
    outer loop
      vertex -2.954663e+001 -2.625000e+000 -6.000000e+000
      vertex -2.500000e+001 -5.250000e+000 -6.000000e+000
      vertex -2.762500e+001 -4.546633e+000 -6.000000e+000
    endloop
  endfacet
  facet normal  0.000000e+000  -0.000000e+000 -9.999999e-001
    outer loop
      vertex  2.500000e+001  1.750000e+000 -6.000000e+000
      vertex  2.762500e+001  4.546633e+000 -6.000000e+000
      vertex  2.954663e+001  2.625000e+000 -6.000000e+000
    endloop
  endfacet
  facet normal  0.000000e+000  0.000000e+000 -1.000000e+000
    outer loop
      vertex  2.762500e+001  4.546633e+000 -6.000000e+000
      vertex  2.500000e+001  1.750000e+000 -6.000000e+000
      vertex  2.500000e+001  5.250000e+000 -6.000000e+000
    endloop
  endfacet
  facet normal  0.000000e+000  -0.000000e+000 -1.000000e+000
    outer loop
      vertex  2.500000e+001  5.250000e+000 -6.000000e+000
      vertex  2.500000e+001  1.750000e+000 -6.000000e+000
      vertex -2.500000e+001  1.750000e+000 -6.000000e+000
    endloop
  endfacet
  facet normal  0.000000e+000  0.000000e+000 -1.000000e+000
    outer loop
      vertex  2.500000e+001  5.250000e+000 -6.000000e+000
      vertex -2.500000e+001  1.750000e+000 -6.000000e+000
      vertex -2.500000e+001  5.250000e+000 -6.000000e+000
    endloop
  endfacet
  facet normal  0.000000e+000  -0.000000e+000 -1.000000e+000
    outer loop
      vertex -2.500000e+001  5.250000e+000 -6.000000e+000
      vertex -2.500000e+001  1.750000e+000 -6.000000e+000
      vertex -2.954663e+001  2.625000e+000 -6.000000e+000
    endloop
  endfacet
  facet normal  0.000000e+000  0.000000e+000 -1.000000e+000
    outer loop
      vertex -2.500000e+001  5.250000e+000 -6.000000e+000
      vertex -2.954663e+001  2.625000e+000 -6.000000e+000
      vertex -2.762500e+001  4.546633e+000 -6.000000e+000
    endloop
  endfacet
  facet normal  0.000000e+000  0.000000e+000 -1.000000e+000
    outer loop
      vertex -2.675000e+001 -2.847311e-015 -6.000000e+000
      vertex -3.025000e+001 -8.723031e-017 -6.000000e+000
      vertex -2.623744e+001  1.237437e+000 -6.000000e+000
    endloop
  endfacet
  facet normal  -0.000000e+000  0.000000e+000 -1.000000e+000
    outer loop
      vertex -2.623744e+001  1.237437e+000 -6.000000e+000
      vertex -3.025000e+001 -8.723031e-017 -6.000000e+000
      vertex -2.954663e+001  2.625000e+000 -6.000000e+000
    endloop
  endfacet
  facet normal  0.000000e+000  0.000000e+000 -1.000000e+000
    outer loop
      vertex -2.623744e+001  1.237437e+000 -6.000000e+000
      vertex -2.954663e+001  2.625000e+000 -6.000000e+000
      vertex -2.500000e+001  1.750000e+000 -6.000000e+000
    endloop
  endfacet
  facet normal  0.000000e+000  0.000000e+000 -1.000000e+000
    outer loop
      vertex  2.325000e+001  3.275923e-015 -6.000000e+000
      vertex -2.376256e+001  1.237437e+000 -6.000000e+000
      vertex  2.376256e+001  1.237437e+000 -6.000000e+000
    endloop
  endfacet
  facet normal  0.000000e+000  0.000000e+000 -1.000000e+000
    outer loop
      vertex  2.376256e+001  1.237437e+000 -6.000000e+000
      vertex -2.376256e+001  1.237437e+000 -6.000000e+000
      vertex -2.500000e+001  1.750000e+000 -6.000000e+000
    endloop
  endfacet
  facet normal  0.000000e+000  0.000000e+000 -9.999999e-001
    outer loop
      vertex  2.376256e+001  1.237437e+000 -6.000000e+000
      vertex -2.500000e+001  1.750000e+000 -6.000000e+000
      vertex  2.500000e+001  1.750000e+000 -6.000000e+000
    endloop
  endfacet
  facet normal  -0.000000e+000  0.000000e+000 -1.000000e+000
    outer loop
      vertex -2.376256e+001  1.237437e+000 -6.000000e+000
      vertex  2.325000e+001  3.275923e-015 -6.000000e+000
      vertex -2.325000e+001 -3.061617e-015 -6.000000e+000
    endloop
  endfacet
  facet normal  0.000000e+000  0.000000e+000 -1.000000e+000
    outer loop
      vertex -2.325000e+001 -3.061617e-015 -6.000000e+000
      vertex  2.325000e+001  3.275923e-015 -6.000000e+000
      vertex  2.376256e+001 -1.237437e+000 -6.000000e+000
    endloop
  endfacet
  facet normal  0.000000e+000  0.000000e+000 -1.000000e+000
    outer loop
      vertex -2.325000e+001 -3.061617e-015 -6.000000e+000
      vertex  2.376256e+001 -1.237437e+000 -6.000000e+000
      vertex -2.376256e+001 -1.237437e+000 -6.000000e+000
    endloop
  endfacet
  facet normal  0.000000e+000  0.000000e+000 -1.000000e+000
    outer loop
      vertex -2.376256e+001 -1.237437e+000 -6.000000e+000
      vertex  2.376256e+001 -1.237437e+000 -6.000000e+000
      vertex  2.500000e+001 -1.750000e+000 -6.000000e+000
    endloop
  endfacet
  facet normal  0.000000e+000  0.000000e+000 -9.999999e-001
    outer loop
      vertex -2.376256e+001 -1.237437e+000 -6.000000e+000
      vertex  2.500000e+001 -1.750000e+000 -6.000000e+000
      vertex -2.500000e+001 -1.750000e+000 -6.000000e+000
    endloop
  endfacet
  facet normal  0.000000e+000  0.000000e+000 -1.000000e+000
    outer loop
      vertex -2.500000e+001 -1.750000e+000 -6.000000e+000
      vertex  2.500000e+001 -1.750000e+000 -6.000000e+000
      vertex  2.500000e+001 -5.250000e+000 -6.000000e+000
    endloop
  endfacet
  facet normal  0.000000e+000  0.000000e+000 -1.000000e+000
    outer loop
      vertex -2.500000e+001 -1.750000e+000 -6.000000e+000
      vertex  2.500000e+001 -5.250000e+000 -6.000000e+000
      vertex -2.500000e+001 -5.250000e+000 -6.000000e+000
    endloop
  endfacet
  facet normal  0.000000e+000  0.000000e+000 -1.000000e+000
    outer loop
      vertex  2.675000e+001  3.061617e-015 -6.000000e+000
      vertex  2.623744e+001  1.237437e+000 -6.000000e+000
      vertex  3.025000e+001  1.775780e-015 -6.000000e+000
    endloop
  endfacet
  facet normal  0.000000e+000  0.000000e+000 -1.000000e+000
    outer loop
      vertex  3.025000e+001  1.775780e-015 -6.000000e+000
      vertex  2.623744e+001  1.237437e+000 -6.000000e+000
      vertex  2.500000e+001  1.750000e+000 -6.000000e+000
    endloop
  endfacet
  facet normal  0.000000e+000  0.000000e+000 -1.000000e+000
    outer loop
      vertex  3.025000e+001  1.775780e-015 -6.000000e+000
      vertex  2.500000e+001  1.750000e+000 -6.000000e+000
      vertex  2.954663e+001  2.625000e+000 -6.000000e+000
    endloop
  endfacet
  facet normal  0.000000e+000  -0.000000e+000 -1.000000e+000
    outer loop
      vertex  2.500000e+001 -1.750000e+000 -6.000000e+000
      vertex  2.623744e+001 -1.237437e+000 -6.000000e+000
      vertex  2.954663e+001 -2.625000e+000 -6.000000e+000
    endloop
  endfacet
  facet normal  0.000000e+000  0.000000e+000 -1.000000e+000
    outer loop
      vertex  2.954663e+001 -2.625000e+000 -6.000000e+000
      vertex  2.623744e+001 -1.237437e+000 -6.000000e+000
      vertex  2.675000e+001  3.061617e-015 -6.000000e+000
    endloop
  endfacet
  facet normal  0.000000e+000  0.000000e+000 -1.000000e+000
    outer loop
      vertex  2.954663e+001 -2.625000e+000 -6.000000e+000
      vertex  2.675000e+001  3.061617e-015 -6.000000e+000
      vertex  3.025000e+001  1.775780e-015 -6.000000e+000
    endloop
  endfacet
  facet normal  0.000000e+000  0.000000e+000 -1.000000e+000
    outer loop
      vertex  2.500000e+001 -5.250000e+000 -6.000000e+000
      vertex  2.500000e+001 -1.750000e+000 -6.000000e+000
      vertex  2.762500e+001 -4.546633e+000 -6.000000e+000
    endloop
  endfacet
  facet normal  0.000000e+000  0.000000e+000 -9.999999e-001
    outer loop
      vertex  2.762500e+001 -4.546633e+000 -6.000000e+000
      vertex  2.500000e+001 -1.750000e+000 -6.000000e+000
      vertex  2.954663e+001 -2.625000e+000 -6.000000e+000
    endloop
  endfacet
endsolid CATIA STL
