solid CATIA STL
  facet normal  0.000000e+000  0.000000e+000 -1.000000e+000
    outer loop
      vertex -3.250000e+001 -3.000000e+001  0.000000e+000
      vertex -3.250000e+001  1.000000e+001  0.000000e+000
      vertex  3.250000e+001 -3.000000e+001  0.000000e+000
    endloop
  endfacet
  facet normal  0.000000e+000  0.000000e+000 -1.000000e+000
    outer loop
      vertex  3.250000e+001 -3.000000e+001  0.000000e+000
      vertex -3.250000e+001  1.000000e+001  0.000000e+000
      vertex  3.250000e+001  1.000000e+001  0.000000e+000
    endloop
  endfacet
  facet normal -1.000000e+000  0.000000e+000  0.000000e+000
    outer loop
      vertex  2.650000e+001  7.500000e+000  3.000000e+000
      vertex  2.650000e+001 -7.500000e+000  3.000000e+000
      vertex  2.650000e+001  7.500000e+000  1.800000e+001
    endloop
  endfacet
  facet normal -1.000000e+000  -0.000000e+000  0.000000e+000
    outer loop
      vertex  2.650000e+001  7.500000e+000  1.800000e+001
      vertex  2.650000e+001 -7.500000e+000  3.000000e+000
      vertex  2.650000e+001 -7.500000e+000  1.800000e+001
    endloop
  endfacet
  facet normal  0.000000e+000 -1.000000e+000  0.000000e+000
    outer loop
      vertex  2.650000e+001 -7.500000e+000  1.800000e+001
      vertex  2.650000e+001 -7.500000e+000  3.000000e+000
      vertex  3.050000e+001 -7.500000e+000  1.800000e+001
    endloop
  endfacet
  facet normal  0.000000e+000 -1.000000e+000  -0.000000e+000
    outer loop
      vertex  3.050000e+001 -7.500000e+000  1.800000e+001
      vertex  2.650000e+001 -7.500000e+000  3.000000e+000
      vertex  3.050000e+001 -7.500000e+000  3.000000e+000
    endloop
  endfacet
  facet normal  1.000000e+000  0.000000e+000  0.000000e+000
    outer loop
      vertex  3.050000e+001 -7.500000e+000  3.000000e+000
      vertex  3.050000e+001  7.500000e+000  3.000000e+000
      vertex  3.050000e+001 -7.500000e+000  1.800000e+001
    endloop
  endfacet
  facet normal  1.000000e+000  -0.000000e+000  0.000000e+000
    outer loop
      vertex  3.050000e+001 -7.500000e+000  1.800000e+001
      vertex  3.050000e+001  7.500000e+000  3.000000e+000
      vertex  3.050000e+001  7.500000e+000  1.800000e+001
    endloop
  endfacet
  facet normal  0.000000e+000  1.000000e+000  -0.000000e+000
    outer loop
      vertex  3.050000e+001  7.500000e+000  1.800000e+001
      vertex  3.050000e+001  7.500000e+000  3.000000e+000
      vertex  2.650000e+001  7.500000e+000  1.800000e+001
    endloop
  endfacet
  facet normal  0.000000e+000  1.000000e+000  0.000000e+000
    outer loop
      vertex  2.650000e+001  7.500000e+000  1.800000e+001
      vertex  3.050000e+001  7.500000e+000  3.000000e+000
      vertex  2.650000e+001  7.500000e+000  3.000000e+000
    endloop
  endfacet
  facet normal  0.000000e+000  1.000000e+000  -0.000000e+000
    outer loop
      vertex -2.650000e+001  7.500000e+000  1.800000e+001
      vertex -2.650000e+001  7.500000e+000  3.000000e+000
      vertex -3.050000e+001  7.500000e+000  1.800000e+001
    endloop
  endfacet
  facet normal  0.000000e+000  1.000000e+000  0.000000e+000
    outer loop
      vertex -3.050000e+001  7.500000e+000  1.800000e+001
      vertex -2.650000e+001  7.500000e+000  3.000000e+000
      vertex -3.050000e+001  7.500000e+000  3.000000e+000
    endloop
  endfacet
  facet normal -1.000000e+000  0.000000e+000  0.000000e+000
    outer loop
      vertex -3.050000e+001 -7.500000e+000  3.000000e+000
      vertex -3.050000e+001 -7.500000e+000  1.800000e+001
      vertex -3.050000e+001  7.500000e+000  3.000000e+000
    endloop
  endfacet
  facet normal -1.000000e+000  0.000000e+000  0.000000e+000
    outer loop
      vertex -3.050000e+001  7.500000e+000  3.000000e+000
      vertex -3.050000e+001 -7.500000e+000  1.800000e+001
      vertex -3.050000e+001  7.500000e+000  1.800000e+001
    endloop
  endfacet
  facet normal  0.000000e+000 -1.000000e+000  0.000000e+000
    outer loop
      vertex -3.050000e+001 -7.500000e+000  1.800000e+001
      vertex -3.050000e+001 -7.500000e+000  3.000000e+000
      vertex -2.650000e+001 -7.500000e+000  1.800000e+001
    endloop
  endfacet
  facet normal  0.000000e+000 -1.000000e+000  -0.000000e+000
    outer loop
      vertex -2.650000e+001 -7.500000e+000  1.800000e+001
      vertex -3.050000e+001 -7.500000e+000  3.000000e+000
      vertex -2.650000e+001 -7.500000e+000  3.000000e+000
    endloop
  endfacet
  facet normal  1.000000e+000  0.000000e+000  0.000000e+000
    outer loop
      vertex -2.650000e+001  7.500000e+000  3.000000e+000
      vertex -2.650000e+001  7.500000e+000  1.800000e+001
      vertex -2.650000e+001 -7.500000e+000  3.000000e+000
    endloop
  endfacet
  facet normal  1.000000e+000  0.000000e+000  0.000000e+000
    outer loop
      vertex -2.650000e+001 -7.500000e+000  3.000000e+000
      vertex -2.650000e+001  7.500000e+000  1.800000e+001
      vertex -2.650000e+001 -7.500000e+000  1.800000e+001
    endloop
  endfacet
  facet normal  0.000000e+000  0.000000e+000  1.000000e+000
    outer loop
      vertex -3.250000e+001 -3.000000e+001  3.000000e+000
      vertex  3.250000e+001 -3.000000e+001  3.000000e+000
      vertex  3.050000e+001 -7.500000e+000  3.000000e+000
    endloop
  endfacet
  facet normal  0.000000e+000  0.000000e+000  1.000000e+000
    outer loop
      vertex -3.250000e+001 -3.000000e+001  3.000000e+000
      vertex  3.050000e+001 -7.500000e+000  3.000000e+000
      vertex  2.650000e+001 -7.500000e+000  3.000000e+000
    endloop
  endfacet
  facet normal  0.000000e+000  0.000000e+000  1.000000e+000
    outer loop
      vertex -3.250000e+001 -3.000000e+001  3.000000e+000
      vertex  2.650000e+001 -7.500000e+000  3.000000e+000
      vertex -2.650000e+001 -7.500000e+000  3.000000e+000
    endloop
  endfacet
  facet normal  0.000000e+000  0.000000e+000  1.000000e+000
    outer loop
      vertex -3.250000e+001 -3.000000e+001  3.000000e+000
      vertex -2.650000e+001 -7.500000e+000  3.000000e+000
      vertex -3.050000e+001 -7.500000e+000  3.000000e+000
    endloop
  endfacet
  facet normal  0.000000e+000  -0.000000e+000  1.000000e+000
    outer loop
      vertex -3.250000e+001 -3.000000e+001  3.000000e+000
      vertex -3.050000e+001 -7.500000e+000  3.000000e+000
      vertex -3.050000e+001  7.500000e+000  3.000000e+000
    endloop
  endfacet
  facet normal  0.000000e+000  0.000000e+000  1.000000e+000
    outer loop
      vertex -3.250000e+001  1.000000e+001  3.000000e+000
      vertex -3.250000e+001 -3.000000e+001  3.000000e+000
      vertex -3.050000e+001  7.500000e+000  3.000000e+000
    endloop
  endfacet
  facet normal  0.000000e+000  -0.000000e+000  1.000000e+000
    outer loop
      vertex -3.250000e+001  1.000000e+001  3.000000e+000
      vertex -3.050000e+001  7.500000e+000  3.000000e+000
      vertex -2.650000e+001  7.500000e+000  3.000000e+000
    endloop
  endfacet
  facet normal  0.000000e+000  -0.000000e+000  1.000000e+000
    outer loop
      vertex -3.250000e+001  1.000000e+001  3.000000e+000
      vertex -2.650000e+001  7.500000e+000  3.000000e+000
      vertex  2.650000e+001  7.500000e+000  3.000000e+000
    endloop
  endfacet
  facet normal  0.000000e+000  -0.000000e+000  1.000000e+000
    outer loop
      vertex -3.250000e+001  1.000000e+001  3.000000e+000
      vertex  2.650000e+001  7.500000e+000  3.000000e+000
      vertex  3.050000e+001  7.500000e+000  3.000000e+000
    endloop
  endfacet
  facet normal  0.000000e+000  -0.000000e+000  1.000000e+000
    outer loop
      vertex -3.250000e+001  1.000000e+001  3.000000e+000
      vertex  3.050000e+001  7.500000e+000  3.000000e+000
      vertex  3.250000e+001  1.000000e+001  3.000000e+000
    endloop
  endfacet
  facet normal  0.000000e+000  0.000000e+000  1.000000e+000
    outer loop
      vertex -2.650000e+001 -7.500000e+000  3.000000e+000
      vertex  2.650000e+001 -7.500000e+000  3.000000e+000
      vertex -2.650000e+001  7.500000e+000  3.000000e+000
    endloop
  endfacet
  facet normal  -0.000000e+000  0.000000e+000  1.000000e+000
    outer loop
      vertex -2.650000e+001  7.500000e+000  3.000000e+000
      vertex  2.650000e+001 -7.500000e+000  3.000000e+000
      vertex  2.650000e+001  7.500000e+000  3.000000e+000
    endloop
  endfacet
  facet normal  0.000000e+000  0.000000e+000  1.000000e+000
    outer loop
      vertex  3.050000e+001 -7.500000e+000  3.000000e+000
      vertex  3.250000e+001 -3.000000e+001  3.000000e+000
      vertex  3.050000e+001  7.500000e+000  3.000000e+000
    endloop
  endfacet
  facet normal  -0.000000e+000  0.000000e+000  1.000000e+000
    outer loop
      vertex  3.050000e+001  7.500000e+000  3.000000e+000
      vertex  3.250000e+001 -3.000000e+001  3.000000e+000
      vertex  3.250000e+001  1.000000e+001  3.000000e+000
    endloop
  endfacet
  facet normal  1.000000e+000  -0.000000e+000  0.000000e+000
    outer loop
      vertex  3.250000e+001  1.000000e+001  3.000000e+000
      vertex  3.250000e+001 -3.000000e+001  3.000000e+000
      vertex  3.250000e+001  1.000000e+001  0.000000e+000
    endloop
  endfacet
  facet normal  1.000000e+000  0.000000e+000  0.000000e+000
    outer loop
      vertex  3.250000e+001  1.000000e+001  0.000000e+000
      vertex  3.250000e+001 -3.000000e+001  3.000000e+000
      vertex  3.250000e+001 -3.000000e+001  0.000000e+000
    endloop
  endfacet
  facet normal  0.000000e+000 -1.000000e+000  0.000000e+000
    outer loop
      vertex  3.250000e+001 -3.000000e+001  3.000000e+000
      vertex -3.250000e+001 -3.000000e+001  3.000000e+000
      vertex  3.250000e+001 -3.000000e+001  0.000000e+000
    endloop
  endfacet
  facet normal  0.000000e+000 -1.000000e+000  0.000000e+000
    outer loop
      vertex  3.250000e+001 -3.000000e+001  0.000000e+000
      vertex -3.250000e+001 -3.000000e+001  3.000000e+000
      vertex -3.250000e+001 -3.000000e+001  0.000000e+000
    endloop
  endfacet
  facet normal -1.000000e+000  -0.000000e+000  0.000000e+000
    outer loop
      vertex -3.250000e+001 -3.000000e+001  3.000000e+000
      vertex -3.250000e+001  1.000000e+001  3.000000e+000
      vertex -3.250000e+001 -3.000000e+001  0.000000e+000
    endloop
  endfacet
  facet normal -1.000000e+000  0.000000e+000  0.000000e+000
    outer loop
      vertex -3.250000e+001 -3.000000e+001  0.000000e+000
      vertex -3.250000e+001  1.000000e+001  3.000000e+000
      vertex -3.250000e+001  1.000000e+001  0.000000e+000
    endloop
  endfacet
  facet normal  0.000000e+000  1.000000e+000  0.000000e+000
    outer loop
      vertex -3.250000e+001  1.000000e+001  3.000000e+000
      vertex  3.250000e+001  1.000000e+001  3.000000e+000
      vertex -3.250000e+001  1.000000e+001  0.000000e+000
    endloop
  endfacet
  facet normal  0.000000e+000  1.000000e+000  0.000000e+000
    outer loop
      vertex -3.250000e+001  1.000000e+001  0.000000e+000
      vertex  3.250000e+001  1.000000e+001  3.000000e+000
      vertex  3.250000e+001  1.000000e+001  0.000000e+000
    endloop
  endfacet
  facet normal  0.000000e+000  0.000000e+000  1.000000e+000
    outer loop
      vertex -3.050000e+001 -7.500000e+000  1.800000e+001
      vertex -2.650000e+001 -7.500000e+000  1.800000e+001
      vertex -3.050000e+001  7.500000e+000  1.800000e+001
    endloop
  endfacet
  facet normal  -0.000000e+000  0.000000e+000  1.000000e+000
    outer loop
      vertex -3.050000e+001  7.500000e+000  1.800000e+001
      vertex -2.650000e+001 -7.500000e+000  1.800000e+001
      vertex -2.650000e+001  7.500000e+000  1.800000e+001
    endloop
  endfacet
  facet normal  0.000000e+000  0.000000e+000  1.000000e+000
    outer loop
      vertex  2.650000e+001 -7.500000e+000  1.800000e+001
      vertex  3.050000e+001 -7.500000e+000  1.800000e+001
      vertex  2.650000e+001  7.500000e+000  1.800000e+001
    endloop
  endfacet
  facet normal  -0.000000e+000  0.000000e+000  1.000000e+000
    outer loop
      vertex  2.650000e+001  7.500000e+000  1.800000e+001
      vertex  3.050000e+001 -7.500000e+000  1.800000e+001
      vertex  3.050000e+001  7.500000e+000  1.800000e+001
    endloop
  endfacet
endsolid CATIA STL
